<mxfile type="device" compressed="false">
    <diagram id="Page-1" name="Page-1">
      <mxGraphModel dx="1360" dy="864" grid="1" gridSize="10" guides="1" tooltips="1" connect="1" arrows="1" fold="1" page="1" pageScale="1" pageWidth="827" pageHeight="1169" math="0" shadow="1">
        <root>
          <mxCell id="0" />   
          <mxCell id="1" parent="0" />
        <object id="authFail" label="Authentication Hatasi">
      <mxCell style="fillColor=#FF0000;whiteSpace=wrap;fontStyle=1" vertex="1" parent="1">
          <mxGeometry x="9750.0" y="-375.0" width="120" height="60" as="geometry" />
      </mxCell>
    </object><object id="timeout" label="Timeout">
      <mxCell style="fillColor=#9E4712;whiteSpace=wrap;fontStyle=1" vertex="1" parent="1">
          <mxGeometry x="9750.0" y="-750.0" width="120" height="60" as="geometry" />
      </mxCell>
    </object><object id="ipSyntax" label="Cihaz mevcut ancak bir IP paylasmiyor.">
      <mxCell style="fillColor=#CFD0CF;whiteSpace=wrap;fontStyle=1" vertex="1" parent="1">
          <mxGeometry x="9750.0" y="-1125.0" width="120" height="60" as="geometry" />
      </mxCell>
    </object><object id="sdwan" label="SDWan.">
      <mxCell style="fillColor=#00E8FF;whiteSpace=wrap;fontStyle=1" vertex="1" parent="1">
          <mxGeometry x="9750.0" y="-1500.0" width="120" height="60" as="geometry" />
      </mxCell>
    </object><object id="deviceSyntax" label="Aygitin konsol syntax'i farkli">
      <mxCell style="fillColor=#3E0D93;fontStyle=1;whiteSpace=wrap;" vertex="1" parent="1">
          <mxGeometry x="9750.0" y="-1875.0" width="120" height="60" as="geometry" />
      </mxCell>
    </object><object id="29d6ac13-1110-41bf-8c97-3b9a2e68ff37" label="BB 10.6.158.139 Backbone">
      <mxCell style="fillColor=#00FF17;whiteSpace=wrap;fontStyle=1" vertex="1" parent="1">
          <mxGeometry x="9750.0" y="0.0" width="120" height="60" as="geometry" />
      </mxCell>
    </object><object id="faaf5fe6-c087-476e-9866-1012ceafeaca" label="10.6.158.19 Catalhan_19.vdk.gov.tr Platform:ciscoWS-C2960+24TC-S,Capabilities:Switch">
      <mxCell style="fillColor=#00FF17;fontStyle=1;whiteSpace=wrap;" vertex="1" parent="1">
          <mxGeometry x="0.0" y="1500.0" width="200" height="100" as="geometry" />
      </mxCell>
    </object><mxCell id="2c73f6d96f5dabb867d96bef2f70b058-src" value="GigabitEthernet1/0/5" style="labelBackgroundColor=#ffffff;;" vertex="1" connectable="0" parent="2c73f6d96f5dabb867d96bef2f70b058">
      <mxGeometry x="-0.5" relative="1" as="geometry">
        <mxPoint as="offset" />
      </mxGeometry>
    </mxCell><mxCell id="2c73f6d96f5dabb867d96bef2f70b058-trgt" value="igabitEthernet0/1" style="labelBackgroundColor=#ffffff;;" vertex="1" connectable="0" parent="2c73f6d96f5dabb867d96bef2f70b058">
      <mxGeometry x="0.5" relative="-1" as="geometry">
        <mxPoint as="offset" />
      </mxGeometry>
    </mxCell><object id="2c73f6d96f5dabb867d96bef2f70b058" label="DF" src_label="GigabitEthernet1/0/5" trgt_label="igabitEthernet0/1" source="29d6ac13-1110-41bf-8c97-3b9a2e68ff37" target="faaf5fe6-c087-476e-9866-1012ceafeaca">
      <mxCell style="endArrow=none;" edge="1" parent="1" source="29d6ac13-1110-41bf-8c97-3b9a2e68ff37" target="faaf5fe6-c087-476e-9866-1012ceafeaca">
          <mxGeometry relative="1" as="geometry" />
      </mxCell>
    </object><object id="1794c521-0c17-4d67-8dff-c0ada996af50" label="10.6.158.18 Catalhan_18.vdk.gov.tr Platform:ciscoWS-C2960+24TC-S,Capabilities:Switch">
      <mxCell style="fillColor=#00FF17;fontStyle=1;whiteSpace=wrap;" vertex="1" parent="1">
          <mxGeometry x="500.0" y="1500.0" width="200" height="100" as="geometry" />
      </mxCell>
    </object><mxCell id="bfb5602ec73db759740c577a07a63867-src" value="GigabitEthernet1/0/1" style="labelBackgroundColor=#ffffff;;" vertex="1" connectable="0" parent="bfb5602ec73db759740c577a07a63867">
      <mxGeometry x="-0.5" relative="1" as="geometry">
        <mxPoint as="offset" />
      </mxGeometry>
    </mxCell><mxCell id="bfb5602ec73db759740c577a07a63867-trgt" value="igabitEthernet0/1" style="labelBackgroundColor=#ffffff;;" vertex="1" connectable="0" parent="bfb5602ec73db759740c577a07a63867">
      <mxGeometry x="0.5" relative="-1" as="geometry">
        <mxPoint as="offset" />
      </mxGeometry>
    </mxCell><object id="bfb5602ec73db759740c577a07a63867" label="DF" src_label="GigabitEthernet1/0/1" trgt_label="igabitEthernet0/1" source="29d6ac13-1110-41bf-8c97-3b9a2e68ff37" target="1794c521-0c17-4d67-8dff-c0ada996af50">
      <mxCell style="endArrow=none;" edge="1" parent="1" source="29d6ac13-1110-41bf-8c97-3b9a2e68ff37" target="1794c521-0c17-4d67-8dff-c0ada996af50">
          <mxGeometry relative="1" as="geometry" />
      </mxCell>
    </object><object id="66f03c7d-6361-44af-afa2-309da1118252" label="10.6.158.39 Catalhan_39.vdk.gov.tr Platform:ciscoWS-C2960+24TC-S,Capabilities:Switch">
      <mxCell style="fillColor=#00FF17;fontStyle=1;whiteSpace=wrap;" vertex="1" parent="1">
          <mxGeometry x="1000.0" y="1500.0" width="200" height="100" as="geometry" />
      </mxCell>
    </object><mxCell id="47c0e8bd79de724e0236ea20701f984f-src" value="GigabitEthernet1/0/18" style="labelBackgroundColor=#ffffff;;" vertex="1" connectable="0" parent="47c0e8bd79de724e0236ea20701f984f">
      <mxGeometry x="-0.5" relative="1" as="geometry">
        <mxPoint as="offset" />
      </mxGeometry>
    </mxCell><mxCell id="47c0e8bd79de724e0236ea20701f984f-trgt" value="igabitEthernet0/1" style="labelBackgroundColor=#ffffff;;" vertex="1" connectable="0" parent="47c0e8bd79de724e0236ea20701f984f">
      <mxGeometry x="0.5" relative="-1" as="geometry">
        <mxPoint as="offset" />
      </mxGeometry>
    </mxCell><object id="47c0e8bd79de724e0236ea20701f984f" label="DF" src_label="GigabitEthernet1/0/18" trgt_label="igabitEthernet0/1" source="29d6ac13-1110-41bf-8c97-3b9a2e68ff37" target="66f03c7d-6361-44af-afa2-309da1118252">
      <mxCell style="endArrow=none;" edge="1" parent="1" source="29d6ac13-1110-41bf-8c97-3b9a2e68ff37" target="66f03c7d-6361-44af-afa2-309da1118252">
          <mxGeometry relative="1" as="geometry" />
      </mxCell>
    </object><object id="de7f9474-a45c-4398-8e01-9ae90baf3b9a" label="10.6.158.38 Catalhan_38.vdk.gov.tr Platform:ciscoWS-C2960+24TC-S,Capabilities:Switch">
      <mxCell style="fillColor=#00FF17;fontStyle=1;whiteSpace=wrap;" vertex="1" parent="1">
          <mxGeometry x="1500.0" y="1500.0" width="200" height="100" as="geometry" />
      </mxCell>
    </object><mxCell id="5afcec5bd5e225c9901539dc078b0b58-src" value="GigabitEthernet1/0/22" style="labelBackgroundColor=#ffffff;;" vertex="1" connectable="0" parent="5afcec5bd5e225c9901539dc078b0b58">
      <mxGeometry x="-0.5" relative="1" as="geometry">
        <mxPoint as="offset" />
      </mxGeometry>
    </mxCell><mxCell id="5afcec5bd5e225c9901539dc078b0b58-trgt" value="igabitEthernet0/1" style="labelBackgroundColor=#ffffff;;" vertex="1" connectable="0" parent="5afcec5bd5e225c9901539dc078b0b58">
      <mxGeometry x="0.5" relative="-1" as="geometry">
        <mxPoint as="offset" />
      </mxGeometry>
    </mxCell><object id="5afcec5bd5e225c9901539dc078b0b58" label="DF" src_label="GigabitEthernet1/0/22" trgt_label="igabitEthernet0/1" source="29d6ac13-1110-41bf-8c97-3b9a2e68ff37" target="de7f9474-a45c-4398-8e01-9ae90baf3b9a">
      <mxCell style="endArrow=none;" edge="1" parent="1" source="29d6ac13-1110-41bf-8c97-3b9a2e68ff37" target="de7f9474-a45c-4398-8e01-9ae90baf3b9a">
          <mxGeometry relative="1" as="geometry" />
      </mxCell>
    </object><object id="5929f39d-6b98-4920-a7fa-e5581c7daf95" label="10.6.158.15 Catalhan_15.vdk.gov.tr Platform:ciscoWS-C2960+24TC-S,Capabilities:Switch">
      <mxCell style="fillColor=#00FF17;fontStyle=1;whiteSpace=wrap;" vertex="1" parent="1">
          <mxGeometry x="2000.0" y="1500.0" width="200" height="100" as="geometry" />
      </mxCell>
    </object><mxCell id="11ed5a2ca338158e4c5f413f6fd61699-src" value="GigabitEthernet1/0/6" style="labelBackgroundColor=#ffffff;;" vertex="1" connectable="0" parent="11ed5a2ca338158e4c5f413f6fd61699">
      <mxGeometry x="-0.5" relative="1" as="geometry">
        <mxPoint as="offset" />
      </mxGeometry>
    </mxCell><mxCell id="11ed5a2ca338158e4c5f413f6fd61699-trgt" value="igabitEthernet0/1" style="labelBackgroundColor=#ffffff;;" vertex="1" connectable="0" parent="11ed5a2ca338158e4c5f413f6fd61699">
      <mxGeometry x="0.5" relative="-1" as="geometry">
        <mxPoint as="offset" />
      </mxGeometry>
    </mxCell><object id="11ed5a2ca338158e4c5f413f6fd61699" label="DF" src_label="GigabitEthernet1/0/6" trgt_label="igabitEthernet0/1" source="29d6ac13-1110-41bf-8c97-3b9a2e68ff37" target="5929f39d-6b98-4920-a7fa-e5581c7daf95">
      <mxCell style="endArrow=none;" edge="1" parent="1" source="29d6ac13-1110-41bf-8c97-3b9a2e68ff37" target="5929f39d-6b98-4920-a7fa-e5581c7daf95">
          <mxGeometry relative="1" as="geometry" />
      </mxCell>
    </object><object id="9a779085-a5aa-454b-a2d9-31993a250d73" label="10.6.158.37 Catalhan_37.vdk.gov.tr Platform:ciscoWS-C2960+24TC-S,Capabilities:Switch">
      <mxCell style="fillColor=#00FF17;fontStyle=1;whiteSpace=wrap;" vertex="1" parent="1">
          <mxGeometry x="2500.0" y="1500.0" width="200" height="100" as="geometry" />
      </mxCell>
    </object><mxCell id="863738d7f525e3c8cd90a8d697985bd9-src" value="GigabitEthernet1/0/20" style="labelBackgroundColor=#ffffff;;" vertex="1" connectable="0" parent="863738d7f525e3c8cd90a8d697985bd9">
      <mxGeometry x="-0.5" relative="1" as="geometry">
        <mxPoint as="offset" />
      </mxGeometry>
    </mxCell><mxCell id="863738d7f525e3c8cd90a8d697985bd9-trgt" value="igabitEthernet0/1" style="labelBackgroundColor=#ffffff;;" vertex="1" connectable="0" parent="863738d7f525e3c8cd90a8d697985bd9">
      <mxGeometry x="0.5" relative="-1" as="geometry">
        <mxPoint as="offset" />
      </mxGeometry>
    </mxCell><object id="863738d7f525e3c8cd90a8d697985bd9" label="DF" src_label="GigabitEthernet1/0/20" trgt_label="igabitEthernet0/1" source="29d6ac13-1110-41bf-8c97-3b9a2e68ff37" target="9a779085-a5aa-454b-a2d9-31993a250d73">
      <mxCell style="endArrow=none;" edge="1" parent="1" source="29d6ac13-1110-41bf-8c97-3b9a2e68ff37" target="9a779085-a5aa-454b-a2d9-31993a250d73">
          <mxGeometry relative="1" as="geometry" />
      </mxCell>
    </object><object id="8e31e6d5-9877-4358-9043-603c1b59ee54" label="10.6.158.40 Catalhan_40.vdk.gov.tr Platform:ciscoWS-C2960+24TC-S,Capabilities:Switch">
      <mxCell style="fillColor=#00FF17;fontStyle=1;whiteSpace=wrap;" vertex="1" parent="1">
          <mxGeometry x="3000.0" y="1500.0" width="200" height="100" as="geometry" />
      </mxCell>
    </object><mxCell id="56b2a1f16476995b1af6e32c49c0b7da-src" value="GigabitEthernet1/0/19" style="labelBackgroundColor=#ffffff;;" vertex="1" connectable="0" parent="56b2a1f16476995b1af6e32c49c0b7da">
      <mxGeometry x="-0.5" relative="1" as="geometry">
        <mxPoint as="offset" />
      </mxGeometry>
    </mxCell><mxCell id="56b2a1f16476995b1af6e32c49c0b7da-trgt" value="igabitEthernet0/1" style="labelBackgroundColor=#ffffff;;" vertex="1" connectable="0" parent="56b2a1f16476995b1af6e32c49c0b7da">
      <mxGeometry x="0.5" relative="-1" as="geometry">
        <mxPoint as="offset" />
      </mxGeometry>
    </mxCell><object id="56b2a1f16476995b1af6e32c49c0b7da" label="DF" src_label="GigabitEthernet1/0/19" trgt_label="igabitEthernet0/1" source="29d6ac13-1110-41bf-8c97-3b9a2e68ff37" target="8e31e6d5-9877-4358-9043-603c1b59ee54">
      <mxCell style="endArrow=none;" edge="1" parent="1" source="29d6ac13-1110-41bf-8c97-3b9a2e68ff37" target="8e31e6d5-9877-4358-9043-603c1b59ee54">
          <mxGeometry relative="1" as="geometry" />
      </mxCell>
    </object><object id="13f9c740-a7c6-46fc-8238-e927c4b23f65" label="10.6.158.96 Catalhan_96.vdk.gov.tr Platform:ciscoWS-C2960+24TC-S,Capabilities:SwitchIGMP">
      <mxCell style="fillColor=#00FF17;fontStyle=1;whiteSpace=wrap;" vertex="1" parent="1">
          <mxGeometry x="1500.0" y="3000.0" width="200" height="100" as="geometry" />
      </mxCell>
    </object><mxCell id="95f15e6d711e92d73e174bd3ea625455-src" value="FastEthernet0/4" style="labelBackgroundColor=#ffffff;;" vertex="1" connectable="0" parent="95f15e6d711e92d73e174bd3ea625455">
      <mxGeometry x="-0.5" relative="1" as="geometry">
        <mxPoint as="offset" />
      </mxGeometry>
    </mxCell><mxCell id="95f15e6d711e92d73e174bd3ea625455-trgt" value="igabitEthernet0/2" style="labelBackgroundColor=#ffffff;;" vertex="1" connectable="0" parent="95f15e6d711e92d73e174bd3ea625455">
      <mxGeometry x="0.5" relative="-1" as="geometry">
        <mxPoint as="offset" />
      </mxGeometry>
    </mxCell><object id="95f15e6d711e92d73e174bd3ea625455" label="DF" src_label="FastEthernet0/4" trgt_label="igabitEthernet0/2" source="8e31e6d5-9877-4358-9043-603c1b59ee54" target="13f9c740-a7c6-46fc-8238-e927c4b23f65">
      <mxCell style="endArrow=none;" edge="1" parent="1" source="8e31e6d5-9877-4358-9043-603c1b59ee54" target="13f9c740-a7c6-46fc-8238-e927c4b23f65">
          <mxGeometry relative="1" as="geometry" />
      </mxCell>
    </object><object id="8012d36b-0bb6-4311-bafa-d0792bc9db9a" label="10.6.158.95 Catalhan_95.vdk.gov.tr Platform:ciscoWS-C2960+24TC-S,Capabilities:SwitchIGMP">
      <mxCell style="fillColor=#00FF17;fontStyle=1;whiteSpace=wrap;" vertex="1" parent="1">
          <mxGeometry x="1500.0" y="4500.0" width="200" height="100" as="geometry" />
      </mxCell>
    </object><mxCell id="72200142874db7943f1f80548c2dbb8a-src" value="GigabitEthernet0/1" style="labelBackgroundColor=#ffffff;;" vertex="1" connectable="0" parent="72200142874db7943f1f80548c2dbb8a">
      <mxGeometry x="-0.5" relative="1" as="geometry">
        <mxPoint as="offset" />
      </mxGeometry>
    </mxCell><mxCell id="72200142874db7943f1f80548c2dbb8a-trgt" value="igabitEthernet0/1" style="labelBackgroundColor=#ffffff;;" vertex="1" connectable="0" parent="72200142874db7943f1f80548c2dbb8a">
      <mxGeometry x="0.5" relative="-1" as="geometry">
        <mxPoint as="offset" />
      </mxGeometry>
    </mxCell><object id="72200142874db7943f1f80548c2dbb8a" label="DF" src_label="GigabitEthernet0/1" trgt_label="igabitEthernet0/1" source="13f9c740-a7c6-46fc-8238-e927c4b23f65" target="8012d36b-0bb6-4311-bafa-d0792bc9db9a">
      <mxCell style="endArrow=none;" edge="1" parent="1" source="13f9c740-a7c6-46fc-8238-e927c4b23f65" target="8012d36b-0bb6-4311-bafa-d0792bc9db9a">
          <mxGeometry relative="1" as="geometry" />
      </mxCell>
    </object><object id="6744f1ac-9fc0-4b8b-9bc3-f79c62f19c1e" label="10.6.158.94 Catalhan_94.vdk.gov.tr Platform:ciscoWS-C2960+24TC-S,Capabilities:SwitchIGMP">
      <mxCell style="fillColor=#00FF17;fontStyle=1;whiteSpace=wrap;" vertex="1" parent="1">
          <mxGeometry x="1500.0" y="6000.0" width="200" height="100" as="geometry" />
      </mxCell>
    </object><mxCell id="f57054a03f6fae1d0e3f89721b9291f5-src" value="GigabitEthernet0/2" style="labelBackgroundColor=#ffffff;;" vertex="1" connectable="0" parent="f57054a03f6fae1d0e3f89721b9291f5">
      <mxGeometry x="-0.5" relative="1" as="geometry">
        <mxPoint as="offset" />
      </mxGeometry>
    </mxCell><mxCell id="f57054a03f6fae1d0e3f89721b9291f5-trgt" value="igabitEthernet0/1" style="labelBackgroundColor=#ffffff;;" vertex="1" connectable="0" parent="f57054a03f6fae1d0e3f89721b9291f5">
      <mxGeometry x="0.5" relative="-1" as="geometry">
        <mxPoint as="offset" />
      </mxGeometry>
    </mxCell><object id="f57054a03f6fae1d0e3f89721b9291f5" label="DF" src_label="GigabitEthernet0/2" trgt_label="igabitEthernet0/1" source="8012d36b-0bb6-4311-bafa-d0792bc9db9a" target="6744f1ac-9fc0-4b8b-9bc3-f79c62f19c1e">
      <mxCell style="endArrow=none;" edge="1" parent="1" source="8012d36b-0bb6-4311-bafa-d0792bc9db9a" target="6744f1ac-9fc0-4b8b-9bc3-f79c62f19c1e">
          <mxGeometry relative="1" as="geometry" />
      </mxCell>
    </object><object id="6197c9d8-e35a-4028-b37a-1013701f9fae" label="10.6.158.91 Catalhan_91.vdk.gov.tr Platform:ciscoWS-C2960+24TC-S,Capabilities:SwitchIGMP">
      <mxCell style="fillColor=#00FF17;fontStyle=1;whiteSpace=wrap;" vertex="1" parent="1">
          <mxGeometry x="2000.0" y="3000.0" width="200" height="100" as="geometry" />
      </mxCell>
    </object><mxCell id="422825feaf5a63419de72dacae81f92e-src" value="FastEthernet0/1" style="labelBackgroundColor=#ffffff;;" vertex="1" connectable="0" parent="422825feaf5a63419de72dacae81f92e">
      <mxGeometry x="-0.5" relative="1" as="geometry">
        <mxPoint as="offset" />
      </mxGeometry>
    </mxCell><mxCell id="422825feaf5a63419de72dacae81f92e-trgt" value="igabitEthernet0/2" style="labelBackgroundColor=#ffffff;;" vertex="1" connectable="0" parent="422825feaf5a63419de72dacae81f92e">
      <mxGeometry x="0.5" relative="-1" as="geometry">
        <mxPoint as="offset" />
      </mxGeometry>
    </mxCell><object id="422825feaf5a63419de72dacae81f92e" label="DF" src_label="FastEthernet0/1" trgt_label="igabitEthernet0/2" source="8e31e6d5-9877-4358-9043-603c1b59ee54" target="6197c9d8-e35a-4028-b37a-1013701f9fae">
      <mxCell style="endArrow=none;" edge="1" parent="1" source="8e31e6d5-9877-4358-9043-603c1b59ee54" target="6197c9d8-e35a-4028-b37a-1013701f9fae">
          <mxGeometry relative="1" as="geometry" />
      </mxCell>
    </object><object id="cbb7768d-90f0-4b53-a013-60327a103c08" label="10.6.158.90 Catalhan_90.vdk.gov.tr Platform:ciscoWS-C2960+24TC-S,Capabilities:SwitchIGMP">
      <mxCell style="fillColor=#00FF17;fontStyle=1;whiteSpace=wrap;" vertex="1" parent="1">
          <mxGeometry x="2000.0" y="4500.0" width="200" height="100" as="geometry" />
      </mxCell>
    </object><mxCell id="665c00497e3c3a9b30cd5687a9169849-src" value="GigabitEthernet0/1" style="labelBackgroundColor=#ffffff;;" vertex="1" connectable="0" parent="665c00497e3c3a9b30cd5687a9169849">
      <mxGeometry x="-0.5" relative="1" as="geometry">
        <mxPoint as="offset" />
      </mxGeometry>
    </mxCell><mxCell id="665c00497e3c3a9b30cd5687a9169849-trgt" value="igabitEthernet0/2" style="labelBackgroundColor=#ffffff;;" vertex="1" connectable="0" parent="665c00497e3c3a9b30cd5687a9169849">
      <mxGeometry x="0.5" relative="-1" as="geometry">
        <mxPoint as="offset" />
      </mxGeometry>
    </mxCell><object id="665c00497e3c3a9b30cd5687a9169849" label="DF" src_label="GigabitEthernet0/1" trgt_label="igabitEthernet0/2" source="6197c9d8-e35a-4028-b37a-1013701f9fae" target="cbb7768d-90f0-4b53-a013-60327a103c08">
      <mxCell style="endArrow=none;" edge="1" parent="1" source="6197c9d8-e35a-4028-b37a-1013701f9fae" target="cbb7768d-90f0-4b53-a013-60327a103c08">
          <mxGeometry relative="1" as="geometry" />
      </mxCell>
    </object><object id="06fcee6c-f921-4250-9815-7f2d92212a53" label="10.6.158.89 Catalhan_89.vdk.gov.tr Platform:ciscoWS-C2960+24TC-S,Capabilities:SwitchIGMP">
      <mxCell style="fillColor=#00FF17;fontStyle=1;whiteSpace=wrap;" vertex="1" parent="1">
          <mxGeometry x="2000.0" y="6000.0" width="200" height="100" as="geometry" />
      </mxCell>
    </object><mxCell id="0cc65ccce190053ba6b47c5b8555453a-src" value="GigabitEthernet0/1" style="labelBackgroundColor=#ffffff;;" vertex="1" connectable="0" parent="0cc65ccce190053ba6b47c5b8555453a">
      <mxGeometry x="-0.5" relative="1" as="geometry">
        <mxPoint as="offset" />
      </mxGeometry>
    </mxCell><mxCell id="0cc65ccce190053ba6b47c5b8555453a-trgt" value="igabitEthernet0/1" style="labelBackgroundColor=#ffffff;;" vertex="1" connectable="0" parent="0cc65ccce190053ba6b47c5b8555453a">
      <mxGeometry x="0.5" relative="-1" as="geometry">
        <mxPoint as="offset" />
      </mxGeometry>
    </mxCell><object id="0cc65ccce190053ba6b47c5b8555453a" label="DF" src_label="GigabitEthernet0/1" trgt_label="igabitEthernet0/1" source="cbb7768d-90f0-4b53-a013-60327a103c08" target="06fcee6c-f921-4250-9815-7f2d92212a53">
      <mxCell style="endArrow=none;" edge="1" parent="1" source="cbb7768d-90f0-4b53-a013-60327a103c08" target="06fcee6c-f921-4250-9815-7f2d92212a53">
          <mxGeometry relative="1" as="geometry" />
      </mxCell>
    </object><object id="f515295e-4a73-402f-9e64-3d970425636d" label="10.6.158.93 Catalhan_93.vdk.gov.tr Platform:ciscoWS-C2960+24TC-S,Capabilities:SwitchIGMP">
      <mxCell style="fillColor=#00FF17;fontStyle=1;whiteSpace=wrap;" vertex="1" parent="1">
          <mxGeometry x="2500.0" y="3000.0" width="200" height="100" as="geometry" />
      </mxCell>
    </object><mxCell id="21892728cfda5396d25b18047d5b6a99-src" value="FastEthernet0/2" style="labelBackgroundColor=#ffffff;;" vertex="1" connectable="0" parent="21892728cfda5396d25b18047d5b6a99">
      <mxGeometry x="-0.5" relative="1" as="geometry">
        <mxPoint as="offset" />
      </mxGeometry>
    </mxCell><mxCell id="21892728cfda5396d25b18047d5b6a99-trgt" value="igabitEthernet0/2" style="labelBackgroundColor=#ffffff;;" vertex="1" connectable="0" parent="21892728cfda5396d25b18047d5b6a99">
      <mxGeometry x="0.5" relative="-1" as="geometry">
        <mxPoint as="offset" />
      </mxGeometry>
    </mxCell><object id="21892728cfda5396d25b18047d5b6a99" label="DF" src_label="FastEthernet0/2" trgt_label="igabitEthernet0/2" source="8e31e6d5-9877-4358-9043-603c1b59ee54" target="f515295e-4a73-402f-9e64-3d970425636d">
      <mxCell style="endArrow=none;" edge="1" parent="1" source="8e31e6d5-9877-4358-9043-603c1b59ee54" target="f515295e-4a73-402f-9e64-3d970425636d">
          <mxGeometry relative="1" as="geometry" />
      </mxCell>
    </object><object id="0197769e-b2dd-46bb-a2f2-cbd90c83880a" label="10.6.158.92 Catalhan_92.vdk.gov.tr Platform:ciscoWS-C2960+24TC-S,Capabilities:SwitchIGMP">
      <mxCell style="fillColor=#00FF17;fontStyle=1;whiteSpace=wrap;" vertex="1" parent="1">
          <mxGeometry x="2500.0" y="4500.0" width="200" height="100" as="geometry" />
      </mxCell>
    </object><mxCell id="086ce8fe34a0afc1e1f4b6504c57ccbe-src" value="GigabitEthernet0/1" style="labelBackgroundColor=#ffffff;;" vertex="1" connectable="0" parent="086ce8fe34a0afc1e1f4b6504c57ccbe">
      <mxGeometry x="-0.5" relative="1" as="geometry">
        <mxPoint as="offset" />
      </mxGeometry>
    </mxCell><mxCell id="086ce8fe34a0afc1e1f4b6504c57ccbe-trgt" value="igabitEthernet0/1" style="labelBackgroundColor=#ffffff;;" vertex="1" connectable="0" parent="086ce8fe34a0afc1e1f4b6504c57ccbe">
      <mxGeometry x="0.5" relative="-1" as="geometry">
        <mxPoint as="offset" />
      </mxGeometry>
    </mxCell><object id="086ce8fe34a0afc1e1f4b6504c57ccbe" label="DF" src_label="GigabitEthernet0/1" trgt_label="igabitEthernet0/1" source="f515295e-4a73-402f-9e64-3d970425636d" target="0197769e-b2dd-46bb-a2f2-cbd90c83880a">
      <mxCell style="endArrow=none;" edge="1" parent="1" source="f515295e-4a73-402f-9e64-3d970425636d" target="0197769e-b2dd-46bb-a2f2-cbd90c83880a">
          <mxGeometry relative="1" as="geometry" />
      </mxCell>
    </object><object id="cc1998e5-11ed-4527-86b8-842136666691" label="10.6.158.98 Catalhan_98.vdk.gov.tr Platform:ciscoWS-C2960+24TC-S,Capabilities:SwitchIGMP">
      <mxCell style="fillColor=#00FF17;fontStyle=1;whiteSpace=wrap;" vertex="1" parent="1">
          <mxGeometry x="3000.0" y="3000.0" width="200" height="100" as="geometry" />
      </mxCell>
    </object><mxCell id="b85b63a8ffe6f00fe46e8779a9489d5b-src" value="FastEthernet0/3" style="labelBackgroundColor=#ffffff;;" vertex="1" connectable="0" parent="b85b63a8ffe6f00fe46e8779a9489d5b">
      <mxGeometry x="-0.5" relative="1" as="geometry">
        <mxPoint as="offset" />
      </mxGeometry>
    </mxCell><mxCell id="b85b63a8ffe6f00fe46e8779a9489d5b-trgt" value="igabitEthernet0/2" style="labelBackgroundColor=#ffffff;;" vertex="1" connectable="0" parent="b85b63a8ffe6f00fe46e8779a9489d5b">
      <mxGeometry x="0.5" relative="-1" as="geometry">
        <mxPoint as="offset" />
      </mxGeometry>
    </mxCell><object id="b85b63a8ffe6f00fe46e8779a9489d5b" label="DF" src_label="FastEthernet0/3" trgt_label="igabitEthernet0/2" source="8e31e6d5-9877-4358-9043-603c1b59ee54" target="cc1998e5-11ed-4527-86b8-842136666691">
      <mxCell style="endArrow=none;" edge="1" parent="1" source="8e31e6d5-9877-4358-9043-603c1b59ee54" target="cc1998e5-11ed-4527-86b8-842136666691">
          <mxGeometry relative="1" as="geometry" />
      </mxCell>
    </object><object id="d84f75be-64de-48a4-9b0a-5e923b7e4db3" label="10.6.158.97 Catalhan_97.vdk.gov.tr Platform:ciscoWS-C2960+24TC-S,Capabilities:SwitchIGMP">
      <mxCell style="fillColor=#00FF17;fontStyle=1;whiteSpace=wrap;" vertex="1" parent="1">
          <mxGeometry x="3000.0" y="4500.0" width="200" height="100" as="geometry" />
      </mxCell>
    </object><mxCell id="7e87533c95297d5cef46d567b01aa4ff-src" value="GigabitEthernet0/1" style="labelBackgroundColor=#ffffff;;" vertex="1" connectable="0" parent="7e87533c95297d5cef46d567b01aa4ff">
      <mxGeometry x="-0.5" relative="1" as="geometry">
        <mxPoint as="offset" />
      </mxGeometry>
    </mxCell><mxCell id="7e87533c95297d5cef46d567b01aa4ff-trgt" value="igabitEthernet0/2" style="labelBackgroundColor=#ffffff;;" vertex="1" connectable="0" parent="7e87533c95297d5cef46d567b01aa4ff">
      <mxGeometry x="0.5" relative="-1" as="geometry">
        <mxPoint as="offset" />
      </mxGeometry>
    </mxCell><object id="7e87533c95297d5cef46d567b01aa4ff" label="DF" src_label="GigabitEthernet0/1" trgt_label="igabitEthernet0/2" source="cc1998e5-11ed-4527-86b8-842136666691" target="d84f75be-64de-48a4-9b0a-5e923b7e4db3">
      <mxCell style="endArrow=none;" edge="1" parent="1" source="cc1998e5-11ed-4527-86b8-842136666691" target="d84f75be-64de-48a4-9b0a-5e923b7e4db3">
          <mxGeometry relative="1" as="geometry" />
      </mxCell>
    </object><object id="bcbae049-1c62-4da2-966e-9cfd64a23c94" label="10.6.158.118 Catalhan_118.vdk.gov.tr Platform:ciscoWS-C2960+24TC-S,Capabilities:SwitchIGMP">
      <mxCell style="fillColor=#00FF17;fontStyle=1;whiteSpace=wrap;" vertex="1" parent="1">
          <mxGeometry x="3500.0" y="3000.0" width="200" height="100" as="geometry" />
      </mxCell>
    </object><mxCell id="6f39af812524c095b3c35c6a6f14aa8e-src" value="FastEthernet0/7" style="labelBackgroundColor=#ffffff;;" vertex="1" connectable="0" parent="6f39af812524c095b3c35c6a6f14aa8e">
      <mxGeometry x="-0.5" relative="1" as="geometry">
        <mxPoint as="offset" />
      </mxGeometry>
    </mxCell><mxCell id="6f39af812524c095b3c35c6a6f14aa8e-trgt" value="igabitEthernet0/1" style="labelBackgroundColor=#ffffff;;" vertex="1" connectable="0" parent="6f39af812524c095b3c35c6a6f14aa8e">
      <mxGeometry x="0.5" relative="-1" as="geometry">
        <mxPoint as="offset" />
      </mxGeometry>
    </mxCell><object id="6f39af812524c095b3c35c6a6f14aa8e" label="DF" src_label="FastEthernet0/7" trgt_label="igabitEthernet0/1" source="8e31e6d5-9877-4358-9043-603c1b59ee54" target="bcbae049-1c62-4da2-966e-9cfd64a23c94">
      <mxCell style="endArrow=none;" edge="1" parent="1" source="8e31e6d5-9877-4358-9043-603c1b59ee54" target="bcbae049-1c62-4da2-966e-9cfd64a23c94">
          <mxGeometry relative="1" as="geometry" />
      </mxCell>
    </object><object id="3f5e83f3-87e3-41d0-9e2e-c5875915c568" label="10.6.158.125 Catalhan_125.vdk.gov.tr Platform:ciscoWS-C2960+24TC-S,Capabilities:SwitchIGMP">
      <mxCell style="fillColor=#00FF17;fontStyle=1;whiteSpace=wrap;" vertex="1" parent="1">
          <mxGeometry x="3500.0" y="4500.0" width="200" height="100" as="geometry" />
      </mxCell>
    </object><mxCell id="8f0eef7475012237024a6666c56c72a6-src" value="GigabitEthernet0/2" style="labelBackgroundColor=#ffffff;;" vertex="1" connectable="0" parent="8f0eef7475012237024a6666c56c72a6">
      <mxGeometry x="-0.5" relative="1" as="geometry">
        <mxPoint as="offset" />
      </mxGeometry>
    </mxCell><mxCell id="8f0eef7475012237024a6666c56c72a6-trgt" value="igabitEthernet0/1" style="labelBackgroundColor=#ffffff;;" vertex="1" connectable="0" parent="8f0eef7475012237024a6666c56c72a6">
      <mxGeometry x="0.5" relative="-1" as="geometry">
        <mxPoint as="offset" />
      </mxGeometry>
    </mxCell><object id="8f0eef7475012237024a6666c56c72a6" label="DF" src_label="GigabitEthernet0/2" trgt_label="igabitEthernet0/1" source="bcbae049-1c62-4da2-966e-9cfd64a23c94" target="3f5e83f3-87e3-41d0-9e2e-c5875915c568">
      <mxCell style="endArrow=none;" edge="1" parent="1" source="bcbae049-1c62-4da2-966e-9cfd64a23c94" target="3f5e83f3-87e3-41d0-9e2e-c5875915c568">
          <mxGeometry relative="1" as="geometry" />
      </mxCell>
    </object><object id="9904bc0e-0e50-4ee0-81c0-0776c945479e" label="10.6.158.119 Catalhan_119.vdk.gov.tr Platform:ciscoWS-C2960+24TC-S,Capabilities:SwitchIGMP">
      <mxCell style="fillColor=#00FF17;fontStyle=1;whiteSpace=wrap;" vertex="1" parent="1">
          <mxGeometry x="3500.0" y="6000.0" width="200" height="100" as="geometry" />
      </mxCell>
    </object><mxCell id="470bb5237c58c7c71eda4ba8a2bd759b-src" value="GigabitEthernet0/2" style="labelBackgroundColor=#ffffff;;" vertex="1" connectable="0" parent="470bb5237c58c7c71eda4ba8a2bd759b">
      <mxGeometry x="-0.5" relative="1" as="geometry">
        <mxPoint as="offset" />
      </mxGeometry>
    </mxCell><mxCell id="470bb5237c58c7c71eda4ba8a2bd759b-trgt" value="igabitEthernet0/1" style="labelBackgroundColor=#ffffff;;" vertex="1" connectable="0" parent="470bb5237c58c7c71eda4ba8a2bd759b">
      <mxGeometry x="0.5" relative="-1" as="geometry">
        <mxPoint as="offset" />
      </mxGeometry>
    </mxCell><object id="470bb5237c58c7c71eda4ba8a2bd759b" label="DF" src_label="GigabitEthernet0/2" trgt_label="igabitEthernet0/1" source="3f5e83f3-87e3-41d0-9e2e-c5875915c568" target="9904bc0e-0e50-4ee0-81c0-0776c945479e">
      <mxCell style="endArrow=none;" edge="1" parent="1" source="3f5e83f3-87e3-41d0-9e2e-c5875915c568" target="9904bc0e-0e50-4ee0-81c0-0776c945479e">
          <mxGeometry relative="1" as="geometry" />
      </mxCell>
    </object><object id="2bedd369-7774-4a16-904f-7207b3320330" label="10.6.158.128 Catalhan_128.vdk.gov.tr Platform:ciscoWS-C2960+24TC-S,Capabilities:SwitchIGMP">
      <mxCell style="fillColor=#00FF17;fontStyle=1;whiteSpace=wrap;" vertex="1" parent="1">
          <mxGeometry x="3500.0" y="7500.0" width="200" height="100" as="geometry" />
      </mxCell>
    </object><mxCell id="fb1ec1ac9d83c9a6895ffbfde8c08c07-src" value="GigabitEthernet0/2" style="labelBackgroundColor=#ffffff;;" vertex="1" connectable="0" parent="fb1ec1ac9d83c9a6895ffbfde8c08c07">
      <mxGeometry x="-0.5" relative="1" as="geometry">
        <mxPoint as="offset" />
      </mxGeometry>
    </mxCell><mxCell id="fb1ec1ac9d83c9a6895ffbfde8c08c07-trgt" value="igabitEthernet0/1" style="labelBackgroundColor=#ffffff;;" vertex="1" connectable="0" parent="fb1ec1ac9d83c9a6895ffbfde8c08c07">
      <mxGeometry x="0.5" relative="-1" as="geometry">
        <mxPoint as="offset" />
      </mxGeometry>
    </mxCell><object id="fb1ec1ac9d83c9a6895ffbfde8c08c07" label="DF" src_label="GigabitEthernet0/2" trgt_label="igabitEthernet0/1" source="9904bc0e-0e50-4ee0-81c0-0776c945479e" target="2bedd369-7774-4a16-904f-7207b3320330">
      <mxCell style="endArrow=none;" edge="1" parent="1" source="9904bc0e-0e50-4ee0-81c0-0776c945479e" target="2bedd369-7774-4a16-904f-7207b3320330">
          <mxGeometry relative="1" as="geometry" />
      </mxCell>
    </object><object id="c67310e6-b792-4f23-9494-485d5d13319f" label="10.6.158.116 Catalhan_116.vdk.gov.tr Platform:ciscoWS-C2960+24TC-S,Capabilities:SwitchIGMP">
      <mxCell style="fillColor=#00FF17;fontStyle=1;whiteSpace=wrap;" vertex="1" parent="1">
          <mxGeometry x="3500.0" y="9000.0" width="200" height="100" as="geometry" />
      </mxCell>
    </object><mxCell id="2278035630df6fbbf0211f002af2b319-src" value="GigabitEthernet0/2" style="labelBackgroundColor=#ffffff;;" vertex="1" connectable="0" parent="2278035630df6fbbf0211f002af2b319">
      <mxGeometry x="-0.5" relative="1" as="geometry">
        <mxPoint as="offset" />
      </mxGeometry>
    </mxCell><mxCell id="2278035630df6fbbf0211f002af2b319-trgt" value="igabitEthernet0/1" style="labelBackgroundColor=#ffffff;;" vertex="1" connectable="0" parent="2278035630df6fbbf0211f002af2b319">
      <mxGeometry x="0.5" relative="-1" as="geometry">
        <mxPoint as="offset" />
      </mxGeometry>
    </mxCell><object id="2278035630df6fbbf0211f002af2b319" label="DF" src_label="GigabitEthernet0/2" trgt_label="igabitEthernet0/1" source="2bedd369-7774-4a16-904f-7207b3320330" target="c67310e6-b792-4f23-9494-485d5d13319f">
      <mxCell style="endArrow=none;" edge="1" parent="1" source="2bedd369-7774-4a16-904f-7207b3320330" target="c67310e6-b792-4f23-9494-485d5d13319f">
          <mxGeometry relative="1" as="geometry" />
      </mxCell>
    </object><object id="2cd1a9d1-70c0-4204-9ffd-b2233494b6b2" label="10.6.158.126 Catalhan_126.vdk.gov.tr Platform:ciscoWS-C2960+24TC-S,Capabilities:SwitchIGMP">
      <mxCell style="fillColor=#00FF17;fontStyle=1;whiteSpace=wrap;" vertex="1" parent="1">
          <mxGeometry x="4000.0" y="3000.0" width="200" height="100" as="geometry" />
      </mxCell>
    </object><mxCell id="a3774a503a2a1339ec0c4b0c091a842b-src" value="FastEthernet0/6" style="labelBackgroundColor=#ffffff;;" vertex="1" connectable="0" parent="a3774a503a2a1339ec0c4b0c091a842b">
      <mxGeometry x="-0.5" relative="1" as="geometry">
        <mxPoint as="offset" />
      </mxGeometry>
    </mxCell><mxCell id="a3774a503a2a1339ec0c4b0c091a842b-trgt" value="igabitEthernet0/1" style="labelBackgroundColor=#ffffff;;" vertex="1" connectable="0" parent="a3774a503a2a1339ec0c4b0c091a842b">
      <mxGeometry x="0.5" relative="-1" as="geometry">
        <mxPoint as="offset" />
      </mxGeometry>
    </mxCell><object id="a3774a503a2a1339ec0c4b0c091a842b" label="DF" src_label="FastEthernet0/6" trgt_label="igabitEthernet0/1" source="8e31e6d5-9877-4358-9043-603c1b59ee54" target="2cd1a9d1-70c0-4204-9ffd-b2233494b6b2">
      <mxCell style="endArrow=none;" edge="1" parent="1" source="8e31e6d5-9877-4358-9043-603c1b59ee54" target="2cd1a9d1-70c0-4204-9ffd-b2233494b6b2">
          <mxGeometry relative="1" as="geometry" />
      </mxCell>
    </object><object id="63d6ed9f-1050-434d-88d0-3c91def531d0" label="10.6.158.115 Catalhan_115.vdk.gov.tr Platform:ciscoWS-C2960+24TC-S,Capabilities:SwitchIGMP">
      <mxCell style="fillColor=#00FF17;fontStyle=1;whiteSpace=wrap;" vertex="1" parent="1">
          <mxGeometry x="4000.0" y="4500.0" width="200" height="100" as="geometry" />
      </mxCell>
    </object><mxCell id="d4c9705ff259d082c9dfd6195fdf3b4a-src" value="GigabitEthernet0/2" style="labelBackgroundColor=#ffffff;;" vertex="1" connectable="0" parent="d4c9705ff259d082c9dfd6195fdf3b4a">
      <mxGeometry x="-0.5" relative="1" as="geometry">
        <mxPoint as="offset" />
      </mxGeometry>
    </mxCell><mxCell id="d4c9705ff259d082c9dfd6195fdf3b4a-trgt" value="igabitEthernet0/1" style="labelBackgroundColor=#ffffff;;" vertex="1" connectable="0" parent="d4c9705ff259d082c9dfd6195fdf3b4a">
      <mxGeometry x="0.5" relative="-1" as="geometry">
        <mxPoint as="offset" />
      </mxGeometry>
    </mxCell><object id="d4c9705ff259d082c9dfd6195fdf3b4a" label="DF" src_label="GigabitEthernet0/2" trgt_label="igabitEthernet0/1" source="2cd1a9d1-70c0-4204-9ffd-b2233494b6b2" target="63d6ed9f-1050-434d-88d0-3c91def531d0">
      <mxCell style="endArrow=none;" edge="1" parent="1" source="2cd1a9d1-70c0-4204-9ffd-b2233494b6b2" target="63d6ed9f-1050-434d-88d0-3c91def531d0">
          <mxGeometry relative="1" as="geometry" />
      </mxCell>
    </object><object id="96c24036-2bd9-4459-b504-3dc02e0ab6f2" label="10.6.158.122 Catalhan_122.vdk.gov.tr Platform:ciscoWS-C2960+24TC-S,Capabilities:SwitchIGMP">
      <mxCell style="fillColor=#00FF17;fontStyle=1;whiteSpace=wrap;" vertex="1" parent="1">
          <mxGeometry x="4000.0" y="6000.0" width="200" height="100" as="geometry" />
      </mxCell>
    </object><mxCell id="8d6022acc11cd8ae8df713477c96b85d-src" value="GigabitEthernet0/2" style="labelBackgroundColor=#ffffff;;" vertex="1" connectable="0" parent="8d6022acc11cd8ae8df713477c96b85d">
      <mxGeometry x="-0.5" relative="1" as="geometry">
        <mxPoint as="offset" />
      </mxGeometry>
    </mxCell><mxCell id="8d6022acc11cd8ae8df713477c96b85d-trgt" value="igabitEthernet0/1" style="labelBackgroundColor=#ffffff;;" vertex="1" connectable="0" parent="8d6022acc11cd8ae8df713477c96b85d">
      <mxGeometry x="0.5" relative="-1" as="geometry">
        <mxPoint as="offset" />
      </mxGeometry>
    </mxCell><object id="8d6022acc11cd8ae8df713477c96b85d" label="DF" src_label="GigabitEthernet0/2" trgt_label="igabitEthernet0/1" source="63d6ed9f-1050-434d-88d0-3c91def531d0" target="96c24036-2bd9-4459-b504-3dc02e0ab6f2">
      <mxCell style="endArrow=none;" edge="1" parent="1" source="63d6ed9f-1050-434d-88d0-3c91def531d0" target="96c24036-2bd9-4459-b504-3dc02e0ab6f2">
          <mxGeometry relative="1" as="geometry" />
      </mxCell>
    </object><object id="dcb47f17-a31c-4a84-9567-fa1d83630adf" label="10.6.158.114 Catalhan_114.vdk.gov.tr Platform:ciscoWS-C2960+24TC-S,Capabilities:SwitchIGMP">
      <mxCell style="fillColor=#00FF17;fontStyle=1;whiteSpace=wrap;" vertex="1" parent="1">
          <mxGeometry x="4000.0" y="7500.0" width="200" height="100" as="geometry" />
      </mxCell>
    </object><mxCell id="75ea0597565b1bc8fdc608eff2855dbf-src" value="GigabitEthernet0/2" style="labelBackgroundColor=#ffffff;;" vertex="1" connectable="0" parent="75ea0597565b1bc8fdc608eff2855dbf">
      <mxGeometry x="-0.5" relative="1" as="geometry">
        <mxPoint as="offset" />
      </mxGeometry>
    </mxCell><mxCell id="75ea0597565b1bc8fdc608eff2855dbf-trgt" value="igabitEthernet0/1" style="labelBackgroundColor=#ffffff;;" vertex="1" connectable="0" parent="75ea0597565b1bc8fdc608eff2855dbf">
      <mxGeometry x="0.5" relative="-1" as="geometry">
        <mxPoint as="offset" />
      </mxGeometry>
    </mxCell><object id="75ea0597565b1bc8fdc608eff2855dbf" label="DF" src_label="GigabitEthernet0/2" trgt_label="igabitEthernet0/1" source="96c24036-2bd9-4459-b504-3dc02e0ab6f2" target="dcb47f17-a31c-4a84-9567-fa1d83630adf">
      <mxCell style="endArrow=none;" edge="1" parent="1" source="96c24036-2bd9-4459-b504-3dc02e0ab6f2" target="dcb47f17-a31c-4a84-9567-fa1d83630adf">
          <mxGeometry relative="1" as="geometry" />
      </mxCell>
    </object><object id="55fbe892-ef09-44e7-9c19-d42389d4f38c" label="10.6.158.124 Catalhan_124.vdk.gov.tr Platform:ciscoWS-C2960+24TC-S,Capabilities:SwitchIGMP">
      <mxCell style="fillColor=#00FF17;fontStyle=1;whiteSpace=wrap;" vertex="1" parent="1">
          <mxGeometry x="4000.0" y="9000.0" width="200" height="100" as="geometry" />
      </mxCell>
    </object><mxCell id="d88ce2c6b304206e0caf38f13ef4ccd3-src" value="GigabitEthernet0/2" style="labelBackgroundColor=#ffffff;;" vertex="1" connectable="0" parent="d88ce2c6b304206e0caf38f13ef4ccd3">
      <mxGeometry x="-0.5" relative="1" as="geometry">
        <mxPoint as="offset" />
      </mxGeometry>
    </mxCell><mxCell id="d88ce2c6b304206e0caf38f13ef4ccd3-trgt" value="igabitEthernet0/1" style="labelBackgroundColor=#ffffff;;" vertex="1" connectable="0" parent="d88ce2c6b304206e0caf38f13ef4ccd3">
      <mxGeometry x="0.5" relative="-1" as="geometry">
        <mxPoint as="offset" />
      </mxGeometry>
    </mxCell><object id="d88ce2c6b304206e0caf38f13ef4ccd3" label="DF" src_label="GigabitEthernet0/2" trgt_label="igabitEthernet0/1" source="dcb47f17-a31c-4a84-9567-fa1d83630adf" target="55fbe892-ef09-44e7-9c19-d42389d4f38c">
      <mxCell style="endArrow=none;" edge="1" parent="1" source="dcb47f17-a31c-4a84-9567-fa1d83630adf" target="55fbe892-ef09-44e7-9c19-d42389d4f38c">
          <mxGeometry relative="1" as="geometry" />
      </mxCell>
    </object><object id="a08b1082-f308-44ae-a710-6b0c1c6b8060" label="10.6.158.132 Catalhan_132.vdk.gov.tr Platform:ciscoWS-C2960+24TC-S,Capabilities:SwitchIGMP">
      <mxCell style="fillColor=#00FF17;fontStyle=1;whiteSpace=wrap;" vertex="1" parent="1">
          <mxGeometry x="4500.0" y="3000.0" width="200" height="100" as="geometry" />
      </mxCell>
    </object><mxCell id="5a7a2c767c586e61fc65af92aa2e9cb9-src" value="FastEthernet0/5" style="labelBackgroundColor=#ffffff;;" vertex="1" connectable="0" parent="5a7a2c767c586e61fc65af92aa2e9cb9">
      <mxGeometry x="-0.5" relative="1" as="geometry">
        <mxPoint as="offset" />
      </mxGeometry>
    </mxCell><mxCell id="5a7a2c767c586e61fc65af92aa2e9cb9-trgt" value="igabitEthernet0/2" style="labelBackgroundColor=#ffffff;;" vertex="1" connectable="0" parent="5a7a2c767c586e61fc65af92aa2e9cb9">
      <mxGeometry x="0.5" relative="-1" as="geometry">
        <mxPoint as="offset" />
      </mxGeometry>
    </mxCell><object id="5a7a2c767c586e61fc65af92aa2e9cb9" label="DF" src_label="FastEthernet0/5" trgt_label="igabitEthernet0/2" source="8e31e6d5-9877-4358-9043-603c1b59ee54" target="a08b1082-f308-44ae-a710-6b0c1c6b8060">
      <mxCell style="endArrow=none;" edge="1" parent="1" source="8e31e6d5-9877-4358-9043-603c1b59ee54" target="a08b1082-f308-44ae-a710-6b0c1c6b8060">
          <mxGeometry relative="1" as="geometry" />
      </mxCell>
    </object><object id="83075bdd-a942-4041-a8d6-08642c5a5444" label="10.6.158.133 Catalhan_133.vdk.gov.tr Platform:ciscoWS-C2960+24TC-S,Capabilities:SwitchIGMP">
      <mxCell style="fillColor=#00FF17;fontStyle=1;whiteSpace=wrap;" vertex="1" parent="1">
          <mxGeometry x="4500.0" y="4500.0" width="200" height="100" as="geometry" />
      </mxCell>
    </object><mxCell id="642695eb71d62d3ee4c1d55fcf35c517-src" value="GigabitEthernet0/1" style="labelBackgroundColor=#ffffff;;" vertex="1" connectable="0" parent="642695eb71d62d3ee4c1d55fcf35c517">
      <mxGeometry x="-0.5" relative="1" as="geometry">
        <mxPoint as="offset" />
      </mxGeometry>
    </mxCell><mxCell id="642695eb71d62d3ee4c1d55fcf35c517-trgt" value="igabitEthernet0/2" style="labelBackgroundColor=#ffffff;;" vertex="1" connectable="0" parent="642695eb71d62d3ee4c1d55fcf35c517">
      <mxGeometry x="0.5" relative="-1" as="geometry">
        <mxPoint as="offset" />
      </mxGeometry>
    </mxCell><object id="642695eb71d62d3ee4c1d55fcf35c517" label="DF" src_label="GigabitEthernet0/1" trgt_label="igabitEthernet0/2" source="a08b1082-f308-44ae-a710-6b0c1c6b8060" target="83075bdd-a942-4041-a8d6-08642c5a5444">
      <mxCell style="endArrow=none;" edge="1" parent="1" source="a08b1082-f308-44ae-a710-6b0c1c6b8060" target="83075bdd-a942-4041-a8d6-08642c5a5444">
          <mxGeometry relative="1" as="geometry" />
      </mxCell>
    </object><object id="98a8c9ed-5648-4070-82a1-be81fc4a49a4" label="10.6.158.134 Catalhan_134.vdk.gov.tr Platform:ciscoWS-C2960+24TC-S,Capabilities:SwitchIGMP">
      <mxCell style="fillColor=#00FF17;fontStyle=1;whiteSpace=wrap;" vertex="1" parent="1">
          <mxGeometry x="4500.0" y="6000.0" width="200" height="100" as="geometry" />
      </mxCell>
    </object><mxCell id="ed64088590fc95f77cf4b3a279d0625e-src" value="GigabitEthernet0/1" style="labelBackgroundColor=#ffffff;;" vertex="1" connectable="0" parent="ed64088590fc95f77cf4b3a279d0625e">
      <mxGeometry x="-0.5" relative="1" as="geometry">
        <mxPoint as="offset" />
      </mxGeometry>
    </mxCell><mxCell id="ed64088590fc95f77cf4b3a279d0625e-trgt" value="igabitEthernet0/2" style="labelBackgroundColor=#ffffff;;" vertex="1" connectable="0" parent="ed64088590fc95f77cf4b3a279d0625e">
      <mxGeometry x="0.5" relative="-1" as="geometry">
        <mxPoint as="offset" />
      </mxGeometry>
    </mxCell><object id="ed64088590fc95f77cf4b3a279d0625e" label="DF" src_label="GigabitEthernet0/1" trgt_label="igabitEthernet0/2" source="83075bdd-a942-4041-a8d6-08642c5a5444" target="98a8c9ed-5648-4070-82a1-be81fc4a49a4">
      <mxCell style="endArrow=none;" edge="1" parent="1" source="83075bdd-a942-4041-a8d6-08642c5a5444" target="98a8c9ed-5648-4070-82a1-be81fc4a49a4">
          <mxGeometry relative="1" as="geometry" />
      </mxCell>
    </object><object id="08a5c8da-4135-4e17-9257-dcac0a4a940c" label="10.6.158.14 Catalhan_14.vdk.gov.tr Platform:ciscoWS-C2960+24TC-S,Capabilities:Switch">
      <mxCell style="fillColor=#00FF17;fontStyle=1;whiteSpace=wrap;" vertex="1" parent="1">
          <mxGeometry x="3500.0" y="1500.0" width="200" height="100" as="geometry" />
      </mxCell>
    </object><mxCell id="491715312fb9e03fadb41d95d25f6963-src" value="GigabitEthernet1/0/3" style="labelBackgroundColor=#ffffff;;" vertex="1" connectable="0" parent="491715312fb9e03fadb41d95d25f6963">
      <mxGeometry x="-0.5" relative="1" as="geometry">
        <mxPoint as="offset" />
      </mxGeometry>
    </mxCell><mxCell id="491715312fb9e03fadb41d95d25f6963-trgt" value="igabitEthernet0/1" style="labelBackgroundColor=#ffffff;;" vertex="1" connectable="0" parent="491715312fb9e03fadb41d95d25f6963">
      <mxGeometry x="0.5" relative="-1" as="geometry">
        <mxPoint as="offset" />
      </mxGeometry>
    </mxCell><object id="491715312fb9e03fadb41d95d25f6963" label="DF" src_label="GigabitEthernet1/0/3" trgt_label="igabitEthernet0/1" source="29d6ac13-1110-41bf-8c97-3b9a2e68ff37" target="08a5c8da-4135-4e17-9257-dcac0a4a940c">
      <mxCell style="endArrow=none;" edge="1" parent="1" source="29d6ac13-1110-41bf-8c97-3b9a2e68ff37" target="08a5c8da-4135-4e17-9257-dcac0a4a940c">
          <mxGeometry relative="1" as="geometry" />
      </mxCell>
    </object><object id="479981da-267a-473b-96df-744edcb15069" label="10.6.158.36 Catalhan_36.vdk.gov.tr Platform:ciscoWS-C2960+24TC-S,Capabilities:Switch">
      <mxCell style="fillColor=#00FF17;fontStyle=1;whiteSpace=wrap;" vertex="1" parent="1">
          <mxGeometry x="4000.0" y="1500.0" width="200" height="100" as="geometry" />
      </mxCell>
    </object><mxCell id="bea15e508d5d9f741a1f5b5d53f23428-src" value="GigabitEthernet1/0/21" style="labelBackgroundColor=#ffffff;;" vertex="1" connectable="0" parent="bea15e508d5d9f741a1f5b5d53f23428">
      <mxGeometry x="-0.5" relative="1" as="geometry">
        <mxPoint as="offset" />
      </mxGeometry>
    </mxCell><mxCell id="bea15e508d5d9f741a1f5b5d53f23428-trgt" value="igabitEthernet0/1" style="labelBackgroundColor=#ffffff;;" vertex="1" connectable="0" parent="bea15e508d5d9f741a1f5b5d53f23428">
      <mxGeometry x="0.5" relative="-1" as="geometry">
        <mxPoint as="offset" />
      </mxGeometry>
    </mxCell><object id="bea15e508d5d9f741a1f5b5d53f23428" label="DF" src_label="GigabitEthernet1/0/21" trgt_label="igabitEthernet0/1" source="29d6ac13-1110-41bf-8c97-3b9a2e68ff37" target="479981da-267a-473b-96df-744edcb15069">
      <mxCell style="endArrow=none;" edge="1" parent="1" source="29d6ac13-1110-41bf-8c97-3b9a2e68ff37" target="479981da-267a-473b-96df-744edcb15069">
          <mxGeometry relative="1" as="geometry" />
      </mxCell>
    </object><object id="6b927dec-170e-43c3-bb6b-f2e0d66f1984" label="10.6.158.17 Catalhan_17.vdk.gov.tr Platform:ciscoWS-C2960+24TC-S,Capabilities:Switch">
      <mxCell style="fillColor=#00FF17;fontStyle=1;whiteSpace=wrap;" vertex="1" parent="1">
          <mxGeometry x="4500.0" y="1500.0" width="200" height="100" as="geometry" />
      </mxCell>
    </object><mxCell id="5120a9940cff2ea01d61ec66acbce7ed-src" value="GigabitEthernet1/0/7" style="labelBackgroundColor=#ffffff;;" vertex="1" connectable="0" parent="5120a9940cff2ea01d61ec66acbce7ed">
      <mxGeometry x="-0.5" relative="1" as="geometry">
        <mxPoint as="offset" />
      </mxGeometry>
    </mxCell><mxCell id="5120a9940cff2ea01d61ec66acbce7ed-trgt" value="igabitEthernet0/1" style="labelBackgroundColor=#ffffff;;" vertex="1" connectable="0" parent="5120a9940cff2ea01d61ec66acbce7ed">
      <mxGeometry x="0.5" relative="-1" as="geometry">
        <mxPoint as="offset" />
      </mxGeometry>
    </mxCell><object id="5120a9940cff2ea01d61ec66acbce7ed" label="DF" src_label="GigabitEthernet1/0/7" trgt_label="igabitEthernet0/1" source="29d6ac13-1110-41bf-8c97-3b9a2e68ff37" target="6b927dec-170e-43c3-bb6b-f2e0d66f1984">
      <mxCell style="endArrow=none;" edge="1" parent="1" source="29d6ac13-1110-41bf-8c97-3b9a2e68ff37" target="6b927dec-170e-43c3-bb6b-f2e0d66f1984">
          <mxGeometry relative="1" as="geometry" />
      </mxCell>
    </object><object id="c012a1c7-14ef-4442-afb6-048b4c3316c1" label="10.6.158.35 Catalhan_35.vdk.gov.tr Platform:ciscoWS-C2960+24TC-S,Capabilities:Switch">
      <mxCell style="fillColor=#00FF17;fontStyle=1;whiteSpace=wrap;" vertex="1" parent="1">
          <mxGeometry x="5000.0" y="1500.0" width="200" height="100" as="geometry" />
      </mxCell>
    </object><mxCell id="7489df92481d295ebf641af5ac5044a5-src" value="GigabitEthernet1/0/26" style="labelBackgroundColor=#ffffff;;" vertex="1" connectable="0" parent="7489df92481d295ebf641af5ac5044a5">
      <mxGeometry x="-0.5" relative="1" as="geometry">
        <mxPoint as="offset" />
      </mxGeometry>
    </mxCell><mxCell id="7489df92481d295ebf641af5ac5044a5-trgt" value="igabitEthernet0/1" style="labelBackgroundColor=#ffffff;;" vertex="1" connectable="0" parent="7489df92481d295ebf641af5ac5044a5">
      <mxGeometry x="0.5" relative="-1" as="geometry">
        <mxPoint as="offset" />
      </mxGeometry>
    </mxCell><object id="7489df92481d295ebf641af5ac5044a5" label="DF" src_label="GigabitEthernet1/0/26" trgt_label="igabitEthernet0/1" source="29d6ac13-1110-41bf-8c97-3b9a2e68ff37" target="c012a1c7-14ef-4442-afb6-048b4c3316c1">
      <mxCell style="endArrow=none;" edge="1" parent="1" source="29d6ac13-1110-41bf-8c97-3b9a2e68ff37" target="c012a1c7-14ef-4442-afb6-048b4c3316c1">
          <mxGeometry relative="1" as="geometry" />
      </mxCell>
    </object><object id="9d90f997-d919-4088-8a11-71c3abb96ed4" label="10.6.158.16 Catalhan_16.vdk.gov.tr Platform:ciscoWS-C2960+24TC-S,Capabilities:Switch">
      <mxCell style="fillColor=#00FF17;fontStyle=1;whiteSpace=wrap;" vertex="1" parent="1">
          <mxGeometry x="5500.0" y="1500.0" width="200" height="100" as="geometry" />
      </mxCell>
    </object><mxCell id="d347ce747e158e55b6f3b1d61dab1e0f-src" value="GigabitEthernet1/0/8" style="labelBackgroundColor=#ffffff;;" vertex="1" connectable="0" parent="d347ce747e158e55b6f3b1d61dab1e0f">
      <mxGeometry x="-0.5" relative="1" as="geometry">
        <mxPoint as="offset" />
      </mxGeometry>
    </mxCell><mxCell id="d347ce747e158e55b6f3b1d61dab1e0f-trgt" value="igabitEthernet0/1" style="labelBackgroundColor=#ffffff;;" vertex="1" connectable="0" parent="d347ce747e158e55b6f3b1d61dab1e0f">
      <mxGeometry x="0.5" relative="-1" as="geometry">
        <mxPoint as="offset" />
      </mxGeometry>
    </mxCell><object id="d347ce747e158e55b6f3b1d61dab1e0f" label="DF" src_label="GigabitEthernet1/0/8" trgt_label="igabitEthernet0/1" source="29d6ac13-1110-41bf-8c97-3b9a2e68ff37" target="9d90f997-d919-4088-8a11-71c3abb96ed4">
      <mxCell style="endArrow=none;" edge="1" parent="1" source="29d6ac13-1110-41bf-8c97-3b9a2e68ff37" target="9d90f997-d919-4088-8a11-71c3abb96ed4">
          <mxGeometry relative="1" as="geometry" />
      </mxCell>
    </object><object id="fd1748b8-1e34-4092-92f7-a64cfc492f2c" label="10.6.158.34 Catalhan_34.vdk.gov.tr Platform:ciscoWS-C2960+24TC-S,Capabilities:Switch">
      <mxCell style="fillColor=#00FF17;fontStyle=1;whiteSpace=wrap;" vertex="1" parent="1">
          <mxGeometry x="6000.0" y="1500.0" width="200" height="100" as="geometry" />
      </mxCell>
    </object><mxCell id="c8442ee052b16ccb10284def18964c83-src" value="GigabitEthernet1/0/27" style="labelBackgroundColor=#ffffff;;" vertex="1" connectable="0" parent="c8442ee052b16ccb10284def18964c83">
      <mxGeometry x="-0.5" relative="1" as="geometry">
        <mxPoint as="offset" />
      </mxGeometry>
    </mxCell><mxCell id="c8442ee052b16ccb10284def18964c83-trgt" value="igabitEthernet0/1" style="labelBackgroundColor=#ffffff;;" vertex="1" connectable="0" parent="c8442ee052b16ccb10284def18964c83">
      <mxGeometry x="0.5" relative="-1" as="geometry">
        <mxPoint as="offset" />
      </mxGeometry>
    </mxCell><object id="c8442ee052b16ccb10284def18964c83" label="DF" src_label="GigabitEthernet1/0/27" trgt_label="igabitEthernet0/1" source="29d6ac13-1110-41bf-8c97-3b9a2e68ff37" target="fd1748b8-1e34-4092-92f7-a64cfc492f2c">
      <mxCell style="endArrow=none;" edge="1" parent="1" source="29d6ac13-1110-41bf-8c97-3b9a2e68ff37" target="fd1748b8-1e34-4092-92f7-a64cfc492f2c">
          <mxGeometry relative="1" as="geometry" />
      </mxCell>
    </object><object id="683912b6-3e93-4853-8c78-3d042e322db8" label="10.6.158.22 Catalhan_22.vdk.gov.tr Platform:ciscoWS-C2960+24TC-S,Capabilities:Switch">
      <mxCell style="fillColor=#00FF17;fontStyle=1;whiteSpace=wrap;" vertex="1" parent="1">
          <mxGeometry x="6500.0" y="1500.0" width="200" height="100" as="geometry" />
      </mxCell>
    </object><mxCell id="cb023725429c4f475d170ccadb3b25e4-src" value="GigabitEthernet1/0/10" style="labelBackgroundColor=#ffffff;;" vertex="1" connectable="0" parent="cb023725429c4f475d170ccadb3b25e4">
      <mxGeometry x="-0.5" relative="1" as="geometry">
        <mxPoint as="offset" />
      </mxGeometry>
    </mxCell><mxCell id="cb023725429c4f475d170ccadb3b25e4-trgt" value="igabitEthernet0/1" style="labelBackgroundColor=#ffffff;;" vertex="1" connectable="0" parent="cb023725429c4f475d170ccadb3b25e4">
      <mxGeometry x="0.5" relative="-1" as="geometry">
        <mxPoint as="offset" />
      </mxGeometry>
    </mxCell><object id="cb023725429c4f475d170ccadb3b25e4" label="DF" src_label="GigabitEthernet1/0/10" trgt_label="igabitEthernet0/1" source="29d6ac13-1110-41bf-8c97-3b9a2e68ff37" target="683912b6-3e93-4853-8c78-3d042e322db8">
      <mxCell style="endArrow=none;" edge="1" parent="1" source="29d6ac13-1110-41bf-8c97-3b9a2e68ff37" target="683912b6-3e93-4853-8c78-3d042e322db8">
          <mxGeometry relative="1" as="geometry" />
      </mxCell>
    </object><object id="6557d851-6a79-403b-bf13-86135e5d5d4f" label="10.6.158.33 Catalhan_33.vdk.gov.tr Platform:ciscoWS-C2960+24TC-S,Capabilities:Switch">
      <mxCell style="fillColor=#00FF17;fontStyle=1;whiteSpace=wrap;" vertex="1" parent="1">
          <mxGeometry x="7000.0" y="1500.0" width="200" height="100" as="geometry" />
      </mxCell>
    </object><mxCell id="82df2e1c16fea235098b9c3c92668c19-src" value="GigabitEthernet1/0/28" style="labelBackgroundColor=#ffffff;;" vertex="1" connectable="0" parent="82df2e1c16fea235098b9c3c92668c19">
      <mxGeometry x="-0.5" relative="1" as="geometry">
        <mxPoint as="offset" />
      </mxGeometry>
    </mxCell><mxCell id="82df2e1c16fea235098b9c3c92668c19-trgt" value="igabitEthernet0/1" style="labelBackgroundColor=#ffffff;;" vertex="1" connectable="0" parent="82df2e1c16fea235098b9c3c92668c19">
      <mxGeometry x="0.5" relative="-1" as="geometry">
        <mxPoint as="offset" />
      </mxGeometry>
    </mxCell><object id="82df2e1c16fea235098b9c3c92668c19" label="DF" src_label="GigabitEthernet1/0/28" trgt_label="igabitEthernet0/1" source="29d6ac13-1110-41bf-8c97-3b9a2e68ff37" target="6557d851-6a79-403b-bf13-86135e5d5d4f">
      <mxCell style="endArrow=none;" edge="1" parent="1" source="29d6ac13-1110-41bf-8c97-3b9a2e68ff37" target="6557d851-6a79-403b-bf13-86135e5d5d4f">
          <mxGeometry relative="1" as="geometry" />
      </mxCell>
    </object><object id="b15de0d9-46d6-4fb7-afb6-3678d6e335e7" label="10.6.158.55 Catalhan_55.vdk.gov.tr Platform:ciscoWS-C2960+24TC-S,Capabilities:SwitchIGMP">
      <mxCell style="fillColor=#00FF17;fontStyle=1;whiteSpace=wrap;" vertex="1" parent="1">
          <mxGeometry x="7500.0" y="1500.0" width="200" height="100" as="geometry" />
      </mxCell>
    </object><mxCell id="6c85dc9cb2ffa8973e2c46f61f39c1c1-src" value="GigabitEthernet1/0/30" style="labelBackgroundColor=#ffffff;;" vertex="1" connectable="0" parent="6c85dc9cb2ffa8973e2c46f61f39c1c1">
      <mxGeometry x="-0.5" relative="1" as="geometry">
        <mxPoint as="offset" />
      </mxGeometry>
    </mxCell><mxCell id="6c85dc9cb2ffa8973e2c46f61f39c1c1-trgt" value="igabitEthernet0/1" style="labelBackgroundColor=#ffffff;;" vertex="1" connectable="0" parent="6c85dc9cb2ffa8973e2c46f61f39c1c1">
      <mxGeometry x="0.5" relative="-1" as="geometry">
        <mxPoint as="offset" />
      </mxGeometry>
    </mxCell><object id="6c85dc9cb2ffa8973e2c46f61f39c1c1" label="DF" src_label="GigabitEthernet1/0/30" trgt_label="igabitEthernet0/1" source="29d6ac13-1110-41bf-8c97-3b9a2e68ff37" target="b15de0d9-46d6-4fb7-afb6-3678d6e335e7">
      <mxCell style="endArrow=none;" edge="1" parent="1" source="29d6ac13-1110-41bf-8c97-3b9a2e68ff37" target="b15de0d9-46d6-4fb7-afb6-3678d6e335e7">
          <mxGeometry relative="1" as="geometry" />
      </mxCell>
    </object><object id="0a8533ff-9d14-4364-a5c9-7ae8df87686c" label="10.6.158.56 Catalhan_56.vdk.gov.tr Platform:ciscoWS-C2960+24TC-S,Capabilities:SwitchIGMP">
      <mxCell style="fillColor=#00FF17;fontStyle=1;whiteSpace=wrap;" vertex="1" parent="1">
          <mxGeometry x="7500.0" y="3000.0" width="200" height="100" as="geometry" />
      </mxCell>
    </object><mxCell id="88f4ea456b657c96ab77fa360c8841d8-src" value="GigabitEthernet0/2" style="labelBackgroundColor=#ffffff;;" vertex="1" connectable="0" parent="88f4ea456b657c96ab77fa360c8841d8">
      <mxGeometry x="-0.5" relative="1" as="geometry">
        <mxPoint as="offset" />
      </mxGeometry>
    </mxCell><mxCell id="88f4ea456b657c96ab77fa360c8841d8-trgt" value="igabitEthernet0/2" style="labelBackgroundColor=#ffffff;;" vertex="1" connectable="0" parent="88f4ea456b657c96ab77fa360c8841d8">
      <mxGeometry x="0.5" relative="-1" as="geometry">
        <mxPoint as="offset" />
      </mxGeometry>
    </mxCell><object id="88f4ea456b657c96ab77fa360c8841d8" label="DF" src_label="GigabitEthernet0/2" trgt_label="igabitEthernet0/2" source="b15de0d9-46d6-4fb7-afb6-3678d6e335e7" target="0a8533ff-9d14-4364-a5c9-7ae8df87686c">
      <mxCell style="endArrow=none;" edge="1" parent="1" source="b15de0d9-46d6-4fb7-afb6-3678d6e335e7" target="0a8533ff-9d14-4364-a5c9-7ae8df87686c">
          <mxGeometry relative="1" as="geometry" />
      </mxCell>
    </object><object id="a85d221e-1410-4c9b-ba11-2053b56d7d80" label="10.6.158.32 Catalhan_32.vdk.gov.tr Platform:ciscoWS-C2960+24TC-S,Capabilities:Switch">
      <mxCell style="fillColor=#00FF17;fontStyle=1;whiteSpace=wrap;" vertex="1" parent="1">
          <mxGeometry x="8000.0" y="1500.0" width="200" height="100" as="geometry" />
      </mxCell>
    </object><mxCell id="ababfe8baab118487d4fd2721dd0f8fe-src" value="GigabitEthernet1/0/23" style="labelBackgroundColor=#ffffff;;" vertex="1" connectable="0" parent="ababfe8baab118487d4fd2721dd0f8fe">
      <mxGeometry x="-0.5" relative="1" as="geometry">
        <mxPoint as="offset" />
      </mxGeometry>
    </mxCell><mxCell id="ababfe8baab118487d4fd2721dd0f8fe-trgt" value="igabitEthernet0/1" style="labelBackgroundColor=#ffffff;;" vertex="1" connectable="0" parent="ababfe8baab118487d4fd2721dd0f8fe">
      <mxGeometry x="0.5" relative="-1" as="geometry">
        <mxPoint as="offset" />
      </mxGeometry>
    </mxCell><object id="ababfe8baab118487d4fd2721dd0f8fe" label="DF" src_label="GigabitEthernet1/0/23" trgt_label="igabitEthernet0/1" source="29d6ac13-1110-41bf-8c97-3b9a2e68ff37" target="a85d221e-1410-4c9b-ba11-2053b56d7d80">
      <mxCell style="endArrow=none;" edge="1" parent="1" source="29d6ac13-1110-41bf-8c97-3b9a2e68ff37" target="a85d221e-1410-4c9b-ba11-2053b56d7d80">
          <mxGeometry relative="1" as="geometry" />
      </mxCell>
    </object><object id="abd5195c-ab3b-4592-a0ff-0158cd598344" label="10.6.158.54 Catalhan_54.vdk.gov.tr Platform:ciscoWS-C2960+24TC-S,Capabilities:SwitchIGMP">
      <mxCell style="fillColor=#00FF17;fontStyle=1;whiteSpace=wrap;" vertex="1" parent="1">
          <mxGeometry x="8500.0" y="1500.0" width="200" height="100" as="geometry" />
      </mxCell>
    </object><mxCell id="47fbaf1869aeae7c92f211ba6bf3dadd-src" value="GigabitEthernet1/0/4" style="labelBackgroundColor=#ffffff;;" vertex="1" connectable="0" parent="47fbaf1869aeae7c92f211ba6bf3dadd">
      <mxGeometry x="-0.5" relative="1" as="geometry">
        <mxPoint as="offset" />
      </mxGeometry>
    </mxCell><mxCell id="47fbaf1869aeae7c92f211ba6bf3dadd-trgt" value="igabitEthernet0/2" style="labelBackgroundColor=#ffffff;;" vertex="1" connectable="0" parent="47fbaf1869aeae7c92f211ba6bf3dadd">
      <mxGeometry x="0.5" relative="-1" as="geometry">
        <mxPoint as="offset" />
      </mxGeometry>
    </mxCell><object id="47fbaf1869aeae7c92f211ba6bf3dadd" label="DF" src_label="GigabitEthernet1/0/4" trgt_label="igabitEthernet0/2" source="29d6ac13-1110-41bf-8c97-3b9a2e68ff37" target="abd5195c-ab3b-4592-a0ff-0158cd598344">
      <mxCell style="endArrow=none;" edge="1" parent="1" source="29d6ac13-1110-41bf-8c97-3b9a2e68ff37" target="abd5195c-ab3b-4592-a0ff-0158cd598344">
          <mxGeometry relative="1" as="geometry" />
      </mxCell>
    </object><object id="12ff0caa-d6b9-40ae-ac2a-e1e1f49a0c4e" label="10.6.158.53 Catalhan_53.vdk.gov.tr Platform:ciscoWS-C2960+24TC-S,Capabilities:SwitchIGMP">
      <mxCell style="fillColor=#00FF17;fontStyle=1;whiteSpace=wrap;" vertex="1" parent="1">
          <mxGeometry x="8500.0" y="3000.0" width="200" height="100" as="geometry" />
      </mxCell>
    </object><mxCell id="3bd61518a459022c37764e8172a36956-src" value="GigabitEthernet0/1" style="labelBackgroundColor=#ffffff;;" vertex="1" connectable="0" parent="3bd61518a459022c37764e8172a36956">
      <mxGeometry x="-0.5" relative="1" as="geometry">
        <mxPoint as="offset" />
      </mxGeometry>
    </mxCell><mxCell id="3bd61518a459022c37764e8172a36956-trgt" value="igabitEthernet0/2" style="labelBackgroundColor=#ffffff;;" vertex="1" connectable="0" parent="3bd61518a459022c37764e8172a36956">
      <mxGeometry x="0.5" relative="-1" as="geometry">
        <mxPoint as="offset" />
      </mxGeometry>
    </mxCell><object id="3bd61518a459022c37764e8172a36956" label="DF" src_label="GigabitEthernet0/1" trgt_label="igabitEthernet0/2" source="abd5195c-ab3b-4592-a0ff-0158cd598344" target="12ff0caa-d6b9-40ae-ac2a-e1e1f49a0c4e">
      <mxCell style="endArrow=none;" edge="1" parent="1" source="abd5195c-ab3b-4592-a0ff-0158cd598344" target="12ff0caa-d6b9-40ae-ac2a-e1e1f49a0c4e">
          <mxGeometry relative="1" as="geometry" />
      </mxCell>
    </object><object id="2cc61372-05aa-4602-a44f-26c091462af1" label="10.6.158.20 Catalhan_20.vdk.gov.tr Platform:ciscoWS-C2960+24TC-S,Capabilities:Switch">
      <mxCell style="fillColor=#00FF17;fontStyle=1;whiteSpace=wrap;" vertex="1" parent="1">
          <mxGeometry x="9000.0" y="1500.0" width="200" height="100" as="geometry" />
      </mxCell>
    </object><mxCell id="3e484c6064d400407dc51940d41ddfb0-src" value="GigabitEthernet1/0/9" style="labelBackgroundColor=#ffffff;;" vertex="1" connectable="0" parent="3e484c6064d400407dc51940d41ddfb0">
      <mxGeometry x="-0.5" relative="1" as="geometry">
        <mxPoint as="offset" />
      </mxGeometry>
    </mxCell><mxCell id="3e484c6064d400407dc51940d41ddfb0-trgt" value="igabitEthernet0/1" style="labelBackgroundColor=#ffffff;;" vertex="1" connectable="0" parent="3e484c6064d400407dc51940d41ddfb0">
      <mxGeometry x="0.5" relative="-1" as="geometry">
        <mxPoint as="offset" />
      </mxGeometry>
    </mxCell><object id="3e484c6064d400407dc51940d41ddfb0" label="DF" src_label="GigabitEthernet1/0/9" trgt_label="igabitEthernet0/1" source="29d6ac13-1110-41bf-8c97-3b9a2e68ff37" target="2cc61372-05aa-4602-a44f-26c091462af1">
      <mxCell style="endArrow=none;" edge="1" parent="1" source="29d6ac13-1110-41bf-8c97-3b9a2e68ff37" target="2cc61372-05aa-4602-a44f-26c091462af1">
          <mxGeometry relative="1" as="geometry" />
      </mxCell>
    </object><object id="c8ac8691-e08d-4e45-9df9-c63ea58864db" label="10.6.158.31 Catalhan_31.vdk.gov.tr Platform:ciscoWS-C2960+24TC-S,Capabilities:Switch">
      <mxCell style="fillColor=#00FF17;fontStyle=1;whiteSpace=wrap;" vertex="1" parent="1">
          <mxGeometry x="9500.0" y="1500.0" width="200" height="100" as="geometry" />
      </mxCell>
    </object><mxCell id="91d4ed75eb7911a3ddc358d5112fb249-src" value="GigabitEthernet1/0/25" style="labelBackgroundColor=#ffffff;;" vertex="1" connectable="0" parent="91d4ed75eb7911a3ddc358d5112fb249">
      <mxGeometry x="-0.5" relative="1" as="geometry">
        <mxPoint as="offset" />
      </mxGeometry>
    </mxCell><mxCell id="91d4ed75eb7911a3ddc358d5112fb249-trgt" value="igabitEthernet0/1" style="labelBackgroundColor=#ffffff;;" vertex="1" connectable="0" parent="91d4ed75eb7911a3ddc358d5112fb249">
      <mxGeometry x="0.5" relative="-1" as="geometry">
        <mxPoint as="offset" />
      </mxGeometry>
    </mxCell><object id="91d4ed75eb7911a3ddc358d5112fb249" label="DF" src_label="GigabitEthernet1/0/25" trgt_label="igabitEthernet0/1" source="29d6ac13-1110-41bf-8c97-3b9a2e68ff37" target="c8ac8691-e08d-4e45-9df9-c63ea58864db">
      <mxCell style="endArrow=none;" edge="1" parent="1" source="29d6ac13-1110-41bf-8c97-3b9a2e68ff37" target="c8ac8691-e08d-4e45-9df9-c63ea58864db">
          <mxGeometry relative="1" as="geometry" />
      </mxCell>
    </object><object id="320a678e-bb60-4614-b362-c5f9c3254f7c" label="10.6.158.57 Catalhan_57.vdk.gov.tr Platform:ciscoWS-C2960+24TC-S,Capabilities:Switch">
      <mxCell style="fillColor=#00FF17;fontStyle=1;whiteSpace=wrap;" vertex="1" parent="1">
          <mxGeometry x="10000.0" y="1500.0" width="200" height="100" as="geometry" />
      </mxCell>
    </object><mxCell id="ad69ff890a77f9bff968d4308af9d4b6-src" value="GigabitEthernet1/0/47" style="labelBackgroundColor=#ffffff;;" vertex="1" connectable="0" parent="ad69ff890a77f9bff968d4308af9d4b6">
      <mxGeometry x="-0.5" relative="1" as="geometry">
        <mxPoint as="offset" />
      </mxGeometry>
    </mxCell><mxCell id="ad69ff890a77f9bff968d4308af9d4b6-trgt" value="igabitEthernet0/1" style="labelBackgroundColor=#ffffff;;" vertex="1" connectable="0" parent="ad69ff890a77f9bff968d4308af9d4b6">
      <mxGeometry x="0.5" relative="-1" as="geometry">
        <mxPoint as="offset" />
      </mxGeometry>
    </mxCell><object id="ad69ff890a77f9bff968d4308af9d4b6" label="DF" src_label="GigabitEthernet1/0/47" trgt_label="igabitEthernet0/1" source="29d6ac13-1110-41bf-8c97-3b9a2e68ff37" target="320a678e-bb60-4614-b362-c5f9c3254f7c">
      <mxCell style="endArrow=none;" edge="1" parent="1" source="29d6ac13-1110-41bf-8c97-3b9a2e68ff37" target="320a678e-bb60-4614-b362-c5f9c3254f7c">
          <mxGeometry relative="1" as="geometry" />
      </mxCell>
    </object><object id="20660436-3a40-42ff-bf26-06b292177004" label="10.6.158.58 Catalhan_58.vdk.gov.tr Platform:ciscoWS-C2960+24TC-S,Capabilities:Switch">
      <mxCell style="fillColor=#00FF17;fontStyle=1;whiteSpace=wrap;" vertex="1" parent="1">
          <mxGeometry x="10000.0" y="3000.0" width="200" height="100" as="geometry" />
      </mxCell>
    </object><mxCell id="bc075e605608ceda6fe6311268ace378-src" value="GigabitEthernet0/2" style="labelBackgroundColor=#ffffff;;" vertex="1" connectable="0" parent="bc075e605608ceda6fe6311268ace378">
      <mxGeometry x="-0.5" relative="1" as="geometry">
        <mxPoint as="offset" />
      </mxGeometry>
    </mxCell><mxCell id="bc075e605608ceda6fe6311268ace378-trgt" value="igabitEthernet0/1" style="labelBackgroundColor=#ffffff;;" vertex="1" connectable="0" parent="bc075e605608ceda6fe6311268ace378">
      <mxGeometry x="0.5" relative="-1" as="geometry">
        <mxPoint as="offset" />
      </mxGeometry>
    </mxCell><object id="bc075e605608ceda6fe6311268ace378" label="DF" src_label="GigabitEthernet0/2" trgt_label="igabitEthernet0/1" source="320a678e-bb60-4614-b362-c5f9c3254f7c" target="20660436-3a40-42ff-bf26-06b292177004">
      <mxCell style="endArrow=none;" edge="1" parent="1" source="320a678e-bb60-4614-b362-c5f9c3254f7c" target="20660436-3a40-42ff-bf26-06b292177004">
          <mxGeometry relative="1" as="geometry" />
      </mxCell>
    </object><object id="ba2862af-3ced-4c4a-8c16-701742533c5c" label="10.6.158.99 Catalhan_99.vdk.gov.tr Platform:ciscoWS-C2960+24TC-S,Capabilities:SwitchIGMP">
      <mxCell style="fillColor=#00FF17;fontStyle=1;whiteSpace=wrap;" vertex="1" parent="1">
          <mxGeometry x="10000.0" y="4500.0" width="200" height="100" as="geometry" />
      </mxCell>
    </object><mxCell id="000ebb452f1ede78eaa50c9e43ce796b-src" value="GigabitEthernet0/2" style="labelBackgroundColor=#ffffff;;" vertex="1" connectable="0" parent="000ebb452f1ede78eaa50c9e43ce796b">
      <mxGeometry x="-0.5" relative="1" as="geometry">
        <mxPoint as="offset" />
      </mxGeometry>
    </mxCell><mxCell id="000ebb452f1ede78eaa50c9e43ce796b-trgt" value="igabitEthernet0/1" style="labelBackgroundColor=#ffffff;;" vertex="1" connectable="0" parent="000ebb452f1ede78eaa50c9e43ce796b">
      <mxGeometry x="0.5" relative="-1" as="geometry">
        <mxPoint as="offset" />
      </mxGeometry>
    </mxCell><object id="000ebb452f1ede78eaa50c9e43ce796b" label="DF" src_label="GigabitEthernet0/2" trgt_label="igabitEthernet0/1" source="20660436-3a40-42ff-bf26-06b292177004" target="ba2862af-3ced-4c4a-8c16-701742533c5c">
      <mxCell style="endArrow=none;" edge="1" parent="1" source="20660436-3a40-42ff-bf26-06b292177004" target="ba2862af-3ced-4c4a-8c16-701742533c5c">
          <mxGeometry relative="1" as="geometry" />
      </mxCell>
    </object><object id="517d6087-5433-44e9-bf28-42af373dfdb3" label="10.6.158.21 Catalhan_21.vdk.gov.tr Platform:ciscoWS-C2960+24TC-S,Capabilities:Switch">
      <mxCell style="fillColor=#00FF17;fontStyle=1;whiteSpace=wrap;" vertex="1" parent="1">
          <mxGeometry x="10500.0" y="1500.0" width="200" height="100" as="geometry" />
      </mxCell>
    </object><mxCell id="cd565296329939fb6688bf23a501d9fc-src" value="GigabitEthernet1/0/2" style="labelBackgroundColor=#ffffff;;" vertex="1" connectable="0" parent="cd565296329939fb6688bf23a501d9fc">
      <mxGeometry x="-0.5" relative="1" as="geometry">
        <mxPoint as="offset" />
      </mxGeometry>
    </mxCell><mxCell id="cd565296329939fb6688bf23a501d9fc-trgt" value="igabitEthernet0/1" style="labelBackgroundColor=#ffffff;;" vertex="1" connectable="0" parent="cd565296329939fb6688bf23a501d9fc">
      <mxGeometry x="0.5" relative="-1" as="geometry">
        <mxPoint as="offset" />
      </mxGeometry>
    </mxCell><object id="cd565296329939fb6688bf23a501d9fc" label="DF" src_label="GigabitEthernet1/0/2" trgt_label="igabitEthernet0/1" source="29d6ac13-1110-41bf-8c97-3b9a2e68ff37" target="517d6087-5433-44e9-bf28-42af373dfdb3">
      <mxCell style="endArrow=none;" edge="1" parent="1" source="29d6ac13-1110-41bf-8c97-3b9a2e68ff37" target="517d6087-5433-44e9-bf28-42af373dfdb3">
          <mxGeometry relative="1" as="geometry" />
      </mxCell>
    </object><object id="36faf136-462a-4256-9099-6c82d5e67b5a" label="10.6.158.30 Catalhan_30.vdk.gov.tr Platform:ciscoWS-C2960+24TC-S,Capabilities:Switch">
      <mxCell style="fillColor=#00FF17;fontStyle=1;whiteSpace=wrap;" vertex="1" parent="1">
          <mxGeometry x="11000.0" y="1500.0" width="200" height="100" as="geometry" />
      </mxCell>
    </object><mxCell id="8ded8b85153f01f6b1c7ebf629dd0c6e-src" value="GigabitEthernet1/0/24" style="labelBackgroundColor=#ffffff;;" vertex="1" connectable="0" parent="8ded8b85153f01f6b1c7ebf629dd0c6e">
      <mxGeometry x="-0.5" relative="1" as="geometry">
        <mxPoint as="offset" />
      </mxGeometry>
    </mxCell><mxCell id="8ded8b85153f01f6b1c7ebf629dd0c6e-trgt" value="igabitEthernet0/1" style="labelBackgroundColor=#ffffff;;" vertex="1" connectable="0" parent="8ded8b85153f01f6b1c7ebf629dd0c6e">
      <mxGeometry x="0.5" relative="-1" as="geometry">
        <mxPoint as="offset" />
      </mxGeometry>
    </mxCell><object id="8ded8b85153f01f6b1c7ebf629dd0c6e" label="DF" src_label="GigabitEthernet1/0/24" trgt_label="igabitEthernet0/1" source="29d6ac13-1110-41bf-8c97-3b9a2e68ff37" target="36faf136-462a-4256-9099-6c82d5e67b5a">
      <mxCell style="endArrow=none;" edge="1" parent="1" source="29d6ac13-1110-41bf-8c97-3b9a2e68ff37" target="36faf136-462a-4256-9099-6c82d5e67b5a">
          <mxGeometry relative="1" as="geometry" />
      </mxCell>
    </object><object id="e066a480-7c10-4453-9de2-294bc8b5cb14" label="10.6.158.135 A_Blok_Kat_6_AP_Top_Sw.vdk.gov.tr Platform:ciscoC9300L-48P-4X,Capabilities:SwitchIGMP">
      <mxCell style="fillColor=#00FF17;fontStyle=1;whiteSpace=wrap;" vertex="1" parent="1">
          <mxGeometry x="11500.0" y="1500.0" width="200" height="100" as="geometry" />
      </mxCell>
    </object><mxCell id="ff4ad8b2839d5c54f4924d24433b17d1-src" value="GigabitEthernet1/0/29" style="labelBackgroundColor=#ffffff;;" vertex="1" connectable="0" parent="ff4ad8b2839d5c54f4924d24433b17d1">
      <mxGeometry x="-0.5" relative="1" as="geometry">
        <mxPoint as="offset" />
      </mxGeometry>
    </mxCell><mxCell id="ff4ad8b2839d5c54f4924d24433b17d1-trgt" value="igabitEthernet1/0/48" style="labelBackgroundColor=#ffffff;;" vertex="1" connectable="0" parent="ff4ad8b2839d5c54f4924d24433b17d1">
      <mxGeometry x="0.5" relative="-1" as="geometry">
        <mxPoint as="offset" />
      </mxGeometry>
    </mxCell><object id="ff4ad8b2839d5c54f4924d24433b17d1" label="DF" src_label="GigabitEthernet1/0/29" trgt_label="igabitEthernet1/0/48" source="29d6ac13-1110-41bf-8c97-3b9a2e68ff37" target="e066a480-7c10-4453-9de2-294bc8b5cb14">
      <mxCell style="endArrow=none;" edge="1" parent="1" source="29d6ac13-1110-41bf-8c97-3b9a2e68ff37" target="e066a480-7c10-4453-9de2-294bc8b5cb14">
          <mxGeometry relative="1" as="geometry" />
      </mxCell>
    </object><object id="0337caa4-1488-40ca-8d6b-839f04bf626a" label="10.6.158.138 A_blok_Kat_1_AP_Top_Sw.vdk.gov.tr Platform:ciscoC9300L-48P-4X,Capabilities:SwitchIGMP">
      <mxCell style="fillColor=#00FF17;fontStyle=1;whiteSpace=wrap;" vertex="1" parent="1">
          <mxGeometry x="11500.0" y="3000.0" width="200" height="100" as="geometry" />
      </mxCell>
    </object><mxCell id="a81c85b07a3fde14faa541495cabdcb5-src" value="TenGigabitEthernet1/1/2" style="labelBackgroundColor=#ffffff;;" vertex="1" connectable="0" parent="a81c85b07a3fde14faa541495cabdcb5">
      <mxGeometry x="-0.5" relative="1" as="geometry">
        <mxPoint as="offset" />
      </mxGeometry>
    </mxCell><mxCell id="a81c85b07a3fde14faa541495cabdcb5-trgt" value="enGigabitEthernet1/1/1" style="labelBackgroundColor=#ffffff;;" vertex="1" connectable="0" parent="a81c85b07a3fde14faa541495cabdcb5">
      <mxGeometry x="0.5" relative="-1" as="geometry">
        <mxPoint as="offset" />
      </mxGeometry>
    </mxCell><object id="a81c85b07a3fde14faa541495cabdcb5" label="DF" src_label="TenGigabitEthernet1/1/2" trgt_label="enGigabitEthernet1/1/1" source="e066a480-7c10-4453-9de2-294bc8b5cb14" target="0337caa4-1488-40ca-8d6b-839f04bf626a">
      <mxCell style="endArrow=none;" edge="1" parent="1" source="e066a480-7c10-4453-9de2-294bc8b5cb14" target="0337caa4-1488-40ca-8d6b-839f04bf626a">
          <mxGeometry relative="1" as="geometry" />
      </mxCell>
    </object><object id="4e04e880-7efb-4514-8eda-f27ccc2bf2f5" label="10.6.158.129 Catalhan_129.vdk.gov.tr Platform:ciscoWS-C2960-24TC-S,Capabilities:SwitchIGMP">
      <mxCell style="fillColor=#00FF17;fontStyle=1;whiteSpace=wrap;" vertex="1" parent="1">
          <mxGeometry x="12000.0" y="1500.0" width="200" height="100" as="geometry" />
      </mxCell>
    </object><mxCell id="09e04392d0f4680449ebcdc84e01ef04-src" value="GigabitEthernet1/0/15" style="labelBackgroundColor=#ffffff;;" vertex="1" connectable="0" parent="09e04392d0f4680449ebcdc84e01ef04">
      <mxGeometry x="-0.5" relative="1" as="geometry">
        <mxPoint as="offset" />
      </mxGeometry>
    </mxCell><mxCell id="09e04392d0f4680449ebcdc84e01ef04-trgt" value="igabitEthernet0/1" style="labelBackgroundColor=#ffffff;;" vertex="1" connectable="0" parent="09e04392d0f4680449ebcdc84e01ef04">
      <mxGeometry x="0.5" relative="-1" as="geometry">
        <mxPoint as="offset" />
      </mxGeometry>
    </mxCell><object id="09e04392d0f4680449ebcdc84e01ef04" label="DF" src_label="GigabitEthernet1/0/15" trgt_label="igabitEthernet0/1" source="29d6ac13-1110-41bf-8c97-3b9a2e68ff37" target="4e04e880-7efb-4514-8eda-f27ccc2bf2f5">
      <mxCell style="endArrow=none;" edge="1" parent="1" source="29d6ac13-1110-41bf-8c97-3b9a2e68ff37" target="4e04e880-7efb-4514-8eda-f27ccc2bf2f5">
          <mxGeometry relative="1" as="geometry" />
      </mxCell>
    </object><object id="d88ad414-92ff-4b34-b6a7-4a22f397dd57" label="10.6.158.131 Catalhan_131.vdk.gov.tr Platform:ciscoWS-C2960+24TC-S,Capabilities:SwitchIGMP">
      <mxCell style="fillColor=#00FF17;fontStyle=1;whiteSpace=wrap;" vertex="1" parent="1">
          <mxGeometry x="12000.0" y="3000.0" width="200" height="100" as="geometry" />
      </mxCell>
    </object><mxCell id="9ffe39a74df4f4e5864768a841d6ed68-src" value="GigabitEthernet0/2" style="labelBackgroundColor=#ffffff;;" vertex="1" connectable="0" parent="9ffe39a74df4f4e5864768a841d6ed68">
      <mxGeometry x="-0.5" relative="1" as="geometry">
        <mxPoint as="offset" />
      </mxGeometry>
    </mxCell><mxCell id="9ffe39a74df4f4e5864768a841d6ed68-trgt" value="igabitEthernet0/1" style="labelBackgroundColor=#ffffff;;" vertex="1" connectable="0" parent="9ffe39a74df4f4e5864768a841d6ed68">
      <mxGeometry x="0.5" relative="-1" as="geometry">
        <mxPoint as="offset" />
      </mxGeometry>
    </mxCell><object id="9ffe39a74df4f4e5864768a841d6ed68" label="DF" src_label="GigabitEthernet0/2" trgt_label="igabitEthernet0/1" source="4e04e880-7efb-4514-8eda-f27ccc2bf2f5" target="d88ad414-92ff-4b34-b6a7-4a22f397dd57">
      <mxCell style="endArrow=none;" edge="1" parent="1" source="4e04e880-7efb-4514-8eda-f27ccc2bf2f5" target="d88ad414-92ff-4b34-b6a7-4a22f397dd57">
          <mxGeometry relative="1" as="geometry" />
      </mxCell>
    </object><object id="67d97b4e-0077-45ab-bb37-c983e996fa7f" label="10.6.158.5 Catalhan_5.vdk.gov.tr Platform:ciscoWS-C2960+24TC-S,Capabilities:Switch">
      <mxCell style="fillColor=#00FF17;fontStyle=1;whiteSpace=wrap;" vertex="1" parent="1">
          <mxGeometry x="12000.0" y="4500.0" width="200" height="100" as="geometry" />
      </mxCell>
    </object><mxCell id="7769671e72a26fbbc29ec25efd773a18-src" value="GigabitEthernet0/2" style="labelBackgroundColor=#ffffff;;" vertex="1" connectable="0" parent="7769671e72a26fbbc29ec25efd773a18">
      <mxGeometry x="-0.5" relative="1" as="geometry">
        <mxPoint as="offset" />
      </mxGeometry>
    </mxCell><mxCell id="7769671e72a26fbbc29ec25efd773a18-trgt" value="igabitEthernet0/1" style="labelBackgroundColor=#ffffff;;" vertex="1" connectable="0" parent="7769671e72a26fbbc29ec25efd773a18">
      <mxGeometry x="0.5" relative="-1" as="geometry">
        <mxPoint as="offset" />
      </mxGeometry>
    </mxCell><object id="7769671e72a26fbbc29ec25efd773a18" label="DF" src_label="GigabitEthernet0/2" trgt_label="igabitEthernet0/1" source="d88ad414-92ff-4b34-b6a7-4a22f397dd57" target="67d97b4e-0077-45ab-bb37-c983e996fa7f">
      <mxCell style="endArrow=none;" edge="1" parent="1" source="d88ad414-92ff-4b34-b6a7-4a22f397dd57" target="67d97b4e-0077-45ab-bb37-c983e996fa7f">
          <mxGeometry relative="1" as="geometry" />
      </mxCell>
    </object><object id="1512e2a4-60f5-4bec-ad29-b67360f28ea6" label="10.6.158.3 Catalhan_3.vdk.gov.tr Platform:ciscoWS-C2960+24TC-S,Capabilities:Switch">
      <mxCell style="fillColor=#00FF17;fontStyle=1;whiteSpace=wrap;" vertex="1" parent="1">
          <mxGeometry x="12000.0" y="6000.0" width="200" height="100" as="geometry" />
      </mxCell>
    </object><mxCell id="00d342aea6d7a5c539be4af23a20e72f-src" value="GigabitEthernet0/2" style="labelBackgroundColor=#ffffff;;" vertex="1" connectable="0" parent="00d342aea6d7a5c539be4af23a20e72f">
      <mxGeometry x="-0.5" relative="1" as="geometry">
        <mxPoint as="offset" />
      </mxGeometry>
    </mxCell><mxCell id="00d342aea6d7a5c539be4af23a20e72f-trgt" value="igabitEthernet0/1" style="labelBackgroundColor=#ffffff;;" vertex="1" connectable="0" parent="00d342aea6d7a5c539be4af23a20e72f">
      <mxGeometry x="0.5" relative="-1" as="geometry">
        <mxPoint as="offset" />
      </mxGeometry>
    </mxCell><object id="00d342aea6d7a5c539be4af23a20e72f" label="DF" src_label="GigabitEthernet0/2" trgt_label="igabitEthernet0/1" source="67d97b4e-0077-45ab-bb37-c983e996fa7f" target="1512e2a4-60f5-4bec-ad29-b67360f28ea6">
      <mxCell style="endArrow=none;" edge="1" parent="1" source="67d97b4e-0077-45ab-bb37-c983e996fa7f" target="1512e2a4-60f5-4bec-ad29-b67360f28ea6">
          <mxGeometry relative="1" as="geometry" />
      </mxCell>
    </object><object id="8e9195a7-a87f-441f-b4a8-2e1aba3cfd7f" label="10.6.158.101 Catalhan_101.vdk.gov.tr Platform:ciscoWS-C2960+24TC-S,Capabilities:SwitchIGMP">
      <mxCell style="fillColor=#00FF17;fontStyle=1;whiteSpace=wrap;" vertex="1" parent="1">
          <mxGeometry x="15500.0" y="1500.0" width="200" height="100" as="geometry" />
      </mxCell>
    </object><mxCell id="0a2242ff43d2166ed2c68f3f2b07d3b6-src" value="GigabitEthernet1/1/2" style="labelBackgroundColor=#ffffff;;" vertex="1" connectable="0" parent="0a2242ff43d2166ed2c68f3f2b07d3b6">
      <mxGeometry x="-0.5" relative="1" as="geometry">
        <mxPoint as="offset" />
      </mxGeometry>
    </mxCell><mxCell id="0a2242ff43d2166ed2c68f3f2b07d3b6-trgt" value="igabitEthernet0/1" style="labelBackgroundColor=#ffffff;;" vertex="1" connectable="0" parent="0a2242ff43d2166ed2c68f3f2b07d3b6">
      <mxGeometry x="0.5" relative="-1" as="geometry">
        <mxPoint as="offset" />
      </mxGeometry>
    </mxCell><object id="0a2242ff43d2166ed2c68f3f2b07d3b6" label="DF" src_label="GigabitEthernet1/1/2" trgt_label="igabitEthernet0/1" source="29d6ac13-1110-41bf-8c97-3b9a2e68ff37" target="8e9195a7-a87f-441f-b4a8-2e1aba3cfd7f">
      <mxCell style="endArrow=none;" edge="1" parent="1" source="29d6ac13-1110-41bf-8c97-3b9a2e68ff37" target="8e9195a7-a87f-441f-b4a8-2e1aba3cfd7f">
          <mxGeometry relative="1" as="geometry" />
      </mxCell>
    </object><object id="2f25c3b0-cfb1-4d3c-b95e-b99915e6c698" label="10.6.158.69 Catalhan_69.vdk.gov.tr Platform:ciscoWS-C2960+24TC-S,Capabilities:Switch">
      <mxCell style="fillColor=#00FF17;fontStyle=1;whiteSpace=wrap;" vertex="1" parent="1">
          <mxGeometry x="12500.0" y="3000.0" width="200" height="100" as="geometry" />
      </mxCell>
    </object><mxCell id="d716a69dac3d73668dab14f59ab19fc9-src" value="FastEthernet0/11" style="labelBackgroundColor=#ffffff;;" vertex="1" connectable="0" parent="d716a69dac3d73668dab14f59ab19fc9">
      <mxGeometry x="-0.5" relative="1" as="geometry">
        <mxPoint as="offset" />
      </mxGeometry>
    </mxCell><mxCell id="d716a69dac3d73668dab14f59ab19fc9-trgt" value="igabitEthernet0/2" style="labelBackgroundColor=#ffffff;;" vertex="1" connectable="0" parent="d716a69dac3d73668dab14f59ab19fc9">
      <mxGeometry x="0.5" relative="-1" as="geometry">
        <mxPoint as="offset" />
      </mxGeometry>
    </mxCell><object id="d716a69dac3d73668dab14f59ab19fc9" label="DF" src_label="FastEthernet0/11" trgt_label="igabitEthernet0/2" source="8e9195a7-a87f-441f-b4a8-2e1aba3cfd7f" target="2f25c3b0-cfb1-4d3c-b95e-b99915e6c698">
      <mxCell style="endArrow=none;" edge="1" parent="1" source="8e9195a7-a87f-441f-b4a8-2e1aba3cfd7f" target="2f25c3b0-cfb1-4d3c-b95e-b99915e6c698">
          <mxGeometry relative="1" as="geometry" />
      </mxCell>
    </object><object id="d692889e-8d54-4cea-8ce2-a1e701ebe608" label="10.6.158.120 Catalhan_120.vdk.gov.tr Platform:ciscoWS-C2960+24TC-S,Capabilities:SwitchIGMP">
      <mxCell style="fillColor=#00FF17;fontStyle=1;whiteSpace=wrap;" vertex="1" parent="1">
          <mxGeometry x="12500.0" y="4500.0" width="200" height="100" as="geometry" />
      </mxCell>
    </object><mxCell id="0b5d4b823cce753ee3dcd59e127a6f86-src" value="GigabitEthernet0/1" style="labelBackgroundColor=#ffffff;;" vertex="1" connectable="0" parent="0b5d4b823cce753ee3dcd59e127a6f86">
      <mxGeometry x="-0.5" relative="1" as="geometry">
        <mxPoint as="offset" />
      </mxGeometry>
    </mxCell><mxCell id="0b5d4b823cce753ee3dcd59e127a6f86-trgt" value="igabitEthernet0/2" style="labelBackgroundColor=#ffffff;;" vertex="1" connectable="0" parent="0b5d4b823cce753ee3dcd59e127a6f86">
      <mxGeometry x="0.5" relative="-1" as="geometry">
        <mxPoint as="offset" />
      </mxGeometry>
    </mxCell><object id="0b5d4b823cce753ee3dcd59e127a6f86" label="DF" src_label="GigabitEthernet0/1" trgt_label="igabitEthernet0/2" source="2f25c3b0-cfb1-4d3c-b95e-b99915e6c698" target="d692889e-8d54-4cea-8ce2-a1e701ebe608">
      <mxCell style="endArrow=none;" edge="1" parent="1" source="2f25c3b0-cfb1-4d3c-b95e-b99915e6c698" target="d692889e-8d54-4cea-8ce2-a1e701ebe608">
          <mxGeometry relative="1" as="geometry" />
      </mxCell>
    </object><object id="36f4788a-39b4-4130-af49-29683cfaa0d3" label=" Catalhan_29.vdk.gov.tr Platform:ciscoWS-C2960+24TC-S,Capabilities:SwitchIGMP">
      <mxCell style="fillColor=#CFD0CF;fontStyle=1;whiteSpace=wrap;" vertex="1" parent="1">
          <mxGeometry x="12500.0" y="6000.0" width="200" height="100" as="geometry" />
      </mxCell>
    </object><mxCell id="95e517c7d52b2d95c9075cc8932db6a9-src" value="GigabitEthernet0/1" style="labelBackgroundColor=#ffffff;;" vertex="1" connectable="0" parent="95e517c7d52b2d95c9075cc8932db6a9">
      <mxGeometry x="-0.5" relative="1" as="geometry">
        <mxPoint as="offset" />
      </mxGeometry>
    </mxCell><mxCell id="95e517c7d52b2d95c9075cc8932db6a9-trgt" value="igabitEthernet0/2" style="labelBackgroundColor=#ffffff;;" vertex="1" connectable="0" parent="95e517c7d52b2d95c9075cc8932db6a9">
      <mxGeometry x="0.5" relative="-1" as="geometry">
        <mxPoint as="offset" />
      </mxGeometry>
    </mxCell><object id="95e517c7d52b2d95c9075cc8932db6a9" label="DF" src_label="GigabitEthernet0/1" trgt_label="igabitEthernet0/2" source="d692889e-8d54-4cea-8ce2-a1e701ebe608" target="36f4788a-39b4-4130-af49-29683cfaa0d3">
      <mxCell style="endArrow=none;" edge="1" parent="1" source="d692889e-8d54-4cea-8ce2-a1e701ebe608" target="36f4788a-39b4-4130-af49-29683cfaa0d3">
          <mxGeometry relative="1" as="geometry" />
      </mxCell>
    </object><object id="b785b909-4cc3-444f-aad2-15332bd13d7e" label="10.6.158.83 Catalhan_83.vdk.gov.tr Platform:ciscoWS-C2960+24TC-S,Capabilities:SwitchIGMP">
      <mxCell style="fillColor=#00FF17;fontStyle=1;whiteSpace=wrap;" vertex="1" parent="1">
          <mxGeometry x="13000.0" y="3000.0" width="200" height="100" as="geometry" />
      </mxCell>
    </object><mxCell id="c70e728add6d96086e206112212e7bf2-src" value="FastEthernet0/10" style="labelBackgroundColor=#ffffff;;" vertex="1" connectable="0" parent="c70e728add6d96086e206112212e7bf2">
      <mxGeometry x="-0.5" relative="1" as="geometry">
        <mxPoint as="offset" />
      </mxGeometry>
    </mxCell><mxCell id="c70e728add6d96086e206112212e7bf2-trgt" value="igabitEthernet0/1" style="labelBackgroundColor=#ffffff;;" vertex="1" connectable="0" parent="c70e728add6d96086e206112212e7bf2">
      <mxGeometry x="0.5" relative="-1" as="geometry">
        <mxPoint as="offset" />
      </mxGeometry>
    </mxCell><object id="c70e728add6d96086e206112212e7bf2" label="DF" src_label="FastEthernet0/10" trgt_label="igabitEthernet0/1" source="8e9195a7-a87f-441f-b4a8-2e1aba3cfd7f" target="b785b909-4cc3-444f-aad2-15332bd13d7e">
      <mxCell style="endArrow=none;" edge="1" parent="1" source="8e9195a7-a87f-441f-b4a8-2e1aba3cfd7f" target="b785b909-4cc3-444f-aad2-15332bd13d7e">
          <mxGeometry relative="1" as="geometry" />
      </mxCell>
    </object><object id="8d1a813b-441b-4223-b756-f8f1a13d338d" label="10.6.158.82 Catalhan_82.vdk.gov.tr Platform:ciscoWS-C2960+24TC-S,Capabilities:SwitchIGMP">
      <mxCell style="fillColor=#00FF17;fontStyle=1;whiteSpace=wrap;" vertex="1" parent="1">
          <mxGeometry x="13000.0" y="4500.0" width="200" height="100" as="geometry" />
      </mxCell>
    </object><mxCell id="409beaa5d7e6c441ec6c917e016718d3-src" value="GigabitEthernet0/2" style="labelBackgroundColor=#ffffff;;" vertex="1" connectable="0" parent="409beaa5d7e6c441ec6c917e016718d3">
      <mxGeometry x="-0.5" relative="1" as="geometry">
        <mxPoint as="offset" />
      </mxGeometry>
    </mxCell><mxCell id="409beaa5d7e6c441ec6c917e016718d3-trgt" value="igabitEthernet0/1" style="labelBackgroundColor=#ffffff;;" vertex="1" connectable="0" parent="409beaa5d7e6c441ec6c917e016718d3">
      <mxGeometry x="0.5" relative="-1" as="geometry">
        <mxPoint as="offset" />
      </mxGeometry>
    </mxCell><object id="409beaa5d7e6c441ec6c917e016718d3" label="DF" src_label="GigabitEthernet0/2" trgt_label="igabitEthernet0/1" source="b785b909-4cc3-444f-aad2-15332bd13d7e" target="8d1a813b-441b-4223-b756-f8f1a13d338d">
      <mxCell style="endArrow=none;" edge="1" parent="1" source="b785b909-4cc3-444f-aad2-15332bd13d7e" target="8d1a813b-441b-4223-b756-f8f1a13d338d">
          <mxGeometry relative="1" as="geometry" />
      </mxCell>
    </object><object id="ffd99a66-280f-42ee-befa-f4ad3f4b526b" label="10.6.158.81 Catalhan_81.vdk.gov.tr Platform:ciscoWS-C2960+24TC-S,Capabilities:SwitchIGMP">
      <mxCell style="fillColor=#00FF17;fontStyle=1;whiteSpace=wrap;" vertex="1" parent="1">
          <mxGeometry x="13000.0" y="6000.0" width="200" height="100" as="geometry" />
      </mxCell>
    </object><mxCell id="b42022d05ab9dece2b96c282858a8287-src" value="GigabitEthernet0/2" style="labelBackgroundColor=#ffffff;;" vertex="1" connectable="0" parent="b42022d05ab9dece2b96c282858a8287">
      <mxGeometry x="-0.5" relative="1" as="geometry">
        <mxPoint as="offset" />
      </mxGeometry>
    </mxCell><mxCell id="b42022d05ab9dece2b96c282858a8287-trgt" value="igabitEthernet0/1" style="labelBackgroundColor=#ffffff;;" vertex="1" connectable="0" parent="b42022d05ab9dece2b96c282858a8287">
      <mxGeometry x="0.5" relative="-1" as="geometry">
        <mxPoint as="offset" />
      </mxGeometry>
    </mxCell><object id="b42022d05ab9dece2b96c282858a8287" label="DF" src_label="GigabitEthernet0/2" trgt_label="igabitEthernet0/1" source="8d1a813b-441b-4223-b756-f8f1a13d338d" target="ffd99a66-280f-42ee-befa-f4ad3f4b526b">
      <mxCell style="endArrow=none;" edge="1" parent="1" source="8d1a813b-441b-4223-b756-f8f1a13d338d" target="ffd99a66-280f-42ee-befa-f4ad3f4b526b">
          <mxGeometry relative="1" as="geometry" />
      </mxCell>
    </object><object id="b1f5865f-c9b0-4d51-9442-27bee1ed1ee0" label="10.6.158.80 Catalhan_80.vdk.gov.tr Platform:ciscoWS-C2960+24TC-S,Capabilities:SwitchIGMP">
      <mxCell style="fillColor=#00FF17;fontStyle=1;whiteSpace=wrap;" vertex="1" parent="1">
          <mxGeometry x="13000.0" y="7500.0" width="200" height="100" as="geometry" />
      </mxCell>
    </object><mxCell id="c31ff34d8098360cc46b31d5dc0ea03e-src" value="GigabitEthernet0/2" style="labelBackgroundColor=#ffffff;;" vertex="1" connectable="0" parent="c31ff34d8098360cc46b31d5dc0ea03e">
      <mxGeometry x="-0.5" relative="1" as="geometry">
        <mxPoint as="offset" />
      </mxGeometry>
    </mxCell><mxCell id="c31ff34d8098360cc46b31d5dc0ea03e-trgt" value="igabitEthernet0/1" style="labelBackgroundColor=#ffffff;;" vertex="1" connectable="0" parent="c31ff34d8098360cc46b31d5dc0ea03e">
      <mxGeometry x="0.5" relative="-1" as="geometry">
        <mxPoint as="offset" />
      </mxGeometry>
    </mxCell><object id="c31ff34d8098360cc46b31d5dc0ea03e" label="DF" src_label="GigabitEthernet0/2" trgt_label="igabitEthernet0/1" source="ffd99a66-280f-42ee-befa-f4ad3f4b526b" target="b1f5865f-c9b0-4d51-9442-27bee1ed1ee0">
      <mxCell style="endArrow=none;" edge="1" parent="1" source="ffd99a66-280f-42ee-befa-f4ad3f4b526b" target="b1f5865f-c9b0-4d51-9442-27bee1ed1ee0">
          <mxGeometry relative="1" as="geometry" />
      </mxCell>
    </object><object id="60a55f76-92b4-4578-963a-7d6b225503ef" label="10.6.158.100 Catalhan_100.vdk.gov.tr Platform:ciscoWS-C2960+24TC-S,Capabilities:SwitchIGMP">
      <mxCell style="fillColor=#00FF17;fontStyle=1;whiteSpace=wrap;" vertex="1" parent="1">
          <mxGeometry x="13000.0" y="9000.0" width="200" height="100" as="geometry" />
      </mxCell>
    </object><mxCell id="87665e736c4173a319a52367d9a10bb3-src" value="GigabitEthernet0/2" style="labelBackgroundColor=#ffffff;;" vertex="1" connectable="0" parent="87665e736c4173a319a52367d9a10bb3">
      <mxGeometry x="-0.5" relative="1" as="geometry">
        <mxPoint as="offset" />
      </mxGeometry>
    </mxCell><mxCell id="87665e736c4173a319a52367d9a10bb3-trgt" value="igabitEthernet0/1" style="labelBackgroundColor=#ffffff;;" vertex="1" connectable="0" parent="87665e736c4173a319a52367d9a10bb3">
      <mxGeometry x="0.5" relative="-1" as="geometry">
        <mxPoint as="offset" />
      </mxGeometry>
    </mxCell><object id="87665e736c4173a319a52367d9a10bb3" label="DF" src_label="GigabitEthernet0/2" trgt_label="igabitEthernet0/1" source="b1f5865f-c9b0-4d51-9442-27bee1ed1ee0" target="60a55f76-92b4-4578-963a-7d6b225503ef">
      <mxCell style="endArrow=none;" edge="1" parent="1" source="b1f5865f-c9b0-4d51-9442-27bee1ed1ee0" target="60a55f76-92b4-4578-963a-7d6b225503ef">
          <mxGeometry relative="1" as="geometry" />
      </mxCell>
    </object><object id="a762b927-22af-4803-95fa-356c5c7dd2c1" label="10.6.158.63 Catalhan_63.vdk.gov.tr Platform:ciscoWS-C2960+24TC-S,Capabilities:Switch">
      <mxCell style="fillColor=#00FF17;fontStyle=1;whiteSpace=wrap;" vertex="1" parent="1">
          <mxGeometry x="13500.0" y="3000.0" width="200" height="100" as="geometry" />
      </mxCell>
    </object><mxCell id="8b4ab6f7716d91bf2fbbf95b1066ea0e-src" value="FastEthernet0/17" style="labelBackgroundColor=#ffffff;;" vertex="1" connectable="0" parent="8b4ab6f7716d91bf2fbbf95b1066ea0e">
      <mxGeometry x="-0.5" relative="1" as="geometry">
        <mxPoint as="offset" />
      </mxGeometry>
    </mxCell><mxCell id="8b4ab6f7716d91bf2fbbf95b1066ea0e-trgt" value="igabitEthernet0/1" style="labelBackgroundColor=#ffffff;;" vertex="1" connectable="0" parent="8b4ab6f7716d91bf2fbbf95b1066ea0e">
      <mxGeometry x="0.5" relative="-1" as="geometry">
        <mxPoint as="offset" />
      </mxGeometry>
    </mxCell><object id="8b4ab6f7716d91bf2fbbf95b1066ea0e" label="DF" src_label="FastEthernet0/17" trgt_label="igabitEthernet0/1" source="8e9195a7-a87f-441f-b4a8-2e1aba3cfd7f" target="a762b927-22af-4803-95fa-356c5c7dd2c1">
      <mxCell style="endArrow=none;" edge="1" parent="1" source="8e9195a7-a87f-441f-b4a8-2e1aba3cfd7f" target="a762b927-22af-4803-95fa-356c5c7dd2c1">
          <mxGeometry relative="1" as="geometry" />
      </mxCell>
    </object><object id="68dcd25b-706f-423e-9654-e93ce2266e0f" label="10.6.158.64 Catalhan_64.vdk.gov.tr Platform:ciscoWS-C2960+24TC-S,Capabilities:Switch">
      <mxCell style="fillColor=#00FF17;fontStyle=1;whiteSpace=wrap;" vertex="1" parent="1">
          <mxGeometry x="13500.0" y="4500.0" width="200" height="100" as="geometry" />
      </mxCell>
    </object><mxCell id="71ea2ce568113cc1f942b0121543735b-src" value="GigabitEthernet0/2" style="labelBackgroundColor=#ffffff;;" vertex="1" connectable="0" parent="71ea2ce568113cc1f942b0121543735b">
      <mxGeometry x="-0.5" relative="1" as="geometry">
        <mxPoint as="offset" />
      </mxGeometry>
    </mxCell><mxCell id="71ea2ce568113cc1f942b0121543735b-trgt" value="igabitEthernet0/1" style="labelBackgroundColor=#ffffff;;" vertex="1" connectable="0" parent="71ea2ce568113cc1f942b0121543735b">
      <mxGeometry x="0.5" relative="-1" as="geometry">
        <mxPoint as="offset" />
      </mxGeometry>
    </mxCell><object id="71ea2ce568113cc1f942b0121543735b" label="DF" src_label="GigabitEthernet0/2" trgt_label="igabitEthernet0/1" source="a762b927-22af-4803-95fa-356c5c7dd2c1" target="68dcd25b-706f-423e-9654-e93ce2266e0f">
      <mxCell style="endArrow=none;" edge="1" parent="1" source="a762b927-22af-4803-95fa-356c5c7dd2c1" target="68dcd25b-706f-423e-9654-e93ce2266e0f">
          <mxGeometry relative="1" as="geometry" />
      </mxCell>
    </object><object id="6b0e1093-d0fd-4674-8afd-0f9d48ae43ca" label="10.6.158.65 Catalhan_65.vdk.gov.tr Platform:ciscoWS-C2960+24TC-S,Capabilities:Switch">
      <mxCell style="fillColor=#00FF17;fontStyle=1;whiteSpace=wrap;" vertex="1" parent="1">
          <mxGeometry x="13500.0" y="6000.0" width="200" height="100" as="geometry" />
      </mxCell>
    </object><mxCell id="00dc21a3d43cac5681d52642383586e1-src" value="GigabitEthernet0/2" style="labelBackgroundColor=#ffffff;;" vertex="1" connectable="0" parent="00dc21a3d43cac5681d52642383586e1">
      <mxGeometry x="-0.5" relative="1" as="geometry">
        <mxPoint as="offset" />
      </mxGeometry>
    </mxCell><mxCell id="00dc21a3d43cac5681d52642383586e1-trgt" value="igabitEthernet0/1" style="labelBackgroundColor=#ffffff;;" vertex="1" connectable="0" parent="00dc21a3d43cac5681d52642383586e1">
      <mxGeometry x="0.5" relative="-1" as="geometry">
        <mxPoint as="offset" />
      </mxGeometry>
    </mxCell><object id="00dc21a3d43cac5681d52642383586e1" label="DF" src_label="GigabitEthernet0/2" trgt_label="igabitEthernet0/1" source="68dcd25b-706f-423e-9654-e93ce2266e0f" target="6b0e1093-d0fd-4674-8afd-0f9d48ae43ca">
      <mxCell style="endArrow=none;" edge="1" parent="1" source="68dcd25b-706f-423e-9654-e93ce2266e0f" target="6b0e1093-d0fd-4674-8afd-0f9d48ae43ca">
          <mxGeometry relative="1" as="geometry" />
      </mxCell>
    </object><object id="baf758a3-be91-4503-8709-757d7dffc398" label="10.6.158.66 Catalhan_66.vdk.gov.tr Platform:ciscoWS-C2960+24TC-S,Capabilities:Switch">
      <mxCell style="fillColor=#00FF17;fontStyle=1;whiteSpace=wrap;" vertex="1" parent="1">
          <mxGeometry x="13500.0" y="7500.0" width="200" height="100" as="geometry" />
      </mxCell>
    </object><mxCell id="23bfe7eef313e169b5e8d876a7d1d8be-src" value="GigabitEthernet0/2" style="labelBackgroundColor=#ffffff;;" vertex="1" connectable="0" parent="23bfe7eef313e169b5e8d876a7d1d8be">
      <mxGeometry x="-0.5" relative="1" as="geometry">
        <mxPoint as="offset" />
      </mxGeometry>
    </mxCell><mxCell id="23bfe7eef313e169b5e8d876a7d1d8be-trgt" value="igabitEthernet0/1" style="labelBackgroundColor=#ffffff;;" vertex="1" connectable="0" parent="23bfe7eef313e169b5e8d876a7d1d8be">
      <mxGeometry x="0.5" relative="-1" as="geometry">
        <mxPoint as="offset" />
      </mxGeometry>
    </mxCell><object id="23bfe7eef313e169b5e8d876a7d1d8be" label="DF" src_label="GigabitEthernet0/2" trgt_label="igabitEthernet0/1" source="6b0e1093-d0fd-4674-8afd-0f9d48ae43ca" target="baf758a3-be91-4503-8709-757d7dffc398">
      <mxCell style="endArrow=none;" edge="1" parent="1" source="6b0e1093-d0fd-4674-8afd-0f9d48ae43ca" target="baf758a3-be91-4503-8709-757d7dffc398">
          <mxGeometry relative="1" as="geometry" />
      </mxCell>
    </object><object id="e3c3d194-4cac-4168-8563-80b489c4cc6b" label="10.6.158.67 Catalhan_67.vdk.gov.tr Platform:ciscoWS-C2960+24TC-S,Capabilities:Switch">
      <mxCell style="fillColor=#00FF17;fontStyle=1;whiteSpace=wrap;" vertex="1" parent="1">
          <mxGeometry x="13500.0" y="9000.0" width="200" height="100" as="geometry" />
      </mxCell>
    </object><mxCell id="2db5ec4401a178cf40c4ff3bad6b8980-src" value="GigabitEthernet0/2" style="labelBackgroundColor=#ffffff;;" vertex="1" connectable="0" parent="2db5ec4401a178cf40c4ff3bad6b8980">
      <mxGeometry x="-0.5" relative="1" as="geometry">
        <mxPoint as="offset" />
      </mxGeometry>
    </mxCell><mxCell id="2db5ec4401a178cf40c4ff3bad6b8980-trgt" value="igabitEthernet0/1" style="labelBackgroundColor=#ffffff;;" vertex="1" connectable="0" parent="2db5ec4401a178cf40c4ff3bad6b8980">
      <mxGeometry x="0.5" relative="-1" as="geometry">
        <mxPoint as="offset" />
      </mxGeometry>
    </mxCell><object id="2db5ec4401a178cf40c4ff3bad6b8980" label="DF" src_label="GigabitEthernet0/2" trgt_label="igabitEthernet0/1" source="baf758a3-be91-4503-8709-757d7dffc398" target="e3c3d194-4cac-4168-8563-80b489c4cc6b">
      <mxCell style="endArrow=none;" edge="1" parent="1" source="baf758a3-be91-4503-8709-757d7dffc398" target="e3c3d194-4cac-4168-8563-80b489c4cc6b">
          <mxGeometry relative="1" as="geometry" />
      </mxCell>
    </object><object id="4591ee27-d144-48db-8c18-517227996c5f" label="10.6.158.68 Catalhan_68.vdk.gov.tr Platform:ciscoWS-C2960+24TC-S,Capabilities:Switch">
      <mxCell style="fillColor=#00FF17;fontStyle=1;whiteSpace=wrap;" vertex="1" parent="1">
          <mxGeometry x="13500.0" y="10500.0" width="200" height="100" as="geometry" />
      </mxCell>
    </object><mxCell id="d9abce6113b46286291c46837175acd4-src" value="GigabitEthernet0/2" style="labelBackgroundColor=#ffffff;;" vertex="1" connectable="0" parent="d9abce6113b46286291c46837175acd4">
      <mxGeometry x="-0.5" relative="1" as="geometry">
        <mxPoint as="offset" />
      </mxGeometry>
    </mxCell><mxCell id="d9abce6113b46286291c46837175acd4-trgt" value="igabitEthernet0/1" style="labelBackgroundColor=#ffffff;;" vertex="1" connectable="0" parent="d9abce6113b46286291c46837175acd4">
      <mxGeometry x="0.5" relative="-1" as="geometry">
        <mxPoint as="offset" />
      </mxGeometry>
    </mxCell><object id="d9abce6113b46286291c46837175acd4" label="DF" src_label="GigabitEthernet0/2" trgt_label="igabitEthernet0/1" source="e3c3d194-4cac-4168-8563-80b489c4cc6b" target="4591ee27-d144-48db-8c18-517227996c5f">
      <mxCell style="endArrow=none;" edge="1" parent="1" source="e3c3d194-4cac-4168-8563-80b489c4cc6b" target="4591ee27-d144-48db-8c18-517227996c5f">
          <mxGeometry relative="1" as="geometry" />
      </mxCell>
    </object><object id="a7c48a6e-9320-476b-bc74-5a70d53a5577" label="10.6.158.60 Catalhan_60.vdk.gov.tr Platform:ciscoWS-C2960+24TC-S,Capabilities:Switch">
      <mxCell style="fillColor=#00FF17;fontStyle=1;whiteSpace=wrap;" vertex="1" parent="1">
          <mxGeometry x="14000.0" y="3000.0" width="200" height="100" as="geometry" />
      </mxCell>
    </object><mxCell id="b85616e93c3a295b5a2f51ae000678f3-src" value="FastEthernet0/23" style="labelBackgroundColor=#ffffff;;" vertex="1" connectable="0" parent="b85616e93c3a295b5a2f51ae000678f3">
      <mxGeometry x="-0.5" relative="1" as="geometry">
        <mxPoint as="offset" />
      </mxGeometry>
    </mxCell><mxCell id="b85616e93c3a295b5a2f51ae000678f3-trgt" value="igabitEthernet0/1" style="labelBackgroundColor=#ffffff;;" vertex="1" connectable="0" parent="b85616e93c3a295b5a2f51ae000678f3">
      <mxGeometry x="0.5" relative="-1" as="geometry">
        <mxPoint as="offset" />
      </mxGeometry>
    </mxCell><object id="b85616e93c3a295b5a2f51ae000678f3" label="DF" src_label="FastEthernet0/23" trgt_label="igabitEthernet0/1" source="8e9195a7-a87f-441f-b4a8-2e1aba3cfd7f" target="a7c48a6e-9320-476b-bc74-5a70d53a5577">
      <mxCell style="endArrow=none;" edge="1" parent="1" source="8e9195a7-a87f-441f-b4a8-2e1aba3cfd7f" target="a7c48a6e-9320-476b-bc74-5a70d53a5577">
          <mxGeometry relative="1" as="geometry" />
      </mxCell>
    </object><object id="a63a074a-36d8-4b3c-858b-396bb41e6994" label="10.6.158.61 Catalhan_61.vdk.gov.tr Platform:ciscoWS-C2960+24TC-S,Capabilities:Switch">
      <mxCell style="fillColor=#00FF17;fontStyle=1;whiteSpace=wrap;" vertex="1" parent="1">
          <mxGeometry x="14000.0" y="4500.0" width="200" height="100" as="geometry" />
      </mxCell>
    </object><mxCell id="52070afd32ed16c82031e0780c3b9e2a-src" value="GigabitEthernet0/2" style="labelBackgroundColor=#ffffff;;" vertex="1" connectable="0" parent="52070afd32ed16c82031e0780c3b9e2a">
      <mxGeometry x="-0.5" relative="1" as="geometry">
        <mxPoint as="offset" />
      </mxGeometry>
    </mxCell><mxCell id="52070afd32ed16c82031e0780c3b9e2a-trgt" value="igabitEthernet0/1" style="labelBackgroundColor=#ffffff;;" vertex="1" connectable="0" parent="52070afd32ed16c82031e0780c3b9e2a">
      <mxGeometry x="0.5" relative="-1" as="geometry">
        <mxPoint as="offset" />
      </mxGeometry>
    </mxCell><object id="52070afd32ed16c82031e0780c3b9e2a" label="DF" src_label="GigabitEthernet0/2" trgt_label="igabitEthernet0/1" source="a7c48a6e-9320-476b-bc74-5a70d53a5577" target="a63a074a-36d8-4b3c-858b-396bb41e6994">
      <mxCell style="endArrow=none;" edge="1" parent="1" source="a7c48a6e-9320-476b-bc74-5a70d53a5577" target="a63a074a-36d8-4b3c-858b-396bb41e6994">
          <mxGeometry relative="1" as="geometry" />
      </mxCell>
    </object><object id="23b7778b-55b1-494e-a49f-df6f3e7e3486" label="10.6.158.62 Catalhan_62.vdk.gov.tr Platform:ciscoWS-C2960+24TC-S,Capabilities:Switch">
      <mxCell style="fillColor=#00FF17;fontStyle=1;whiteSpace=wrap;" vertex="1" parent="1">
          <mxGeometry x="14000.0" y="6000.0" width="200" height="100" as="geometry" />
      </mxCell>
    </object><mxCell id="ec2e9fec55890ea5f9b0d96573685cd5-src" value="GigabitEthernet0/2" style="labelBackgroundColor=#ffffff;;" vertex="1" connectable="0" parent="ec2e9fec55890ea5f9b0d96573685cd5">
      <mxGeometry x="-0.5" relative="1" as="geometry">
        <mxPoint as="offset" />
      </mxGeometry>
    </mxCell><mxCell id="ec2e9fec55890ea5f9b0d96573685cd5-trgt" value="igabitEthernet0/1" style="labelBackgroundColor=#ffffff;;" vertex="1" connectable="0" parent="ec2e9fec55890ea5f9b0d96573685cd5">
      <mxGeometry x="0.5" relative="-1" as="geometry">
        <mxPoint as="offset" />
      </mxGeometry>
    </mxCell><object id="ec2e9fec55890ea5f9b0d96573685cd5" label="DF" src_label="GigabitEthernet0/2" trgt_label="igabitEthernet0/1" source="a63a074a-36d8-4b3c-858b-396bb41e6994" target="23b7778b-55b1-494e-a49f-df6f3e7e3486">
      <mxCell style="endArrow=none;" edge="1" parent="1" source="a63a074a-36d8-4b3c-858b-396bb41e6994" target="23b7778b-55b1-494e-a49f-df6f3e7e3486">
          <mxGeometry relative="1" as="geometry" />
      </mxCell>
    </object><object id="0af3f054-2a84-4ee2-b63d-8950e318b66c" label="10.6.158.70 Catalhan_70.vdk.gov.tr Platform:ciscoWS-C2960+24TC-S,Capabilities:SwitchIGMP">
      <mxCell style="fillColor=#00FF17;fontStyle=1;whiteSpace=wrap;" vertex="1" parent="1">
          <mxGeometry x="14500.0" y="3000.0" width="200" height="100" as="geometry" />
      </mxCell>
    </object><mxCell id="e53c76198a31acec68ee745c7fc238a1-src" value="FastEthernet0/16" style="labelBackgroundColor=#ffffff;;" vertex="1" connectable="0" parent="e53c76198a31acec68ee745c7fc238a1">
      <mxGeometry x="-0.5" relative="1" as="geometry">
        <mxPoint as="offset" />
      </mxGeometry>
    </mxCell><mxCell id="e53c76198a31acec68ee745c7fc238a1-trgt" value="igabitEthernet0/1" style="labelBackgroundColor=#ffffff;;" vertex="1" connectable="0" parent="e53c76198a31acec68ee745c7fc238a1">
      <mxGeometry x="0.5" relative="-1" as="geometry">
        <mxPoint as="offset" />
      </mxGeometry>
    </mxCell><object id="e53c76198a31acec68ee745c7fc238a1" label="DF" src_label="FastEthernet0/16" trgt_label="igabitEthernet0/1" source="8e9195a7-a87f-441f-b4a8-2e1aba3cfd7f" target="0af3f054-2a84-4ee2-b63d-8950e318b66c">
      <mxCell style="endArrow=none;" edge="1" parent="1" source="8e9195a7-a87f-441f-b4a8-2e1aba3cfd7f" target="0af3f054-2a84-4ee2-b63d-8950e318b66c">
          <mxGeometry relative="1" as="geometry" />
      </mxCell>
    </object><object id="b226ca09-ec32-44ff-9cd2-75205393bf1c" label="10.6.158.71 Catalhan_71.vdk.gov.tr Platform:ciscoWS-C2960+24TC-S,Capabilities:SwitchIGMP">
      <mxCell style="fillColor=#00FF17;fontStyle=1;whiteSpace=wrap;" vertex="1" parent="1">
          <mxGeometry x="14500.0" y="4500.0" width="200" height="100" as="geometry" />
      </mxCell>
    </object><mxCell id="79a903e9544d1b54d643c6d89f00fa2e-src" value="GigabitEthernet0/2" style="labelBackgroundColor=#ffffff;;" vertex="1" connectable="0" parent="79a903e9544d1b54d643c6d89f00fa2e">
      <mxGeometry x="-0.5" relative="1" as="geometry">
        <mxPoint as="offset" />
      </mxGeometry>
    </mxCell><mxCell id="79a903e9544d1b54d643c6d89f00fa2e-trgt" value="igabitEthernet0/1" style="labelBackgroundColor=#ffffff;;" vertex="1" connectable="0" parent="79a903e9544d1b54d643c6d89f00fa2e">
      <mxGeometry x="0.5" relative="-1" as="geometry">
        <mxPoint as="offset" />
      </mxGeometry>
    </mxCell><object id="79a903e9544d1b54d643c6d89f00fa2e" label="DF" src_label="GigabitEthernet0/2" trgt_label="igabitEthernet0/1" source="0af3f054-2a84-4ee2-b63d-8950e318b66c" target="b226ca09-ec32-44ff-9cd2-75205393bf1c">
      <mxCell style="endArrow=none;" edge="1" parent="1" source="0af3f054-2a84-4ee2-b63d-8950e318b66c" target="b226ca09-ec32-44ff-9cd2-75205393bf1c">
          <mxGeometry relative="1" as="geometry" />
      </mxCell>
    </object><object id="f174ea8e-d420-4963-a3f4-9ad74c633af2" label="10.6.158.72 Catalhan_72.vdk.gov.tr Platform:ciscoWS-C2960+24TC-S,Capabilities:SwitchIGMP">
      <mxCell style="fillColor=#00FF17;fontStyle=1;whiteSpace=wrap;" vertex="1" parent="1">
          <mxGeometry x="14500.0" y="6000.0" width="200" height="100" as="geometry" />
      </mxCell>
    </object><mxCell id="9f3cbaea84807950232040cf5b84d52e-src" value="GigabitEthernet0/2" style="labelBackgroundColor=#ffffff;;" vertex="1" connectable="0" parent="9f3cbaea84807950232040cf5b84d52e">
      <mxGeometry x="-0.5" relative="1" as="geometry">
        <mxPoint as="offset" />
      </mxGeometry>
    </mxCell><mxCell id="9f3cbaea84807950232040cf5b84d52e-trgt" value="igabitEthernet0/1" style="labelBackgroundColor=#ffffff;;" vertex="1" connectable="0" parent="9f3cbaea84807950232040cf5b84d52e">
      <mxGeometry x="0.5" relative="-1" as="geometry">
        <mxPoint as="offset" />
      </mxGeometry>
    </mxCell><object id="9f3cbaea84807950232040cf5b84d52e" label="DF" src_label="GigabitEthernet0/2" trgt_label="igabitEthernet0/1" source="b226ca09-ec32-44ff-9cd2-75205393bf1c" target="f174ea8e-d420-4963-a3f4-9ad74c633af2">
      <mxCell style="endArrow=none;" edge="1" parent="1" source="b226ca09-ec32-44ff-9cd2-75205393bf1c" target="f174ea8e-d420-4963-a3f4-9ad74c633af2">
          <mxGeometry relative="1" as="geometry" />
      </mxCell>
    </object><object id="9172b64a-39fc-4d30-b8ab-58a4a6885335" label="10.6.158.73 Catalhan_73.vdk.gov.tr Platform:ciscoWS-C2960+24TC-S,Capabilities:SwitchIGMP">
      <mxCell style="fillColor=#00FF17;fontStyle=1;whiteSpace=wrap;" vertex="1" parent="1">
          <mxGeometry x="14500.0" y="7500.0" width="200" height="100" as="geometry" />
      </mxCell>
    </object><mxCell id="eee0e9fa4ecad005b5a58b4104ba9061-src" value="GigabitEthernet0/2" style="labelBackgroundColor=#ffffff;;" vertex="1" connectable="0" parent="eee0e9fa4ecad005b5a58b4104ba9061">
      <mxGeometry x="-0.5" relative="1" as="geometry">
        <mxPoint as="offset" />
      </mxGeometry>
    </mxCell><mxCell id="eee0e9fa4ecad005b5a58b4104ba9061-trgt" value="igabitEthernet0/1" style="labelBackgroundColor=#ffffff;;" vertex="1" connectable="0" parent="eee0e9fa4ecad005b5a58b4104ba9061">
      <mxGeometry x="0.5" relative="-1" as="geometry">
        <mxPoint as="offset" />
      </mxGeometry>
    </mxCell><object id="eee0e9fa4ecad005b5a58b4104ba9061" label="DF" src_label="GigabitEthernet0/2" trgt_label="igabitEthernet0/1" source="f174ea8e-d420-4963-a3f4-9ad74c633af2" target="9172b64a-39fc-4d30-b8ab-58a4a6885335">
      <mxCell style="endArrow=none;" edge="1" parent="1" source="f174ea8e-d420-4963-a3f4-9ad74c633af2" target="9172b64a-39fc-4d30-b8ab-58a4a6885335">
          <mxGeometry relative="1" as="geometry" />
      </mxCell>
    </object><object id="1dc3aa41-54d0-4f43-8117-afcdf3fbcb83" label="10.6.158.74 Catalhan_74.vdk.gov.tr Platform:ciscoWS-C2960+24TC-S,Capabilities:SwitchIGMP">
      <mxCell style="fillColor=#00FF17;fontStyle=1;whiteSpace=wrap;" vertex="1" parent="1">
          <mxGeometry x="14500.0" y="9000.0" width="200" height="100" as="geometry" />
      </mxCell>
    </object><mxCell id="c35712028178efe9c9ea3a2efd0999c3-src" value="GigabitEthernet0/2" style="labelBackgroundColor=#ffffff;;" vertex="1" connectable="0" parent="c35712028178efe9c9ea3a2efd0999c3">
      <mxGeometry x="-0.5" relative="1" as="geometry">
        <mxPoint as="offset" />
      </mxGeometry>
    </mxCell><mxCell id="c35712028178efe9c9ea3a2efd0999c3-trgt" value="igabitEthernet0/1" style="labelBackgroundColor=#ffffff;;" vertex="1" connectable="0" parent="c35712028178efe9c9ea3a2efd0999c3">
      <mxGeometry x="0.5" relative="-1" as="geometry">
        <mxPoint as="offset" />
      </mxGeometry>
    </mxCell><object id="c35712028178efe9c9ea3a2efd0999c3" label="DF" src_label="GigabitEthernet0/2" trgt_label="igabitEthernet0/1" source="9172b64a-39fc-4d30-b8ab-58a4a6885335" target="1dc3aa41-54d0-4f43-8117-afcdf3fbcb83">
      <mxCell style="endArrow=none;" edge="1" parent="1" source="9172b64a-39fc-4d30-b8ab-58a4a6885335" target="1dc3aa41-54d0-4f43-8117-afcdf3fbcb83">
          <mxGeometry relative="1" as="geometry" />
      </mxCell>
    </object><object id="61027499-cbec-4bac-beeb-a8651d475d06" label="10.6.158.88 Catalhan_88.vdk.gov.tr Platform:ciscoWS-C2960+24TC-S,Capabilities:SwitchIGMP">
      <mxCell style="fillColor=#00FF17;fontStyle=1;whiteSpace=wrap;" vertex="1" parent="1">
          <mxGeometry x="15000.0" y="3000.0" width="200" height="100" as="geometry" />
      </mxCell>
    </object><mxCell id="c98ab22a4c04847ed3e3a3f16194dd87-src" value="FastEthernet0/2" style="labelBackgroundColor=#ffffff;;" vertex="1" connectable="0" parent="c98ab22a4c04847ed3e3a3f16194dd87">
      <mxGeometry x="-0.5" relative="1" as="geometry">
        <mxPoint as="offset" />
      </mxGeometry>
    </mxCell><mxCell id="c98ab22a4c04847ed3e3a3f16194dd87-trgt" value="igabitEthernet0/1" style="labelBackgroundColor=#ffffff;;" vertex="1" connectable="0" parent="c98ab22a4c04847ed3e3a3f16194dd87">
      <mxGeometry x="0.5" relative="-1" as="geometry">
        <mxPoint as="offset" />
      </mxGeometry>
    </mxCell><object id="c98ab22a4c04847ed3e3a3f16194dd87" label="DF" src_label="FastEthernet0/2" trgt_label="igabitEthernet0/1" source="8e9195a7-a87f-441f-b4a8-2e1aba3cfd7f" target="61027499-cbec-4bac-beeb-a8651d475d06">
      <mxCell style="endArrow=none;" edge="1" parent="1" source="8e9195a7-a87f-441f-b4a8-2e1aba3cfd7f" target="61027499-cbec-4bac-beeb-a8651d475d06">
          <mxGeometry relative="1" as="geometry" />
      </mxCell>
    </object><object id="5e061371-8fd9-4a06-96d6-9057ba50968b" label="10.6.158.87 Catalhan_87.vdk.gov.tr Platform:ciscoWS-C2960+24TC-S,Capabilities:SwitchIGMP">
      <mxCell style="fillColor=#00FF17;fontStyle=1;whiteSpace=wrap;" vertex="1" parent="1">
          <mxGeometry x="15000.0" y="4500.0" width="200" height="100" as="geometry" />
      </mxCell>
    </object><mxCell id="542de0de029bcc812d48eef3de255e04-src" value="GigabitEthernet0/2" style="labelBackgroundColor=#ffffff;;" vertex="1" connectable="0" parent="542de0de029bcc812d48eef3de255e04">
      <mxGeometry x="-0.5" relative="1" as="geometry">
        <mxPoint as="offset" />
      </mxGeometry>
    </mxCell><mxCell id="542de0de029bcc812d48eef3de255e04-trgt" value="igabitEthernet0/1" style="labelBackgroundColor=#ffffff;;" vertex="1" connectable="0" parent="542de0de029bcc812d48eef3de255e04">
      <mxGeometry x="0.5" relative="-1" as="geometry">
        <mxPoint as="offset" />
      </mxGeometry>
    </mxCell><object id="542de0de029bcc812d48eef3de255e04" label="DF" src_label="GigabitEthernet0/2" trgt_label="igabitEthernet0/1" source="61027499-cbec-4bac-beeb-a8651d475d06" target="5e061371-8fd9-4a06-96d6-9057ba50968b">
      <mxCell style="endArrow=none;" edge="1" parent="1" source="61027499-cbec-4bac-beeb-a8651d475d06" target="5e061371-8fd9-4a06-96d6-9057ba50968b">
          <mxGeometry relative="1" as="geometry" />
      </mxCell>
    </object><object id="62b490bf-3d00-418d-9883-df186a1817ed" label="10.6.158.86 Catalhan_86.vdk.gov.tr Platform:ciscoWS-C2960+24TC-S,Capabilities:SwitchIGMP">
      <mxCell style="fillColor=#00FF17;fontStyle=1;whiteSpace=wrap;" vertex="1" parent="1">
          <mxGeometry x="15000.0" y="6000.0" width="200" height="100" as="geometry" />
      </mxCell>
    </object><mxCell id="54e1b64165cbb90bf25ccfb8a4b579a1-src" value="GigabitEthernet0/2" style="labelBackgroundColor=#ffffff;;" vertex="1" connectable="0" parent="54e1b64165cbb90bf25ccfb8a4b579a1">
      <mxGeometry x="-0.5" relative="1" as="geometry">
        <mxPoint as="offset" />
      </mxGeometry>
    </mxCell><mxCell id="54e1b64165cbb90bf25ccfb8a4b579a1-trgt" value="igabitEthernet0/1" style="labelBackgroundColor=#ffffff;;" vertex="1" connectable="0" parent="54e1b64165cbb90bf25ccfb8a4b579a1">
      <mxGeometry x="0.5" relative="-1" as="geometry">
        <mxPoint as="offset" />
      </mxGeometry>
    </mxCell><object id="54e1b64165cbb90bf25ccfb8a4b579a1" label="DF" src_label="GigabitEthernet0/2" trgt_label="igabitEthernet0/1" source="5e061371-8fd9-4a06-96d6-9057ba50968b" target="62b490bf-3d00-418d-9883-df186a1817ed">
      <mxCell style="endArrow=none;" edge="1" parent="1" source="5e061371-8fd9-4a06-96d6-9057ba50968b" target="62b490bf-3d00-418d-9883-df186a1817ed">
          <mxGeometry relative="1" as="geometry" />
      </mxCell>
    </object><object id="0c188c30-e8e0-459d-8544-302e834b1e25" label="10.6.158.84 Catalhan_84.vdk.gov.tr Platform:ciscoWS-C2960+24TC-S,Capabilities:SwitchIGMP">
      <mxCell style="fillColor=#00FF17;fontStyle=1;whiteSpace=wrap;" vertex="1" parent="1">
          <mxGeometry x="15000.0" y="7500.0" width="200" height="100" as="geometry" />
      </mxCell>
    </object><mxCell id="9aebbaf961b70a665bcabdec4945c363-src" value="GigabitEthernet0/2" style="labelBackgroundColor=#ffffff;;" vertex="1" connectable="0" parent="9aebbaf961b70a665bcabdec4945c363">
      <mxGeometry x="-0.5" relative="1" as="geometry">
        <mxPoint as="offset" />
      </mxGeometry>
    </mxCell><mxCell id="9aebbaf961b70a665bcabdec4945c363-trgt" value="igabitEthernet0/1" style="labelBackgroundColor=#ffffff;;" vertex="1" connectable="0" parent="9aebbaf961b70a665bcabdec4945c363">
      <mxGeometry x="0.5" relative="-1" as="geometry">
        <mxPoint as="offset" />
      </mxGeometry>
    </mxCell><object id="9aebbaf961b70a665bcabdec4945c363" label="DF" src_label="GigabitEthernet0/2" trgt_label="igabitEthernet0/1" source="62b490bf-3d00-418d-9883-df186a1817ed" target="0c188c30-e8e0-459d-8544-302e834b1e25">
      <mxCell style="endArrow=none;" edge="1" parent="1" source="62b490bf-3d00-418d-9883-df186a1817ed" target="0c188c30-e8e0-459d-8544-302e834b1e25">
          <mxGeometry relative="1" as="geometry" />
      </mxCell>
    </object><object id="7b8786f6-5526-490f-adba-2a9b9eba1df1" label="10.6.158.85 Catalhan_85.vdk.gov.tr Platform:ciscoWS-C2960+24TC-S,Capabilities:SwitchIGMP">
      <mxCell style="fillColor=#00FF17;fontStyle=1;whiteSpace=wrap;" vertex="1" parent="1">
          <mxGeometry x="15000.0" y="9000.0" width="200" height="100" as="geometry" />
      </mxCell>
    </object><mxCell id="3f62410a7c02bd85eb1f990c51231294-src" value="GigabitEthernet0/2" style="labelBackgroundColor=#ffffff;;" vertex="1" connectable="0" parent="3f62410a7c02bd85eb1f990c51231294">
      <mxGeometry x="-0.5" relative="1" as="geometry">
        <mxPoint as="offset" />
      </mxGeometry>
    </mxCell><mxCell id="3f62410a7c02bd85eb1f990c51231294-trgt" value="igabitEthernet0/1" style="labelBackgroundColor=#ffffff;;" vertex="1" connectable="0" parent="3f62410a7c02bd85eb1f990c51231294">
      <mxGeometry x="0.5" relative="-1" as="geometry">
        <mxPoint as="offset" />
      </mxGeometry>
    </mxCell><object id="3f62410a7c02bd85eb1f990c51231294" label="DF" src_label="GigabitEthernet0/2" trgt_label="igabitEthernet0/1" source="0c188c30-e8e0-459d-8544-302e834b1e25" target="7b8786f6-5526-490f-adba-2a9b9eba1df1">
      <mxCell style="endArrow=none;" edge="1" parent="1" source="0c188c30-e8e0-459d-8544-302e834b1e25" target="7b8786f6-5526-490f-adba-2a9b9eba1df1">
          <mxGeometry relative="1" as="geometry" />
      </mxCell>
    </object><object id="ae87bd8a-cd4a-403a-a29c-b8ccb71a3336" label="10.6.158.75 Catalhan_75.vdk.gov.tr Platform:ciscoWS-C2960+24TC-S,Capabilities:SwitchIGMP">
      <mxCell style="fillColor=#00FF17;fontStyle=1;whiteSpace=wrap;" vertex="1" parent="1">
          <mxGeometry x="15500.0" y="3000.0" width="200" height="100" as="geometry" />
      </mxCell>
    </object><mxCell id="e4fd4cf69321becce0a6ea7459885e4d-src" value="FastEthernet0/18" style="labelBackgroundColor=#ffffff;;" vertex="1" connectable="0" parent="e4fd4cf69321becce0a6ea7459885e4d">
      <mxGeometry x="-0.5" relative="1" as="geometry">
        <mxPoint as="offset" />
      </mxGeometry>
    </mxCell><mxCell id="e4fd4cf69321becce0a6ea7459885e4d-trgt" value="igabitEthernet0/1" style="labelBackgroundColor=#ffffff;;" vertex="1" connectable="0" parent="e4fd4cf69321becce0a6ea7459885e4d">
      <mxGeometry x="0.5" relative="-1" as="geometry">
        <mxPoint as="offset" />
      </mxGeometry>
    </mxCell><object id="e4fd4cf69321becce0a6ea7459885e4d" label="DF" src_label="FastEthernet0/18" trgt_label="igabitEthernet0/1" source="8e9195a7-a87f-441f-b4a8-2e1aba3cfd7f" target="ae87bd8a-cd4a-403a-a29c-b8ccb71a3336">
      <mxCell style="endArrow=none;" edge="1" parent="1" source="8e9195a7-a87f-441f-b4a8-2e1aba3cfd7f" target="ae87bd8a-cd4a-403a-a29c-b8ccb71a3336">
          <mxGeometry relative="1" as="geometry" />
      </mxCell>
    </object><object id="c8f754c5-0868-430b-ba22-2859aa229660" label="10.6.158.76 Catalhan_76.vdk.gov.tr Platform:ciscoWS-C2960+24TC-S,Capabilities:SwitchIGMP">
      <mxCell style="fillColor=#00FF17;fontStyle=1;whiteSpace=wrap;" vertex="1" parent="1">
          <mxGeometry x="15500.0" y="4500.0" width="200" height="100" as="geometry" />
      </mxCell>
    </object><mxCell id="06fc6f7d39ceb7df6b18b1b879fb9883-src" value="GigabitEthernet0/2" style="labelBackgroundColor=#ffffff;;" vertex="1" connectable="0" parent="06fc6f7d39ceb7df6b18b1b879fb9883">
      <mxGeometry x="-0.5" relative="1" as="geometry">
        <mxPoint as="offset" />
      </mxGeometry>
    </mxCell><mxCell id="06fc6f7d39ceb7df6b18b1b879fb9883-trgt" value="igabitEthernet0/1" style="labelBackgroundColor=#ffffff;;" vertex="1" connectable="0" parent="06fc6f7d39ceb7df6b18b1b879fb9883">
      <mxGeometry x="0.5" relative="-1" as="geometry">
        <mxPoint as="offset" />
      </mxGeometry>
    </mxCell><object id="06fc6f7d39ceb7df6b18b1b879fb9883" label="DF" src_label="GigabitEthernet0/2" trgt_label="igabitEthernet0/1" source="ae87bd8a-cd4a-403a-a29c-b8ccb71a3336" target="c8f754c5-0868-430b-ba22-2859aa229660">
      <mxCell style="endArrow=none;" edge="1" parent="1" source="ae87bd8a-cd4a-403a-a29c-b8ccb71a3336" target="c8f754c5-0868-430b-ba22-2859aa229660">
          <mxGeometry relative="1" as="geometry" />
      </mxCell>
    </object><object id="1464eb28-6ae7-421d-a12a-5046e32c9609" label="10.6.158.77 Catalhan_77.vdk.gov.tr Platform:ciscoWS-C2960+24TC-S,Capabilities:SwitchIGMP">
      <mxCell style="fillColor=#00FF17;fontStyle=1;whiteSpace=wrap;" vertex="1" parent="1">
          <mxGeometry x="15500.0" y="6000.0" width="200" height="100" as="geometry" />
      </mxCell>
    </object><mxCell id="cdee976175acfa6844724d97a0f59a3c-src" value="GigabitEthernet0/2" style="labelBackgroundColor=#ffffff;;" vertex="1" connectable="0" parent="cdee976175acfa6844724d97a0f59a3c">
      <mxGeometry x="-0.5" relative="1" as="geometry">
        <mxPoint as="offset" />
      </mxGeometry>
    </mxCell><mxCell id="cdee976175acfa6844724d97a0f59a3c-trgt" value="igabitEthernet0/1" style="labelBackgroundColor=#ffffff;;" vertex="1" connectable="0" parent="cdee976175acfa6844724d97a0f59a3c">
      <mxGeometry x="0.5" relative="-1" as="geometry">
        <mxPoint as="offset" />
      </mxGeometry>
    </mxCell><object id="cdee976175acfa6844724d97a0f59a3c" label="DF" src_label="GigabitEthernet0/2" trgt_label="igabitEthernet0/1" source="c8f754c5-0868-430b-ba22-2859aa229660" target="1464eb28-6ae7-421d-a12a-5046e32c9609">
      <mxCell style="endArrow=none;" edge="1" parent="1" source="c8f754c5-0868-430b-ba22-2859aa229660" target="1464eb28-6ae7-421d-a12a-5046e32c9609">
          <mxGeometry relative="1" as="geometry" />
      </mxCell>
    </object><object id="409cfaea-bafb-48ce-859a-2b22a02c566f" label=" Switch Platform:ciscoWS-C2960+24TC-S,Capabilities:SwitchIGMP">
      <mxCell style="fillColor=#CFD0CF;fontStyle=1;whiteSpace=wrap;" vertex="1" parent="1">
          <mxGeometry x="15500.0" y="7500.0" width="200" height="100" as="geometry" />
      </mxCell>
    </object><mxCell id="0f84d83c6d9a8af060a5388796bc756a-src" value="GigabitEthernet0/2" style="labelBackgroundColor=#ffffff;;" vertex="1" connectable="0" parent="0f84d83c6d9a8af060a5388796bc756a">
      <mxGeometry x="-0.5" relative="1" as="geometry">
        <mxPoint as="offset" />
      </mxGeometry>
    </mxCell><mxCell id="0f84d83c6d9a8af060a5388796bc756a-trgt" value="igabitEthernet0/1" style="labelBackgroundColor=#ffffff;;" vertex="1" connectable="0" parent="0f84d83c6d9a8af060a5388796bc756a">
      <mxGeometry x="0.5" relative="-1" as="geometry">
        <mxPoint as="offset" />
      </mxGeometry>
    </mxCell><object id="0f84d83c6d9a8af060a5388796bc756a" label="DF" src_label="GigabitEthernet0/2" trgt_label="igabitEthernet0/1" source="1464eb28-6ae7-421d-a12a-5046e32c9609" target="409cfaea-bafb-48ce-859a-2b22a02c566f">
      <mxCell style="endArrow=none;" edge="1" parent="1" source="1464eb28-6ae7-421d-a12a-5046e32c9609" target="409cfaea-bafb-48ce-859a-2b22a02c566f">
          <mxGeometry relative="1" as="geometry" />
      </mxCell>
    </object><object id="021947be-fb7d-458e-bb9d-0076ac76b659" label="10.6.158.46 Catalhan_46.vdk.gov.tr Platform:ciscoWS-C2960+24TC-S,Capabilities:Switch">
      <mxCell style="fillColor=#00FF17;fontStyle=1;whiteSpace=wrap;" vertex="1" parent="1">
          <mxGeometry x="16000.0" y="3000.0" width="200" height="100" as="geometry" />
      </mxCell>
    </object><mxCell id="61e4350c3d771d17a21ceac8eab60da9-src" value="FastEthernet0/21" style="labelBackgroundColor=#ffffff;;" vertex="1" connectable="0" parent="61e4350c3d771d17a21ceac8eab60da9">
      <mxGeometry x="-0.5" relative="1" as="geometry">
        <mxPoint as="offset" />
      </mxGeometry>
    </mxCell><mxCell id="61e4350c3d771d17a21ceac8eab60da9-trgt" value="igabitEthernet0/1" style="labelBackgroundColor=#ffffff;;" vertex="1" connectable="0" parent="61e4350c3d771d17a21ceac8eab60da9">
      <mxGeometry x="0.5" relative="-1" as="geometry">
        <mxPoint as="offset" />
      </mxGeometry>
    </mxCell><object id="61e4350c3d771d17a21ceac8eab60da9" label="DF" src_label="FastEthernet0/21" trgt_label="igabitEthernet0/1" source="8e9195a7-a87f-441f-b4a8-2e1aba3cfd7f" target="021947be-fb7d-458e-bb9d-0076ac76b659">
      <mxCell style="endArrow=none;" edge="1" parent="1" source="8e9195a7-a87f-441f-b4a8-2e1aba3cfd7f" target="021947be-fb7d-458e-bb9d-0076ac76b659">
          <mxGeometry relative="1" as="geometry" />
      </mxCell>
    </object><object id="1d24e540-3412-4ce1-8569-dca2c7a28daf" label="10.6.158.45 Catalhan_45.vdk.gov.tr Platform:ciscoWS-C2960+24TC-S,Capabilities:Switch">
      <mxCell style="fillColor=#00FF17;fontStyle=1;whiteSpace=wrap;" vertex="1" parent="1">
          <mxGeometry x="16000.0" y="4500.0" width="200" height="100" as="geometry" />
      </mxCell>
    </object><mxCell id="ffb61d045e5acc0a203cf0b1bb1be87b-src" value="GigabitEthernet0/2" style="labelBackgroundColor=#ffffff;;" vertex="1" connectable="0" parent="ffb61d045e5acc0a203cf0b1bb1be87b">
      <mxGeometry x="-0.5" relative="1" as="geometry">
        <mxPoint as="offset" />
      </mxGeometry>
    </mxCell><mxCell id="ffb61d045e5acc0a203cf0b1bb1be87b-trgt" value="igabitEthernet0/2" style="labelBackgroundColor=#ffffff;;" vertex="1" connectable="0" parent="ffb61d045e5acc0a203cf0b1bb1be87b">
      <mxGeometry x="0.5" relative="-1" as="geometry">
        <mxPoint as="offset" />
      </mxGeometry>
    </mxCell><object id="ffb61d045e5acc0a203cf0b1bb1be87b" label="DF" src_label="GigabitEthernet0/2" trgt_label="igabitEthernet0/2" source="021947be-fb7d-458e-bb9d-0076ac76b659" target="1d24e540-3412-4ce1-8569-dca2c7a28daf">
      <mxCell style="endArrow=none;" edge="1" parent="1" source="021947be-fb7d-458e-bb9d-0076ac76b659" target="1d24e540-3412-4ce1-8569-dca2c7a28daf">
          <mxGeometry relative="1" as="geometry" />
      </mxCell>
    </object><object id="c7fa798f-9c6a-4559-87cc-abe07ea78a5e" label="10.6.158.44 Catalhan_44.vdk.gov.tr Platform:ciscoWS-C2960+24TC-S,Capabilities:Switch">
      <mxCell style="fillColor=#00FF17;fontStyle=1;whiteSpace=wrap;" vertex="1" parent="1">
          <mxGeometry x="16000.0" y="6000.0" width="200" height="100" as="geometry" />
      </mxCell>
    </object><mxCell id="94a92ef794d031b3c4ba6726135c4fc8-src" value="GigabitEthernet0/1" style="labelBackgroundColor=#ffffff;;" vertex="1" connectable="0" parent="94a92ef794d031b3c4ba6726135c4fc8">
      <mxGeometry x="-0.5" relative="1" as="geometry">
        <mxPoint as="offset" />
      </mxGeometry>
    </mxCell><mxCell id="94a92ef794d031b3c4ba6726135c4fc8-trgt" value="igabitEthernet0/2" style="labelBackgroundColor=#ffffff;;" vertex="1" connectable="0" parent="94a92ef794d031b3c4ba6726135c4fc8">
      <mxGeometry x="0.5" relative="-1" as="geometry">
        <mxPoint as="offset" />
      </mxGeometry>
    </mxCell><object id="94a92ef794d031b3c4ba6726135c4fc8" label="DF" src_label="GigabitEthernet0/1" trgt_label="igabitEthernet0/2" source="1d24e540-3412-4ce1-8569-dca2c7a28daf" target="c7fa798f-9c6a-4559-87cc-abe07ea78a5e">
      <mxCell style="endArrow=none;" edge="1" parent="1" source="1d24e540-3412-4ce1-8569-dca2c7a28daf" target="c7fa798f-9c6a-4559-87cc-abe07ea78a5e">
          <mxGeometry relative="1" as="geometry" />
      </mxCell>
    </object><object id="fd6c3cfa-805c-4132-9734-76498fe58a47" label="10.6.158.43 Catalhan_43.vdk.gov.tr Platform:ciscoWS-C2960+24TC-S,Capabilities:Switch">
      <mxCell style="fillColor=#00FF17;fontStyle=1;whiteSpace=wrap;" vertex="1" parent="1">
          <mxGeometry x="16000.0" y="7500.0" width="200" height="100" as="geometry" />
      </mxCell>
    </object><mxCell id="8767f8431345c2d704bbc208881bc383-src" value="GigabitEthernet0/1" style="labelBackgroundColor=#ffffff;;" vertex="1" connectable="0" parent="8767f8431345c2d704bbc208881bc383">
      <mxGeometry x="-0.5" relative="1" as="geometry">
        <mxPoint as="offset" />
      </mxGeometry>
    </mxCell><mxCell id="8767f8431345c2d704bbc208881bc383-trgt" value="igabitEthernet0/2" style="labelBackgroundColor=#ffffff;;" vertex="1" connectable="0" parent="8767f8431345c2d704bbc208881bc383">
      <mxGeometry x="0.5" relative="-1" as="geometry">
        <mxPoint as="offset" />
      </mxGeometry>
    </mxCell><object id="8767f8431345c2d704bbc208881bc383" label="DF" src_label="GigabitEthernet0/1" trgt_label="igabitEthernet0/2" source="c7fa798f-9c6a-4559-87cc-abe07ea78a5e" target="fd6c3cfa-805c-4132-9734-76498fe58a47">
      <mxCell style="endArrow=none;" edge="1" parent="1" source="c7fa798f-9c6a-4559-87cc-abe07ea78a5e" target="fd6c3cfa-805c-4132-9734-76498fe58a47">
          <mxGeometry relative="1" as="geometry" />
      </mxCell>
    </object><object id="39444b7e-20b1-4409-b503-51aea1e030fd" label="10.6.158.41 Catalhan_41.vdk.gov.tr Platform:ciscoWS-C2960+24TC-S,Capabilities:Switch">
      <mxCell style="fillColor=#00FF17;fontStyle=1;whiteSpace=wrap;" vertex="1" parent="1">
          <mxGeometry x="16000.0" y="9000.0" width="200" height="100" as="geometry" />
      </mxCell>
    </object><mxCell id="a8a78777e4364f552ee87bcb34d926f5-src" value="GigabitEthernet0/1" style="labelBackgroundColor=#ffffff;;" vertex="1" connectable="0" parent="a8a78777e4364f552ee87bcb34d926f5">
      <mxGeometry x="-0.5" relative="1" as="geometry">
        <mxPoint as="offset" />
      </mxGeometry>
    </mxCell><mxCell id="a8a78777e4364f552ee87bcb34d926f5-trgt" value="igabitEthernet0/2" style="labelBackgroundColor=#ffffff;;" vertex="1" connectable="0" parent="a8a78777e4364f552ee87bcb34d926f5">
      <mxGeometry x="0.5" relative="-1" as="geometry">
        <mxPoint as="offset" />
      </mxGeometry>
    </mxCell><object id="a8a78777e4364f552ee87bcb34d926f5" label="DF" src_label="GigabitEthernet0/1" trgt_label="igabitEthernet0/2" source="fd6c3cfa-805c-4132-9734-76498fe58a47" target="39444b7e-20b1-4409-b503-51aea1e030fd">
      <mxCell style="endArrow=none;" edge="1" parent="1" source="fd6c3cfa-805c-4132-9734-76498fe58a47" target="39444b7e-20b1-4409-b503-51aea1e030fd">
          <mxGeometry relative="1" as="geometry" />
      </mxCell>
    </object><object id="c5cd1145-2b69-43fb-94d1-dc7b9a55797d" label="10.6.158.12 Catalhan_12.vdk.gov.tr Platform:ciscoWS-C2960-24TC-S,Capabilities:Switch">
      <mxCell style="fillColor=#00FF17;fontStyle=1;whiteSpace=wrap;" vertex="1" parent="1">
          <mxGeometry x="16500.0" y="3000.0" width="200" height="100" as="geometry" />
      </mxCell>
    </object><mxCell id="85f9359a174d14c15ac61114402d1e52-src" value="FastEthernet0/7" style="labelBackgroundColor=#ffffff;;" vertex="1" connectable="0" parent="85f9359a174d14c15ac61114402d1e52">
      <mxGeometry x="-0.5" relative="1" as="geometry">
        <mxPoint as="offset" />
      </mxGeometry>
    </mxCell><mxCell id="85f9359a174d14c15ac61114402d1e52-trgt" value="igabitEthernet0/1" style="labelBackgroundColor=#ffffff;;" vertex="1" connectable="0" parent="85f9359a174d14c15ac61114402d1e52">
      <mxGeometry x="0.5" relative="-1" as="geometry">
        <mxPoint as="offset" />
      </mxGeometry>
    </mxCell><object id="85f9359a174d14c15ac61114402d1e52" label="DF" src_label="FastEthernet0/7" trgt_label="igabitEthernet0/1" source="8e9195a7-a87f-441f-b4a8-2e1aba3cfd7f" target="c5cd1145-2b69-43fb-94d1-dc7b9a55797d">
      <mxCell style="endArrow=none;" edge="1" parent="1" source="8e9195a7-a87f-441f-b4a8-2e1aba3cfd7f" target="c5cd1145-2b69-43fb-94d1-dc7b9a55797d">
          <mxGeometry relative="1" as="geometry" />
      </mxCell>
    </object><object id="f2a19e79-b4d4-45ac-83d9-495dab942b8c" label="10.6.158.13 Catalhan_13.vdk.gov.tr Platform:ciscoWS-C2960-24TC-S,Capabilities:Switch">
      <mxCell style="fillColor=#00FF17;fontStyle=1;whiteSpace=wrap;" vertex="1" parent="1">
          <mxGeometry x="16500.0" y="4500.0" width="200" height="100" as="geometry" />
      </mxCell>
    </object><mxCell id="610237817200a19ee967e69cdca2a600-src" value="GigabitEthernet0/2" style="labelBackgroundColor=#ffffff;;" vertex="1" connectable="0" parent="610237817200a19ee967e69cdca2a600">
      <mxGeometry x="-0.5" relative="1" as="geometry">
        <mxPoint as="offset" />
      </mxGeometry>
    </mxCell><mxCell id="610237817200a19ee967e69cdca2a600-trgt" value="igabitEthernet0/1" style="labelBackgroundColor=#ffffff;;" vertex="1" connectable="0" parent="610237817200a19ee967e69cdca2a600">
      <mxGeometry x="0.5" relative="-1" as="geometry">
        <mxPoint as="offset" />
      </mxGeometry>
    </mxCell><object id="610237817200a19ee967e69cdca2a600" label="DF" src_label="GigabitEthernet0/2" trgt_label="igabitEthernet0/1" source="c5cd1145-2b69-43fb-94d1-dc7b9a55797d" target="f2a19e79-b4d4-45ac-83d9-495dab942b8c">
      <mxCell style="endArrow=none;" edge="1" parent="1" source="c5cd1145-2b69-43fb-94d1-dc7b9a55797d" target="f2a19e79-b4d4-45ac-83d9-495dab942b8c">
          <mxGeometry relative="1" as="geometry" />
      </mxCell>
    </object><object id="0985e835-18d9-4431-9076-1d9f2a84ca4c" label="10.6.158.9 Catalhan_9.vdk.gov.tr Platform:ciscoWS-C2960-24TC-S,Capabilities:Switch">
      <mxCell style="fillColor=#00FF17;fontStyle=1;whiteSpace=wrap;" vertex="1" parent="1">
          <mxGeometry x="16500.0" y="6000.0" width="200" height="100" as="geometry" />
      </mxCell>
    </object><mxCell id="20fa76fa4ef6183e3cb5d627e78da48e-src" value="GigabitEthernet0/2" style="labelBackgroundColor=#ffffff;;" vertex="1" connectable="0" parent="20fa76fa4ef6183e3cb5d627e78da48e">
      <mxGeometry x="-0.5" relative="1" as="geometry">
        <mxPoint as="offset" />
      </mxGeometry>
    </mxCell><mxCell id="20fa76fa4ef6183e3cb5d627e78da48e-trgt" value="igabitEthernet0/1" style="labelBackgroundColor=#ffffff;;" vertex="1" connectable="0" parent="20fa76fa4ef6183e3cb5d627e78da48e">
      <mxGeometry x="0.5" relative="-1" as="geometry">
        <mxPoint as="offset" />
      </mxGeometry>
    </mxCell><object id="20fa76fa4ef6183e3cb5d627e78da48e" label="DF" src_label="GigabitEthernet0/2" trgt_label="igabitEthernet0/1" source="f2a19e79-b4d4-45ac-83d9-495dab942b8c" target="0985e835-18d9-4431-9076-1d9f2a84ca4c">
      <mxCell style="endArrow=none;" edge="1" parent="1" source="f2a19e79-b4d4-45ac-83d9-495dab942b8c" target="0985e835-18d9-4431-9076-1d9f2a84ca4c">
          <mxGeometry relative="1" as="geometry" />
      </mxCell>
    </object><object id="f8ab7671-7787-472a-b9b6-869c5c1f5318" label="10.6.158.11 Catalhan_11.vdk.gov.tr Platform:ciscoWS-C2960-24TC-S,Capabilities:Switch">
      <mxCell style="fillColor=#00FF17;fontStyle=1;whiteSpace=wrap;" vertex="1" parent="1">
          <mxGeometry x="16500.0" y="7500.0" width="200" height="100" as="geometry" />
      </mxCell>
    </object><mxCell id="f7c37146870af4eec7616cb428b189a4-src" value="GigabitEthernet0/2" style="labelBackgroundColor=#ffffff;;" vertex="1" connectable="0" parent="f7c37146870af4eec7616cb428b189a4">
      <mxGeometry x="-0.5" relative="1" as="geometry">
        <mxPoint as="offset" />
      </mxGeometry>
    </mxCell><mxCell id="f7c37146870af4eec7616cb428b189a4-trgt" value="igabitEthernet0/1" style="labelBackgroundColor=#ffffff;;" vertex="1" connectable="0" parent="f7c37146870af4eec7616cb428b189a4">
      <mxGeometry x="0.5" relative="-1" as="geometry">
        <mxPoint as="offset" />
      </mxGeometry>
    </mxCell><object id="f7c37146870af4eec7616cb428b189a4" label="DF" src_label="GigabitEthernet0/2" trgt_label="igabitEthernet0/1" source="0985e835-18d9-4431-9076-1d9f2a84ca4c" target="f8ab7671-7787-472a-b9b6-869c5c1f5318">
      <mxCell style="endArrow=none;" edge="1" parent="1" source="0985e835-18d9-4431-9076-1d9f2a84ca4c" target="f8ab7671-7787-472a-b9b6-869c5c1f5318">
          <mxGeometry relative="1" as="geometry" />
      </mxCell>
    </object><object id="a6033a19-f893-4d53-b328-8da356ca9611" label="10.6.158.10 Catalhan_10.vdk.gov.tr Platform:ciscoWS-C2960-24TC-S,Capabilities:Switch">
      <mxCell style="fillColor=#00FF17;fontStyle=1;whiteSpace=wrap;" vertex="1" parent="1">
          <mxGeometry x="16500.0" y="9000.0" width="200" height="100" as="geometry" />
      </mxCell>
    </object><mxCell id="e4c665d8ff789a78dc23e1c6ba0c3c70-src" value="GigabitEthernet0/2" style="labelBackgroundColor=#ffffff;;" vertex="1" connectable="0" parent="e4c665d8ff789a78dc23e1c6ba0c3c70">
      <mxGeometry x="-0.5" relative="1" as="geometry">
        <mxPoint as="offset" />
      </mxGeometry>
    </mxCell><mxCell id="e4c665d8ff789a78dc23e1c6ba0c3c70-trgt" value="igabitEthernet0/1" style="labelBackgroundColor=#ffffff;;" vertex="1" connectable="0" parent="e4c665d8ff789a78dc23e1c6ba0c3c70">
      <mxGeometry x="0.5" relative="-1" as="geometry">
        <mxPoint as="offset" />
      </mxGeometry>
    </mxCell><object id="e4c665d8ff789a78dc23e1c6ba0c3c70" label="DF" src_label="GigabitEthernet0/2" trgt_label="igabitEthernet0/1" source="f8ab7671-7787-472a-b9b6-869c5c1f5318" target="a6033a19-f893-4d53-b328-8da356ca9611">
      <mxCell style="endArrow=none;" edge="1" parent="1" source="f8ab7671-7787-472a-b9b6-869c5c1f5318" target="a6033a19-f893-4d53-b328-8da356ca9611">
          <mxGeometry relative="1" as="geometry" />
      </mxCell>
    </object><object id="bc4092ba-09f4-4cdd-ba04-074d48e109c3" label="10.6.158.47 Catalhan_47.vdk.gov.tr Platform:ciscoWS-C2960+24TC-S,Capabilities:Switch">
      <mxCell style="fillColor=#00FF17;fontStyle=1;whiteSpace=wrap;" vertex="1" parent="1">
          <mxGeometry x="17000.0" y="3000.0" width="200" height="100" as="geometry" />
      </mxCell>
    </object><mxCell id="6883ceddc09767d9a56e457fb9a45e19-src" value="FastEthernet0/20" style="labelBackgroundColor=#ffffff;;" vertex="1" connectable="0" parent="6883ceddc09767d9a56e457fb9a45e19">
      <mxGeometry x="-0.5" relative="1" as="geometry">
        <mxPoint as="offset" />
      </mxGeometry>
    </mxCell><mxCell id="6883ceddc09767d9a56e457fb9a45e19-trgt" value="igabitEthernet0/1" style="labelBackgroundColor=#ffffff;;" vertex="1" connectable="0" parent="6883ceddc09767d9a56e457fb9a45e19">
      <mxGeometry x="0.5" relative="-1" as="geometry">
        <mxPoint as="offset" />
      </mxGeometry>
    </mxCell><object id="6883ceddc09767d9a56e457fb9a45e19" label="DF" src_label="FastEthernet0/20" trgt_label="igabitEthernet0/1" source="8e9195a7-a87f-441f-b4a8-2e1aba3cfd7f" target="bc4092ba-09f4-4cdd-ba04-074d48e109c3">
      <mxCell style="endArrow=none;" edge="1" parent="1" source="8e9195a7-a87f-441f-b4a8-2e1aba3cfd7f" target="bc4092ba-09f4-4cdd-ba04-074d48e109c3">
          <mxGeometry relative="1" as="geometry" />
      </mxCell>
    </object><object id="47d0511a-71c9-4b29-811e-1011c4ad1b03" label="10.6.158.48 Catalhan_48.vdk.gov.tr Platform:ciscoWS-C2960+24TC-S,Capabilities:Switch">
      <mxCell style="fillColor=#00FF17;fontStyle=1;whiteSpace=wrap;" vertex="1" parent="1">
          <mxGeometry x="17000.0" y="4500.0" width="200" height="100" as="geometry" />
      </mxCell>
    </object><mxCell id="7cf9944ea53da6c13b9fee290cf84b2c-src" value="GigabitEthernet0/2" style="labelBackgroundColor=#ffffff;;" vertex="1" connectable="0" parent="7cf9944ea53da6c13b9fee290cf84b2c">
      <mxGeometry x="-0.5" relative="1" as="geometry">
        <mxPoint as="offset" />
      </mxGeometry>
    </mxCell><mxCell id="7cf9944ea53da6c13b9fee290cf84b2c-trgt" value="igabitEthernet0/1" style="labelBackgroundColor=#ffffff;;" vertex="1" connectable="0" parent="7cf9944ea53da6c13b9fee290cf84b2c">
      <mxGeometry x="0.5" relative="-1" as="geometry">
        <mxPoint as="offset" />
      </mxGeometry>
    </mxCell><object id="7cf9944ea53da6c13b9fee290cf84b2c" label="DF" src_label="GigabitEthernet0/2" trgt_label="igabitEthernet0/1" source="bc4092ba-09f4-4cdd-ba04-074d48e109c3" target="47d0511a-71c9-4b29-811e-1011c4ad1b03">
      <mxCell style="endArrow=none;" edge="1" parent="1" source="bc4092ba-09f4-4cdd-ba04-074d48e109c3" target="47d0511a-71c9-4b29-811e-1011c4ad1b03">
          <mxGeometry relative="1" as="geometry" />
      </mxCell>
    </object><object id="e1e9ec00-6462-4183-af00-906d421552fa" label="10.6.158.50 Catalhan_50.vdk.gov.tr Platform:ciscoWS-C2960+24TC-S,Capabilities:Switch">
      <mxCell style="fillColor=#00FF17;fontStyle=1;whiteSpace=wrap;" vertex="1" parent="1">
          <mxGeometry x="17000.0" y="6000.0" width="200" height="100" as="geometry" />
      </mxCell>
    </object><mxCell id="ace4ada93dafc9a2d5a4296376cf9919-src" value="GigabitEthernet0/2" style="labelBackgroundColor=#ffffff;;" vertex="1" connectable="0" parent="ace4ada93dafc9a2d5a4296376cf9919">
      <mxGeometry x="-0.5" relative="1" as="geometry">
        <mxPoint as="offset" />
      </mxGeometry>
    </mxCell><mxCell id="ace4ada93dafc9a2d5a4296376cf9919-trgt" value="igabitEthernet0/1" style="labelBackgroundColor=#ffffff;;" vertex="1" connectable="0" parent="ace4ada93dafc9a2d5a4296376cf9919">
      <mxGeometry x="0.5" relative="-1" as="geometry">
        <mxPoint as="offset" />
      </mxGeometry>
    </mxCell><object id="ace4ada93dafc9a2d5a4296376cf9919" label="DF" src_label="GigabitEthernet0/2" trgt_label="igabitEthernet0/1" source="47d0511a-71c9-4b29-811e-1011c4ad1b03" target="e1e9ec00-6462-4183-af00-906d421552fa">
      <mxCell style="endArrow=none;" edge="1" parent="1" source="47d0511a-71c9-4b29-811e-1011c4ad1b03" target="e1e9ec00-6462-4183-af00-906d421552fa">
          <mxGeometry relative="1" as="geometry" />
      </mxCell>
    </object><object id="eee3188f-a26f-4012-b3e9-60db2cea2bd7" label="10.6.158.51 Catalhan_51.vdk.gov.tr Platform:ciscoWS-C2960+24TC-S,Capabilities:Switch">
      <mxCell style="fillColor=#00FF17;fontStyle=1;whiteSpace=wrap;" vertex="1" parent="1">
          <mxGeometry x="17000.0" y="7500.0" width="200" height="100" as="geometry" />
      </mxCell>
    </object><mxCell id="7a0e671295ea12861d19e9eaa07f49aa-src" value="GigabitEthernet0/2" style="labelBackgroundColor=#ffffff;;" vertex="1" connectable="0" parent="7a0e671295ea12861d19e9eaa07f49aa">
      <mxGeometry x="-0.5" relative="1" as="geometry">
        <mxPoint as="offset" />
      </mxGeometry>
    </mxCell><mxCell id="7a0e671295ea12861d19e9eaa07f49aa-trgt" value="igabitEthernet0/1" style="labelBackgroundColor=#ffffff;;" vertex="1" connectable="0" parent="7a0e671295ea12861d19e9eaa07f49aa">
      <mxGeometry x="0.5" relative="-1" as="geometry">
        <mxPoint as="offset" />
      </mxGeometry>
    </mxCell><object id="7a0e671295ea12861d19e9eaa07f49aa" label="DF" src_label="GigabitEthernet0/2" trgt_label="igabitEthernet0/1" source="e1e9ec00-6462-4183-af00-906d421552fa" target="eee3188f-a26f-4012-b3e9-60db2cea2bd7">
      <mxCell style="endArrow=none;" edge="1" parent="1" source="e1e9ec00-6462-4183-af00-906d421552fa" target="eee3188f-a26f-4012-b3e9-60db2cea2bd7">
          <mxGeometry relative="1" as="geometry" />
      </mxCell>
    </object><object id="af085b06-b1d0-4817-b2fb-e55a10c80346" label="10.6.158.52 Catalhan_52.vdk.gov.tr Platform:ciscoWS-C2960+24TC-S,Capabilities:Switch">
      <mxCell style="fillColor=#00FF17;fontStyle=1;whiteSpace=wrap;" vertex="1" parent="1">
          <mxGeometry x="17000.0" y="9000.0" width="200" height="100" as="geometry" />
      </mxCell>
    </object><mxCell id="742ea3a99a2e3d0f68175ae5c03c7a80-src" value="GigabitEthernet0/2" style="labelBackgroundColor=#ffffff;;" vertex="1" connectable="0" parent="742ea3a99a2e3d0f68175ae5c03c7a80">
      <mxGeometry x="-0.5" relative="1" as="geometry">
        <mxPoint as="offset" />
      </mxGeometry>
    </mxCell><mxCell id="742ea3a99a2e3d0f68175ae5c03c7a80-trgt" value="igabitEthernet0/1" style="labelBackgroundColor=#ffffff;;" vertex="1" connectable="0" parent="742ea3a99a2e3d0f68175ae5c03c7a80">
      <mxGeometry x="0.5" relative="-1" as="geometry">
        <mxPoint as="offset" />
      </mxGeometry>
    </mxCell><object id="742ea3a99a2e3d0f68175ae5c03c7a80" label="DF" src_label="GigabitEthernet0/2" trgt_label="igabitEthernet0/1" source="eee3188f-a26f-4012-b3e9-60db2cea2bd7" target="af085b06-b1d0-4817-b2fb-e55a10c80346">
      <mxCell style="endArrow=none;" edge="1" parent="1" source="eee3188f-a26f-4012-b3e9-60db2cea2bd7" target="af085b06-b1d0-4817-b2fb-e55a10c80346">
          <mxGeometry relative="1" as="geometry" />
      </mxCell>
    </object><object id="bcf066d5-37e7-48a4-ba1f-03cacff5065c" label="10.6.158.137 B_Blok_Kat_5_AP_Top_Sw.vdk.gov.tr Platform:ciscoC9300L-48P-4X,Capabilities:SwitchIGMP">
      <mxCell style="fillColor=#00FF17;fontStyle=1;whiteSpace=wrap;" vertex="1" parent="1">
          <mxGeometry x="17500.0" y="3000.0" width="200" height="100" as="geometry" />
      </mxCell>
    </object><mxCell id="12895daf0036dbfd2aaae6d80678edf3-src" value="GigabitEthernet0/2" style="labelBackgroundColor=#ffffff;;" vertex="1" connectable="0" parent="12895daf0036dbfd2aaae6d80678edf3">
      <mxGeometry x="-0.5" relative="1" as="geometry">
        <mxPoint as="offset" />
      </mxGeometry>
    </mxCell><mxCell id="12895daf0036dbfd2aaae6d80678edf3-trgt" value="enGigabitEthernet1/1/1" style="labelBackgroundColor=#ffffff;;" vertex="1" connectable="0" parent="12895daf0036dbfd2aaae6d80678edf3">
      <mxGeometry x="0.5" relative="-1" as="geometry">
        <mxPoint as="offset" />
      </mxGeometry>
    </mxCell><object id="12895daf0036dbfd2aaae6d80678edf3" label="DF" src_label="GigabitEthernet0/2" trgt_label="enGigabitEthernet1/1/1" source="8e9195a7-a87f-441f-b4a8-2e1aba3cfd7f" target="bcf066d5-37e7-48a4-ba1f-03cacff5065c">
      <mxCell style="endArrow=none;" edge="1" parent="1" source="8e9195a7-a87f-441f-b4a8-2e1aba3cfd7f" target="bcf066d5-37e7-48a4-ba1f-03cacff5065c">
          <mxGeometry relative="1" as="geometry" />
      </mxCell>
    </object><object id="6b128f62-e9a7-4735-a09c-592cad055d07" label="10.6.158.136 B_Blok_Kat_1_AP_Top_Sw.vdk.gov.tr Platform:ciscoC9300L-48P-4X,Capabilities:SwitchIGMP">
      <mxCell style="fillColor=#00FF17;fontStyle=1;whiteSpace=wrap;" vertex="1" parent="1">
          <mxGeometry x="17500.0" y="4500.0" width="200" height="100" as="geometry" />
      </mxCell>
    </object><mxCell id="3f65b36eade63e5c3d75ed0f55eff541-src" value="TenGigabitEthernet1/1/2" style="labelBackgroundColor=#ffffff;;" vertex="1" connectable="0" parent="3f65b36eade63e5c3d75ed0f55eff541">
      <mxGeometry x="-0.5" relative="1" as="geometry">
        <mxPoint as="offset" />
      </mxGeometry>
    </mxCell><mxCell id="3f65b36eade63e5c3d75ed0f55eff541-trgt" value="enGigabitEthernet1/1/1" style="labelBackgroundColor=#ffffff;;" vertex="1" connectable="0" parent="3f65b36eade63e5c3d75ed0f55eff541">
      <mxGeometry x="0.5" relative="-1" as="geometry">
        <mxPoint as="offset" />
      </mxGeometry>
    </mxCell><object id="3f65b36eade63e5c3d75ed0f55eff541" label="DF" src_label="TenGigabitEthernet1/1/2" trgt_label="enGigabitEthernet1/1/1" source="bcf066d5-37e7-48a4-ba1f-03cacff5065c" target="6b128f62-e9a7-4735-a09c-592cad055d07">
      <mxCell style="endArrow=none;" edge="1" parent="1" source="bcf066d5-37e7-48a4-ba1f-03cacff5065c" target="6b128f62-e9a7-4735-a09c-592cad055d07">
          <mxGeometry relative="1" as="geometry" />
      </mxCell>
    </object><object id="7de3b7f9-ef60-488a-b240-aac05e72bd68" label="10.6.158.108 Catalhan_108.vdk.gov.tr Platform:ciscoWS-C2960+24TC-S,Capabilities:SwitchIGMP">
      <mxCell style="fillColor=#00FF17;fontStyle=1;whiteSpace=wrap;" vertex="1" parent="1">
          <mxGeometry x="18000.0" y="3000.0" width="200" height="100" as="geometry" />
      </mxCell>
    </object><mxCell id="a51955dd1db20fc88f65dbcb509187c3-src" value="FastEthernet0/6" style="labelBackgroundColor=#ffffff;;" vertex="1" connectable="0" parent="a51955dd1db20fc88f65dbcb509187c3">
      <mxGeometry x="-0.5" relative="1" as="geometry">
        <mxPoint as="offset" />
      </mxGeometry>
    </mxCell><mxCell id="a51955dd1db20fc88f65dbcb509187c3-trgt" value="igabitEthernet0/2" style="labelBackgroundColor=#ffffff;;" vertex="1" connectable="0" parent="a51955dd1db20fc88f65dbcb509187c3">
      <mxGeometry x="0.5" relative="-1" as="geometry">
        <mxPoint as="offset" />
      </mxGeometry>
    </mxCell><object id="a51955dd1db20fc88f65dbcb509187c3" label="DF" src_label="FastEthernet0/6" trgt_label="igabitEthernet0/2" source="8e9195a7-a87f-441f-b4a8-2e1aba3cfd7f" target="7de3b7f9-ef60-488a-b240-aac05e72bd68">
      <mxCell style="endArrow=none;" edge="1" parent="1" source="8e9195a7-a87f-441f-b4a8-2e1aba3cfd7f" target="7de3b7f9-ef60-488a-b240-aac05e72bd68">
          <mxGeometry relative="1" as="geometry" />
      </mxCell>
    </object><object id="cc268ebd-18d8-4193-934b-64f688c29b53" label="10.6.158.109 Catalhan_109.vdk.gov.tr Platform:ciscoWS-C2960+24TC-S,Capabilities:SwitchIGMP">
      <mxCell style="fillColor=#00FF17;fontStyle=1;whiteSpace=wrap;" vertex="1" parent="1">
          <mxGeometry x="18000.0" y="4500.0" width="200" height="100" as="geometry" />
      </mxCell>
    </object><mxCell id="73e629abaa87c8a7913040361e97fd29-src" value="GigabitEthernet0/1" style="labelBackgroundColor=#ffffff;;" vertex="1" connectable="0" parent="73e629abaa87c8a7913040361e97fd29">
      <mxGeometry x="-0.5" relative="1" as="geometry">
        <mxPoint as="offset" />
      </mxGeometry>
    </mxCell><mxCell id="73e629abaa87c8a7913040361e97fd29-trgt" value="igabitEthernet0/2" style="labelBackgroundColor=#ffffff;;" vertex="1" connectable="0" parent="73e629abaa87c8a7913040361e97fd29">
      <mxGeometry x="0.5" relative="-1" as="geometry">
        <mxPoint as="offset" />
      </mxGeometry>
    </mxCell><object id="73e629abaa87c8a7913040361e97fd29" label="DF" src_label="GigabitEthernet0/1" trgt_label="igabitEthernet0/2" source="7de3b7f9-ef60-488a-b240-aac05e72bd68" target="cc268ebd-18d8-4193-934b-64f688c29b53">
      <mxCell style="endArrow=none;" edge="1" parent="1" source="7de3b7f9-ef60-488a-b240-aac05e72bd68" target="cc268ebd-18d8-4193-934b-64f688c29b53">
          <mxGeometry relative="1" as="geometry" />
      </mxCell>
    </object><object id="1edd97c5-cd2a-4cac-b161-f5f1c4cb83d0" label="10.6.158.110 Catalhan_110.vdk.gov.tr Platform:ciscoWS-C2960+24TC-S,Capabilities:SwitchIGMP">
      <mxCell style="fillColor=#00FF17;fontStyle=1;whiteSpace=wrap;" vertex="1" parent="1">
          <mxGeometry x="18000.0" y="6000.0" width="200" height="100" as="geometry" />
      </mxCell>
    </object><mxCell id="55f4a72b814b5b7f02b1ccf6f859c4cd-src" value="GigabitEthernet0/1" style="labelBackgroundColor=#ffffff;;" vertex="1" connectable="0" parent="55f4a72b814b5b7f02b1ccf6f859c4cd">
      <mxGeometry x="-0.5" relative="1" as="geometry">
        <mxPoint as="offset" />
      </mxGeometry>
    </mxCell><mxCell id="55f4a72b814b5b7f02b1ccf6f859c4cd-trgt" value="igabitEthernet0/2" style="labelBackgroundColor=#ffffff;;" vertex="1" connectable="0" parent="55f4a72b814b5b7f02b1ccf6f859c4cd">
      <mxGeometry x="0.5" relative="-1" as="geometry">
        <mxPoint as="offset" />
      </mxGeometry>
    </mxCell><object id="55f4a72b814b5b7f02b1ccf6f859c4cd" label="DF" src_label="GigabitEthernet0/1" trgt_label="igabitEthernet0/2" source="cc268ebd-18d8-4193-934b-64f688c29b53" target="1edd97c5-cd2a-4cac-b161-f5f1c4cb83d0">
      <mxCell style="endArrow=none;" edge="1" parent="1" source="cc268ebd-18d8-4193-934b-64f688c29b53" target="1edd97c5-cd2a-4cac-b161-f5f1c4cb83d0">
          <mxGeometry relative="1" as="geometry" />
      </mxCell>
    </object><object id="1964f6fd-a536-4955-a984-a60cc9559296" label="10.6.158.103 Catalhan_103.vdk.gov.tr Platform:ciscoWS-C2960+24TC-S,Capabilities:SwitchIGMP">
      <mxCell style="fillColor=#00FF17;fontStyle=1;whiteSpace=wrap;" vertex="1" parent="1">
          <mxGeometry x="18500.0" y="3000.0" width="200" height="100" as="geometry" />
      </mxCell>
    </object><mxCell id="e32aa238f6ed77b2575422fc48b73b9a-src" value="FastEthernet0/24" style="labelBackgroundColor=#ffffff;;" vertex="1" connectable="0" parent="e32aa238f6ed77b2575422fc48b73b9a">
      <mxGeometry x="-0.5" relative="1" as="geometry">
        <mxPoint as="offset" />
      </mxGeometry>
    </mxCell><mxCell id="e32aa238f6ed77b2575422fc48b73b9a-trgt" value="igabitEthernet0/1" style="labelBackgroundColor=#ffffff;;" vertex="1" connectable="0" parent="e32aa238f6ed77b2575422fc48b73b9a">
      <mxGeometry x="0.5" relative="-1" as="geometry">
        <mxPoint as="offset" />
      </mxGeometry>
    </mxCell><object id="e32aa238f6ed77b2575422fc48b73b9a" label="DF" src_label="FastEthernet0/24" trgt_label="igabitEthernet0/1" source="8e9195a7-a87f-441f-b4a8-2e1aba3cfd7f" target="1964f6fd-a536-4955-a984-a60cc9559296">
      <mxCell style="endArrow=none;" edge="1" parent="1" source="8e9195a7-a87f-441f-b4a8-2e1aba3cfd7f" target="1964f6fd-a536-4955-a984-a60cc9559296">
          <mxGeometry relative="1" as="geometry" />
      </mxCell>
    </object><object id="ad3a3fd6-4696-44e5-bd23-f3dec4d35abc" label="10.6.158.104 Catalhan_104.vdk.gov.tr Platform:ciscoWS-C2960+24TC-S,Capabilities:SwitchIGMP">
      <mxCell style="fillColor=#00FF17;fontStyle=1;whiteSpace=wrap;" vertex="1" parent="1">
          <mxGeometry x="18500.0" y="4500.0" width="200" height="100" as="geometry" />
      </mxCell>
    </object><mxCell id="dfe718e70afb18c701d0a409f95b17c9-src" value="GigabitEthernet0/2" style="labelBackgroundColor=#ffffff;;" vertex="1" connectable="0" parent="dfe718e70afb18c701d0a409f95b17c9">
      <mxGeometry x="-0.5" relative="1" as="geometry">
        <mxPoint as="offset" />
      </mxGeometry>
    </mxCell><mxCell id="dfe718e70afb18c701d0a409f95b17c9-trgt" value="igabitEthernet0/1" style="labelBackgroundColor=#ffffff;;" vertex="1" connectable="0" parent="dfe718e70afb18c701d0a409f95b17c9">
      <mxGeometry x="0.5" relative="-1" as="geometry">
        <mxPoint as="offset" />
      </mxGeometry>
    </mxCell><object id="dfe718e70afb18c701d0a409f95b17c9" label="DF" src_label="GigabitEthernet0/2" trgt_label="igabitEthernet0/1" source="1964f6fd-a536-4955-a984-a60cc9559296" target="ad3a3fd6-4696-44e5-bd23-f3dec4d35abc">
      <mxCell style="endArrow=none;" edge="1" parent="1" source="1964f6fd-a536-4955-a984-a60cc9559296" target="ad3a3fd6-4696-44e5-bd23-f3dec4d35abc">
          <mxGeometry relative="1" as="geometry" />
      </mxCell>
    </object><object id="7b613584-be7f-4975-a548-5f55732bd269" label="10.6.158.105 Catalhan_105.vdk.gov.tr Platform:ciscoWS-C2960+24TC-S,Capabilities:SwitchIGMP">
      <mxCell style="fillColor=#00FF17;fontStyle=1;whiteSpace=wrap;" vertex="1" parent="1">
          <mxGeometry x="18500.0" y="6000.0" width="200" height="100" as="geometry" />
      </mxCell>
    </object><mxCell id="3d058a32d3286baf2336c9a32aec198b-src" value="GigabitEthernet0/2" style="labelBackgroundColor=#ffffff;;" vertex="1" connectable="0" parent="3d058a32d3286baf2336c9a32aec198b">
      <mxGeometry x="-0.5" relative="1" as="geometry">
        <mxPoint as="offset" />
      </mxGeometry>
    </mxCell><mxCell id="3d058a32d3286baf2336c9a32aec198b-trgt" value="igabitEthernet0/1" style="labelBackgroundColor=#ffffff;;" vertex="1" connectable="0" parent="3d058a32d3286baf2336c9a32aec198b">
      <mxGeometry x="0.5" relative="-1" as="geometry">
        <mxPoint as="offset" />
      </mxGeometry>
    </mxCell><object id="3d058a32d3286baf2336c9a32aec198b" label="DF" src_label="GigabitEthernet0/2" trgt_label="igabitEthernet0/1" source="ad3a3fd6-4696-44e5-bd23-f3dec4d35abc" target="7b613584-be7f-4975-a548-5f55732bd269">
      <mxCell style="endArrow=none;" edge="1" parent="1" source="ad3a3fd6-4696-44e5-bd23-f3dec4d35abc" target="7b613584-be7f-4975-a548-5f55732bd269">
          <mxGeometry relative="1" as="geometry" />
      </mxCell>
    </object><object id="afb1286b-b5da-434d-8dab-edc4da32efb5" label="10.6.158.106 Catalhan_106.vdk.gov.tr Platform:ciscoWS-C2960+24TC-S,Capabilities:SwitchIGMP">
      <mxCell style="fillColor=#00FF17;fontStyle=1;whiteSpace=wrap;" vertex="1" parent="1">
          <mxGeometry x="18500.0" y="7500.0" width="200" height="100" as="geometry" />
      </mxCell>
    </object><mxCell id="143c3a482b2a1d8b4ad6b2aa9e1d1194-src" value="GigabitEthernet0/2" style="labelBackgroundColor=#ffffff;;" vertex="1" connectable="0" parent="143c3a482b2a1d8b4ad6b2aa9e1d1194">
      <mxGeometry x="-0.5" relative="1" as="geometry">
        <mxPoint as="offset" />
      </mxGeometry>
    </mxCell><mxCell id="143c3a482b2a1d8b4ad6b2aa9e1d1194-trgt" value="igabitEthernet0/1" style="labelBackgroundColor=#ffffff;;" vertex="1" connectable="0" parent="143c3a482b2a1d8b4ad6b2aa9e1d1194">
      <mxGeometry x="0.5" relative="-1" as="geometry">
        <mxPoint as="offset" />
      </mxGeometry>
    </mxCell><object id="143c3a482b2a1d8b4ad6b2aa9e1d1194" label="DF" src_label="GigabitEthernet0/2" trgt_label="igabitEthernet0/1" source="7b613584-be7f-4975-a548-5f55732bd269" target="afb1286b-b5da-434d-8dab-edc4da32efb5">
      <mxCell style="endArrow=none;" edge="1" parent="1" source="7b613584-be7f-4975-a548-5f55732bd269" target="afb1286b-b5da-434d-8dab-edc4da32efb5">
          <mxGeometry relative="1" as="geometry" />
      </mxCell>
    </object><object id="14ccea2b-e3c4-4137-a8aa-22dc625b9c1d" label="10.6.158.107 Catalhan_107.vdk.gov.tr Platform:ciscoWS-C2960+24TC-S,Capabilities:SwitchIGMP">
      <mxCell style="fillColor=#00FF17;fontStyle=1;whiteSpace=wrap;" vertex="1" parent="1">
          <mxGeometry x="18500.0" y="9000.0" width="200" height="100" as="geometry" />
      </mxCell>
    </object><mxCell id="a9c5584767b4ecaf801fb0c670d0124e-src" value="GigabitEthernet0/2" style="labelBackgroundColor=#ffffff;;" vertex="1" connectable="0" parent="a9c5584767b4ecaf801fb0c670d0124e">
      <mxGeometry x="-0.5" relative="1" as="geometry">
        <mxPoint as="offset" />
      </mxGeometry>
    </mxCell><mxCell id="a9c5584767b4ecaf801fb0c670d0124e-trgt" value="igabitEthernet0/1" style="labelBackgroundColor=#ffffff;;" vertex="1" connectable="0" parent="a9c5584767b4ecaf801fb0c670d0124e">
      <mxGeometry x="0.5" relative="-1" as="geometry">
        <mxPoint as="offset" />
      </mxGeometry>
    </mxCell><object id="a9c5584767b4ecaf801fb0c670d0124e" label="DF" src_label="GigabitEthernet0/2" trgt_label="igabitEthernet0/1" source="afb1286b-b5da-434d-8dab-edc4da32efb5" target="14ccea2b-e3c4-4137-a8aa-22dc625b9c1d">
      <mxCell style="endArrow=none;" edge="1" parent="1" source="afb1286b-b5da-434d-8dab-edc4da32efb5" target="14ccea2b-e3c4-4137-a8aa-22dc625b9c1d">
          <mxGeometry relative="1" as="geometry" />
      </mxCell>
    </object><object id="c030435c-7b21-4afd-9885-61eadbbc02cf" label="10.6.158.102 Catalhan_102.vdk.gov.tr Platform:ciscoWS-C2960+24TC-S,Capabilities:SwitchIGMP">
      <mxCell style="fillColor=#00FF17;fontStyle=1;whiteSpace=wrap;" vertex="1" parent="1">
          <mxGeometry x="18500.0" y="10500.0" width="200" height="100" as="geometry" />
      </mxCell>
    </object><mxCell id="d9dc469f06a2ecf59f1d53b34f900457-src" value="GigabitEthernet0/2" style="labelBackgroundColor=#ffffff;;" vertex="1" connectable="0" parent="d9dc469f06a2ecf59f1d53b34f900457">
      <mxGeometry x="-0.5" relative="1" as="geometry">
        <mxPoint as="offset" />
      </mxGeometry>
    </mxCell><mxCell id="d9dc469f06a2ecf59f1d53b34f900457-trgt" value="igabitEthernet0/1" style="labelBackgroundColor=#ffffff;;" vertex="1" connectable="0" parent="d9dc469f06a2ecf59f1d53b34f900457">
      <mxGeometry x="0.5" relative="-1" as="geometry">
        <mxPoint as="offset" />
      </mxGeometry>
    </mxCell><object id="d9dc469f06a2ecf59f1d53b34f900457" label="DF" src_label="GigabitEthernet0/2" trgt_label="igabitEthernet0/1" source="14ccea2b-e3c4-4137-a8aa-22dc625b9c1d" target="c030435c-7b21-4afd-9885-61eadbbc02cf">
      <mxCell style="endArrow=none;" edge="1" parent="1" source="14ccea2b-e3c4-4137-a8aa-22dc625b9c1d" target="c030435c-7b21-4afd-9885-61eadbbc02cf">
          <mxGeometry relative="1" as="geometry" />
      </mxCell>
    </object><object id="b2a77b4c-54cb-4005-b551-38dfc5b00744" label="10.6.158.130 Catalhan_130.vdk.gov.tr Platform:ciscoWS-C2960+24TC-S,Capabilities:SwitchIGMP">
      <mxCell style="fillColor=#00FF17;fontStyle=1;whiteSpace=wrap;" vertex="1" parent="1">
          <mxGeometry x="19000.0" y="1500.0" width="200" height="100" as="geometry" />
      </mxCell>
    </object><mxCell id="aca762843b93204590b9060b7e559437-src" value="GigabitEthernet1/0/17" style="labelBackgroundColor=#ffffff;;" vertex="1" connectable="0" parent="aca762843b93204590b9060b7e559437">
      <mxGeometry x="-0.5" relative="1" as="geometry">
        <mxPoint as="offset" />
      </mxGeometry>
    </mxCell><mxCell id="aca762843b93204590b9060b7e559437-trgt" value="igabitEthernet0/1" style="labelBackgroundColor=#ffffff;;" vertex="1" connectable="0" parent="aca762843b93204590b9060b7e559437">
      <mxGeometry x="0.5" relative="-1" as="geometry">
        <mxPoint as="offset" />
      </mxGeometry>
    </mxCell><object id="aca762843b93204590b9060b7e559437" label="DF" src_label="GigabitEthernet1/0/17" trgt_label="igabitEthernet0/1" source="29d6ac13-1110-41bf-8c97-3b9a2e68ff37" target="b2a77b4c-54cb-4005-b551-38dfc5b00744">
      <mxCell style="endArrow=none;" edge="1" parent="1" source="29d6ac13-1110-41bf-8c97-3b9a2e68ff37" target="b2a77b4c-54cb-4005-b551-38dfc5b00744">
          <mxGeometry relative="1" as="geometry" />
      </mxCell>
    </object><object id="cc57a6e9-9231-4f54-817c-98d94b9873ad" label="10.6.158.4 Catalhan_4.vdk.gov.tr Platform:ciscoWS-C2960+24TC-S,Capabilities:Switch">
      <mxCell style="fillColor=#00FF17;fontStyle=1;whiteSpace=wrap;" vertex="1" parent="1">
          <mxGeometry x="19000.0" y="3000.0" width="200" height="100" as="geometry" />
      </mxCell>
    </object><mxCell id="4a5ba9935a230f620f92af6f7fad62d8-src" value="GigabitEthernet0/2" style="labelBackgroundColor=#ffffff;;" vertex="1" connectable="0" parent="4a5ba9935a230f620f92af6f7fad62d8">
      <mxGeometry x="-0.5" relative="1" as="geometry">
        <mxPoint as="offset" />
      </mxGeometry>
    </mxCell><mxCell id="4a5ba9935a230f620f92af6f7fad62d8-trgt" value="igabitEthernet0/1" style="labelBackgroundColor=#ffffff;;" vertex="1" connectable="0" parent="4a5ba9935a230f620f92af6f7fad62d8">
      <mxGeometry x="0.5" relative="-1" as="geometry">
        <mxPoint as="offset" />
      </mxGeometry>
    </mxCell><object id="4a5ba9935a230f620f92af6f7fad62d8" label="DF" src_label="GigabitEthernet0/2" trgt_label="igabitEthernet0/1" source="b2a77b4c-54cb-4005-b551-38dfc5b00744" target="cc57a6e9-9231-4f54-817c-98d94b9873ad">
      <mxCell style="endArrow=none;" edge="1" parent="1" source="b2a77b4c-54cb-4005-b551-38dfc5b00744" target="cc57a6e9-9231-4f54-817c-98d94b9873ad">
          <mxGeometry relative="1" as="geometry" />
      </mxCell>
    </object><object id="affc3e14-f375-4b52-96d4-53746b546539" label="10.6.158.6 Catalhan_6.vdk.gov.tr Platform:ciscoWS-C2960+24TC-S,Capabilities:Switch">
      <mxCell style="fillColor=#00FF17;fontStyle=1;whiteSpace=wrap;" vertex="1" parent="1">
          <mxGeometry x="19000.0" y="4500.0" width="200" height="100" as="geometry" />
      </mxCell>
    </object><mxCell id="5d98c7e2d29e5c6f0ddac9c1eaecd941-src" value="GigabitEthernet0/2" style="labelBackgroundColor=#ffffff;;" vertex="1" connectable="0" parent="5d98c7e2d29e5c6f0ddac9c1eaecd941">
      <mxGeometry x="-0.5" relative="1" as="geometry">
        <mxPoint as="offset" />
      </mxGeometry>
    </mxCell><mxCell id="5d98c7e2d29e5c6f0ddac9c1eaecd941-trgt" value="igabitEthernet0/1" style="labelBackgroundColor=#ffffff;;" vertex="1" connectable="0" parent="5d98c7e2d29e5c6f0ddac9c1eaecd941">
      <mxGeometry x="0.5" relative="-1" as="geometry">
        <mxPoint as="offset" />
      </mxGeometry>
    </mxCell><object id="5d98c7e2d29e5c6f0ddac9c1eaecd941" label="DF" src_label="GigabitEthernet0/2" trgt_label="igabitEthernet0/1" source="cc57a6e9-9231-4f54-817c-98d94b9873ad" target="affc3e14-f375-4b52-96d4-53746b546539">
      <mxCell style="endArrow=none;" edge="1" parent="1" source="cc57a6e9-9231-4f54-817c-98d94b9873ad" target="affc3e14-f375-4b52-96d4-53746b546539">
          <mxGeometry relative="1" as="geometry" />
      </mxCell>
    </object><object id="244395e6-2825-4975-94c7-98cc6ae622ca" label="10.6.125.235 Catalhan_135.vdk.gov.tr Platform:ciscoWS-C2960+24TC-S,Capabilities:SwitchIGMP">
      <mxCell style="fillColor=#00FF17;fontStyle=1;whiteSpace=wrap;" vertex="1" parent="1">
          <mxGeometry x="19000.0" y="6000.0" width="200" height="100" as="geometry" />
      </mxCell>
    </object><mxCell id="db877b981a67c0fb9cfbe0853cc4abfe-src" value="GigabitEthernet0/2" style="labelBackgroundColor=#ffffff;;" vertex="1" connectable="0" parent="db877b981a67c0fb9cfbe0853cc4abfe">
      <mxGeometry x="-0.5" relative="1" as="geometry">
        <mxPoint as="offset" />
      </mxGeometry>
    </mxCell><mxCell id="db877b981a67c0fb9cfbe0853cc4abfe-trgt" value="igabitEthernet0/1" style="labelBackgroundColor=#ffffff;;" vertex="1" connectable="0" parent="db877b981a67c0fb9cfbe0853cc4abfe">
      <mxGeometry x="0.5" relative="-1" as="geometry">
        <mxPoint as="offset" />
      </mxGeometry>
    </mxCell><object id="db877b981a67c0fb9cfbe0853cc4abfe" label="DF" src_label="GigabitEthernet0/2" trgt_label="igabitEthernet0/1" source="affc3e14-f375-4b52-96d4-53746b546539" target="244395e6-2825-4975-94c7-98cc6ae622ca">
      <mxCell style="endArrow=none;" edge="1" parent="1" source="affc3e14-f375-4b52-96d4-53746b546539" target="244395e6-2825-4975-94c7-98cc6ae622ca">
          <mxGeometry relative="1" as="geometry" />
      </mxCell>
    </object><object id="18c91758-598a-49ec-a5ab-557a0e5bdd9d" label="10.6.158.42 Catalhan_42.vdk.gov.tr Platform:ciscoWS-C2960-24TC-L,Capabilities:Switch">
      <mxCell style="fillColor=#00FF17;fontStyle=1;whiteSpace=wrap;" vertex="1" parent="1">
          <mxGeometry x="19000.0" y="7500.0" width="200" height="100" as="geometry" />
      </mxCell>
    </object><mxCell id="80c1631b0b669f9a6d8d6c049efaaeb3-src" value="GigabitEthernet0/2" style="labelBackgroundColor=#ffffff;;" vertex="1" connectable="0" parent="80c1631b0b669f9a6d8d6c049efaaeb3">
      <mxGeometry x="-0.5" relative="1" as="geometry">
        <mxPoint as="offset" />
      </mxGeometry>
    </mxCell><mxCell id="80c1631b0b669f9a6d8d6c049efaaeb3-trgt" value="igabitEthernet0/1" style="labelBackgroundColor=#ffffff;;" vertex="1" connectable="0" parent="80c1631b0b669f9a6d8d6c049efaaeb3">
      <mxGeometry x="0.5" relative="-1" as="geometry">
        <mxPoint as="offset" />
      </mxGeometry>
    </mxCell><object id="80c1631b0b669f9a6d8d6c049efaaeb3" label="DF" src_label="GigabitEthernet0/2" trgt_label="igabitEthernet0/1" source="244395e6-2825-4975-94c7-98cc6ae622ca" target="18c91758-598a-49ec-a5ab-557a0e5bdd9d">
      <mxCell style="endArrow=none;" edge="1" parent="1" source="244395e6-2825-4975-94c7-98cc6ae622ca" target="18c91758-598a-49ec-a5ab-557a0e5bdd9d">
          <mxGeometry relative="1" as="geometry" />
      </mxCell>
    </object><object id="50a9858a-a70f-44bb-bae9-eb51f036aadb" label="10.6.158.113 Catalhan_113.vdk.gov.tr Platform:ciscoWS-C2960+24TC-S,Capabilities:SwitchIGMP">
      <mxCell style="fillColor=#00FF17;fontStyle=1;whiteSpace=wrap;" vertex="1" parent="1">
          <mxGeometry x="19500.0" y="1500.0" width="200" height="100" as="geometry" />
      </mxCell>
    </object><mxCell id="d9adbe91143c4a356e022f31bfd77bbe-src" value="GigabitEthernet1/0/11" style="labelBackgroundColor=#ffffff;;" vertex="1" connectable="0" parent="d9adbe91143c4a356e022f31bfd77bbe">
      <mxGeometry x="-0.5" relative="1" as="geometry">
        <mxPoint as="offset" />
      </mxGeometry>
    </mxCell><mxCell id="d9adbe91143c4a356e022f31bfd77bbe-trgt" value="igabitEthernet0/2" style="labelBackgroundColor=#ffffff;;" vertex="1" connectable="0" parent="d9adbe91143c4a356e022f31bfd77bbe">
      <mxGeometry x="0.5" relative="-1" as="geometry">
        <mxPoint as="offset" />
      </mxGeometry>
    </mxCell><object id="d9adbe91143c4a356e022f31bfd77bbe" label="DF" src_label="GigabitEthernet1/0/11" trgt_label="igabitEthernet0/2" source="29d6ac13-1110-41bf-8c97-3b9a2e68ff37" target="50a9858a-a70f-44bb-bae9-eb51f036aadb">
      <mxCell style="endArrow=none;" edge="1" parent="1" source="29d6ac13-1110-41bf-8c97-3b9a2e68ff37" target="50a9858a-a70f-44bb-bae9-eb51f036aadb">
          <mxGeometry relative="1" as="geometry" />
      </mxCell>
    </object><object id="10ac5245-bbd1-4dea-9275-df161e6b8cb4" label="10.6.158.121 Catalhan_121.vdk.gov.tr Platform:ciscoWS-C2960+24TC-S,Capabilities:SwitchIGMP">
      <mxCell style="fillColor=#00FF17;fontStyle=1;whiteSpace=wrap;" vertex="1" parent="1">
          <mxGeometry x="19500.0" y="3000.0" width="200" height="100" as="geometry" />
      </mxCell>
    </object><mxCell id="35e9577ff1aefa0e7113501869d09ee1-src" value="GigabitEthernet0/1" style="labelBackgroundColor=#ffffff;;" vertex="1" connectable="0" parent="35e9577ff1aefa0e7113501869d09ee1">
      <mxGeometry x="-0.5" relative="1" as="geometry">
        <mxPoint as="offset" />
      </mxGeometry>
    </mxCell><mxCell id="35e9577ff1aefa0e7113501869d09ee1-trgt" value="igabitEthernet0/2" style="labelBackgroundColor=#ffffff;;" vertex="1" connectable="0" parent="35e9577ff1aefa0e7113501869d09ee1">
      <mxGeometry x="0.5" relative="-1" as="geometry">
        <mxPoint as="offset" />
      </mxGeometry>
    </mxCell><object id="35e9577ff1aefa0e7113501869d09ee1" label="DF" src_label="GigabitEthernet0/1" trgt_label="igabitEthernet0/2" source="50a9858a-a70f-44bb-bae9-eb51f036aadb" target="10ac5245-bbd1-4dea-9275-df161e6b8cb4">
      <mxCell style="endArrow=none;" edge="1" parent="1" source="50a9858a-a70f-44bb-bae9-eb51f036aadb" target="10ac5245-bbd1-4dea-9275-df161e6b8cb4">
          <mxGeometry relative="1" as="geometry" />
      </mxCell>
    </object><object id="1d2bb3f0-11b2-4841-aae4-46984b00cd4b" label="10.6.158.127 Catalhan_127.vdk.gov.tr Platform:ciscoWS-C2960+24TC-S,Capabilities:SwitchIGMP">
      <mxCell style="fillColor=#00FF17;fontStyle=1;whiteSpace=wrap;" vertex="1" parent="1">
          <mxGeometry x="19500.0" y="4500.0" width="200" height="100" as="geometry" />
      </mxCell>
    </object><mxCell id="a3b6da1a88e56dcef9e2fb4859b79554-src" value="GigabitEthernet0/1" style="labelBackgroundColor=#ffffff;;" vertex="1" connectable="0" parent="a3b6da1a88e56dcef9e2fb4859b79554">
      <mxGeometry x="-0.5" relative="1" as="geometry">
        <mxPoint as="offset" />
      </mxGeometry>
    </mxCell><mxCell id="a3b6da1a88e56dcef9e2fb4859b79554-trgt" value="igabitEthernet0/2" style="labelBackgroundColor=#ffffff;;" vertex="1" connectable="0" parent="a3b6da1a88e56dcef9e2fb4859b79554">
      <mxGeometry x="0.5" relative="-1" as="geometry">
        <mxPoint as="offset" />
      </mxGeometry>
    </mxCell><object id="a3b6da1a88e56dcef9e2fb4859b79554" label="DF" src_label="GigabitEthernet0/1" trgt_label="igabitEthernet0/2" source="10ac5245-bbd1-4dea-9275-df161e6b8cb4" target="1d2bb3f0-11b2-4841-aae4-46984b00cd4b">
      <mxCell style="endArrow=none;" edge="1" parent="1" source="10ac5245-bbd1-4dea-9275-df161e6b8cb4" target="1d2bb3f0-11b2-4841-aae4-46984b00cd4b">
          <mxGeometry relative="1" as="geometry" />
      </mxCell>
    </object><object id="b28a0cad-117a-49ca-9c68-7b5760f435b3" label="10.6.158.123 Catalhan_123.vdk.gov.tr Platform:ciscoWS-C2960+24TC-S,Capabilities:SwitchIGMP">
      <mxCell style="fillColor=#00FF17;fontStyle=1;whiteSpace=wrap;" vertex="1" parent="1">
          <mxGeometry x="19500.0" y="6000.0" width="200" height="100" as="geometry" />
      </mxCell>
    </object><mxCell id="06397c5ea44ed55aff486b4efff063d2-src" value="GigabitEthernet0/1" style="labelBackgroundColor=#ffffff;;" vertex="1" connectable="0" parent="06397c5ea44ed55aff486b4efff063d2">
      <mxGeometry x="-0.5" relative="1" as="geometry">
        <mxPoint as="offset" />
      </mxGeometry>
    </mxCell><mxCell id="06397c5ea44ed55aff486b4efff063d2-trgt" value="igabitEthernet0/2" style="labelBackgroundColor=#ffffff;;" vertex="1" connectable="0" parent="06397c5ea44ed55aff486b4efff063d2">
      <mxGeometry x="0.5" relative="-1" as="geometry">
        <mxPoint as="offset" />
      </mxGeometry>
    </mxCell><object id="06397c5ea44ed55aff486b4efff063d2" label="DF" src_label="GigabitEthernet0/1" trgt_label="igabitEthernet0/2" source="1d2bb3f0-11b2-4841-aae4-46984b00cd4b" target="b28a0cad-117a-49ca-9c68-7b5760f435b3">
      <mxCell style="endArrow=none;" edge="1" parent="1" source="1d2bb3f0-11b2-4841-aae4-46984b00cd4b" target="b28a0cad-117a-49ca-9c68-7b5760f435b3">
          <mxGeometry relative="1" as="geometry" />
      </mxCell>
    </object><object id="c408d4ab-e6b5-437a-9d92-67f6819fdeb7" label="10.6.158.117 Catalhan_117.vdk.gov.tr Platform:ciscoWS-C2960+24TC-S,Capabilities:SwitchIGMP">
      <mxCell style="fillColor=#00FF17;fontStyle=1;whiteSpace=wrap;" vertex="1" parent="1">
          <mxGeometry x="19500.0" y="7500.0" width="200" height="100" as="geometry" />
      </mxCell>
    </object><mxCell id="7d947a726a7b0be5ac6ffad5a0518152-src" value="GigabitEthernet0/1" style="labelBackgroundColor=#ffffff;;" vertex="1" connectable="0" parent="7d947a726a7b0be5ac6ffad5a0518152">
      <mxGeometry x="-0.5" relative="1" as="geometry">
        <mxPoint as="offset" />
      </mxGeometry>
    </mxCell><mxCell id="7d947a726a7b0be5ac6ffad5a0518152-trgt" value="igabitEthernet0/2" style="labelBackgroundColor=#ffffff;;" vertex="1" connectable="0" parent="7d947a726a7b0be5ac6ffad5a0518152">
      <mxGeometry x="0.5" relative="-1" as="geometry">
        <mxPoint as="offset" />
      </mxGeometry>
    </mxCell><object id="7d947a726a7b0be5ac6ffad5a0518152" label="DF" src_label="GigabitEthernet0/1" trgt_label="igabitEthernet0/2" source="b28a0cad-117a-49ca-9c68-7b5760f435b3" target="c408d4ab-e6b5-437a-9d92-67f6819fdeb7">
      <mxCell style="endArrow=none;" edge="1" parent="1" source="b28a0cad-117a-49ca-9c68-7b5760f435b3" target="c408d4ab-e6b5-437a-9d92-67f6819fdeb7">
          <mxGeometry relative="1" as="geometry" />
      </mxCell>
    </object></root>
      </mxGraphModel>
    </diagram></mxfile>